<svg xmlns="http://www.w3.org/2000/svg" width="80" height="80" viewBox="0 0 80 80">
  <!-- Alien: Green with big eyes -->
  <!-- Row 0: top of head -->
  <rect x="30" y="0" width="5" height="5" fill="#2E7D32"/>
  <rect x="35" y="0" width="5" height="5" fill="#388E3C"/>
  <rect x="40" y="0" width="5" height="5" fill="#388E3C"/>
  <rect x="45" y="0" width="5" height="5" fill="#2E7D32"/>
  <!-- Row 1 -->
  <rect x="25" y="5" width="5" height="5" fill="#2E7D32"/>
  <rect x="30" y="5" width="5" height="5" fill="#4CAF50"/>
  <rect x="35" y="5" width="5" height="5" fill="#66BB6A"/>
  <rect x="40" y="5" width="5" height="5" fill="#66BB6A"/>
  <rect x="45" y="5" width="5" height="5" fill="#4CAF50"/>
  <rect x="50" y="5" width="5" height="5" fill="#2E7D32"/>
  <!-- Row 2 -->
  <rect x="20" y="10" width="5" height="5" fill="#2E7D32"/>
  <rect x="25" y="10" width="5" height="5" fill="#4CAF50"/>
  <rect x="30" y="10" width="5" height="5" fill="#66BB6A"/>
  <rect x="35" y="10" width="5" height="5" fill="#81C784"/>
  <rect x="40" y="10" width="5" height="5" fill="#81C784"/>
  <rect x="45" y="10" width="5" height="5" fill="#66BB6A"/>
  <rect x="50" y="10" width="5" height="5" fill="#4CAF50"/>
  <rect x="55" y="10" width="5" height="5" fill="#2E7D32"/>
  <!-- Row 3 -->
  <rect x="15" y="15" width="5" height="5" fill="#2E7D32"/>
  <rect x="20" y="15" width="5" height="5" fill="#4CAF50"/>
  <rect x="25" y="15" width="5" height="5" fill="#66BB6A"/>
  <rect x="30" y="15" width="5" height="5" fill="#81C784"/>
  <rect x="35" y="15" width="5" height="5" fill="#81C784"/>
  <rect x="40" y="15" width="5" height="5" fill="#81C784"/>
  <rect x="45" y="15" width="5" height="5" fill="#81C784"/>
  <rect x="50" y="15" width="5" height="5" fill="#66BB6A"/>
  <rect x="55" y="15" width="5" height="5" fill="#4CAF50"/>
  <rect x="60" y="15" width="5" height="5" fill="#2E7D32"/>
  <!-- Row 4: eyes top -->
  <rect x="10" y="20" width="5" height="5" fill="#2E7D32"/>
  <rect x="15" y="20" width="5" height="5" fill="#4CAF50"/>
  <rect x="20" y="20" width="5" height="5" fill="#111111"/>
  <rect x="25" y="20" width="5" height="5" fill="#111111"/>
  <rect x="30" y="20" width="5" height="5" fill="#111111"/>
  <rect x="35" y="20" width="5" height="5" fill="#81C784"/>
  <rect x="40" y="20" width="5" height="5" fill="#81C784"/>
  <rect x="45" y="20" width="5" height="5" fill="#111111"/>
  <rect x="50" y="20" width="5" height="5" fill="#111111"/>
  <rect x="55" y="20" width="5" height="5" fill="#111111"/>
  <rect x="60" y="20" width="5" height="5" fill="#4CAF50"/>
  <rect x="65" y="20" width="5" height="5" fill="#2E7D32"/>
  <!-- Row 5: eyes -->
  <rect x="10" y="25" width="5" height="5" fill="#2E7D32"/>
  <rect x="15" y="25" width="5" height="5" fill="#111111"/>
  <rect x="20" y="25" width="5" height="5" fill="#00E676"/>
  <rect x="25" y="25" width="5" height="5" fill="#00E676"/>
  <rect x="30" y="25" width="5" height="5" fill="#FFFFFF"/>
  <rect x="35" y="25" width="5" height="5" fill="#111111"/>
  <rect x="40" y="25" width="5" height="5" fill="#111111"/>
  <rect x="45" y="25" width="5" height="5" fill="#00E676"/>
  <rect x="50" y="25" width="5" height="5" fill="#00E676"/>
  <rect x="55" y="25" width="5" height="5" fill="#FFFFFF"/>
  <rect x="60" y="25" width="5" height="5" fill="#111111"/>
  <rect x="65" y="25" width="5" height="5" fill="#2E7D32"/>
  <!-- Row 6: eyes bottom -->
  <rect x="10" y="30" width="5" height="5" fill="#2E7D32"/>
  <rect x="15" y="30" width="5" height="5" fill="#111111"/>
  <rect x="20" y="30" width="5" height="5" fill="#00E676"/>
  <rect x="25" y="30" width="5" height="5" fill="#00E676"/>
  <rect x="30" y="30" width="5" height="5" fill="#00E676"/>
  <rect x="35" y="30" width="5" height="5" fill="#111111"/>
  <rect x="40" y="30" width="5" height="5" fill="#111111"/>
  <rect x="45" y="30" width="5" height="5" fill="#00E676"/>
  <rect x="50" y="30" width="5" height="5" fill="#00E676"/>
  <rect x="55" y="30" width="5" height="5" fill="#00E676"/>
  <rect x="60" y="30" width="5" height="5" fill="#111111"/>
  <rect x="65" y="30" width="5" height="5" fill="#2E7D32"/>
  <!-- Row 7 -->
  <rect x="15" y="35" width="5" height="5" fill="#2E7D32"/>
  <rect x="20" y="35" width="5" height="5" fill="#111111"/>
  <rect x="25" y="35" width="5" height="5" fill="#111111"/>
  <rect x="30" y="35" width="5" height="5" fill="#4CAF50"/>
  <rect x="35" y="35" width="5" height="5" fill="#66BB6A"/>
  <rect x="40" y="35" width="5" height="5" fill="#66BB6A"/>
  <rect x="45" y="35" width="5" height="5" fill="#4CAF50"/>
  <rect x="50" y="35" width="5" height="5" fill="#111111"/>
  <rect x="55" y="35" width="5" height="5" fill="#111111"/>
  <rect x="60" y="35" width="5" height="5" fill="#2E7D32"/>
  <!-- Row 8: nostrils -->
  <rect x="20" y="40" width="5" height="5" fill="#2E7D32"/>
  <rect x="25" y="40" width="5" height="5" fill="#4CAF50"/>
  <rect x="30" y="40" width="5" height="5" fill="#66BB6A"/>
  <rect x="35" y="40" width="5" height="5" fill="#1B5E20"/>
  <rect x="40" y="40" width="5" height="5" fill="#1B5E20"/>
  <rect x="45" y="40" width="5" height="5" fill="#66BB6A"/>
  <rect x="50" y="40" width="5" height="5" fill="#4CAF50"/>
  <rect x="55" y="40" width="5" height="5" fill="#2E7D32"/>
  <!-- Row 9: mouth -->
  <rect x="25" y="45" width="5" height="5" fill="#2E7D32"/>
  <rect x="30" y="45" width="5" height="5" fill="#4CAF50"/>
  <rect x="35" y="45" width="5" height="5" fill="#4CAF50"/>
  <rect x="40" y="45" width="5" height="5" fill="#4CAF50"/>
  <rect x="45" y="45" width="5" height="5" fill="#4CAF50"/>
  <rect x="50" y="45" width="5" height="5" fill="#2E7D32"/>
  <!-- Row 10: chin -->
  <rect x="25" y="50" width="5" height="5" fill="#2E7D32"/>
  <rect x="30" y="50" width="5" height="5" fill="#2E7D32"/>
  <rect x="35" y="50" width="5" height="5" fill="#2E7D32"/>
  <rect x="40" y="50" width="5" height="5" fill="#2E7D32"/>
  <rect x="45" y="50" width="5" height="5" fill="#2E7D32"/>
  <rect x="50" y="50" width="5" height="5" fill="#2E7D32"/>
  <!-- Row 11: neck -->
  <rect x="30" y="55" width="5" height="5" fill="#4CAF50"/>
  <rect x="35" y="55" width="5" height="5" fill="#66BB6A"/>
  <rect x="40" y="55" width="5" height="5" fill="#66BB6A"/>
  <rect x="45" y="55" width="5" height="5" fill="#4CAF50"/>
  <!-- Row 12: body -->
  <rect x="15" y="60" width="5" height="5" fill="#7B1FA2"/>
  <rect x="20" y="60" width="5" height="5" fill="#9C27B0"/>
  <rect x="25" y="60" width="5" height="5" fill="#9C27B0"/>
  <rect x="30" y="60" width="5" height="5" fill="#AB47BC"/>
  <rect x="35" y="60" width="5" height="5" fill="#AB47BC"/>
  <rect x="40" y="60" width="5" height="5" fill="#AB47BC"/>
  <rect x="45" y="60" width="5" height="5" fill="#AB47BC"/>
  <rect x="50" y="60" width="5" height="5" fill="#9C27B0"/>
  <rect x="55" y="60" width="5" height="5" fill="#9C27B0"/>
  <rect x="60" y="60" width="5" height="5" fill="#7B1FA2"/>
  <!-- Row 13: body -->
  <rect x="10" y="65" width="5" height="5" fill="#4CAF50"/>
  <rect x="15" y="65" width="5" height="5" fill="#9C27B0"/>
  <rect x="20" y="65" width="5" height="5" fill="#AB47BC"/>
  <rect x="25" y="65" width="5" height="5" fill="#AB47BC"/>
  <rect x="30" y="65" width="5" height="5" fill="#CE93D8"/>
  <rect x="35" y="65" width="5" height="5" fill="#AB47BC"/>
  <rect x="40" y="65" width="5" height="5" fill="#AB47BC"/>
  <rect x="45" y="65" width="5" height="5" fill="#CE93D8"/>
  <rect x="50" y="65" width="5" height="5" fill="#AB47BC"/>
  <rect x="55" y="65" width="5" height="5" fill="#AB47BC"/>
  <rect x="60" y="65" width="5" height="5" fill="#9C27B0"/>
  <rect x="65" y="65" width="5" height="5" fill="#4CAF50"/>
  <!-- Row 14: hands -->
  <rect x="5" y="70" width="5" height="5" fill="#4CAF50"/>
  <rect x="10" y="70" width="5" height="5" fill="#66BB6A"/>
  <rect x="15" y="70" width="5" height="5" fill="#4CAF50"/>
  <rect x="25" y="70" width="5" height="5" fill="#7B1FA2"/>
  <rect x="30" y="70" width="5" height="5" fill="#7B1FA2"/>
  <rect x="45" y="70" width="5" height="5" fill="#7B1FA2"/>
  <rect x="50" y="70" width="5" height="5" fill="#7B1FA2"/>
  <rect x="60" y="70" width="5" height="5" fill="#4CAF50"/>
  <rect x="65" y="70" width="5" height="5" fill="#66BB6A"/>
  <rect x="70" y="70" width="5" height="5" fill="#4CAF50"/>
  <!-- Row 15: feet -->
  <rect x="20" y="75" width="5" height="5" fill="#4CAF50"/>
  <rect x="25" y="75" width="5" height="5" fill="#66BB6A"/>
  <rect x="30" y="75" width="5" height="5" fill="#4CAF50"/>
  <rect x="45" y="75" width="5" height="5" fill="#4CAF50"/>
  <rect x="50" y="75" width="5" height="5" fill="#66BB6A"/>
  <rect x="55" y="75" width="5" height="5" fill="#4CAF50"/>
</svg>