<svg xmlns="http://www.w3.org/2000/svg" width="80" height="80" viewBox="0 0 80 80">
  <!-- Astronaut: White space suit with visor -->
  <!-- Row 0: helmet top -->
  <rect x="25" y="0" width="5" height="5" fill="#B0BEC5"/>
  <rect x="30" y="0" width="5" height="5" fill="#CFD8DC"/>
  <rect x="35" y="0" width="5" height="5" fill="#ECEFF1"/>
  <rect x="40" y="0" width="5" height="5" fill="#ECEFF1"/>
  <rect x="45" y="0" width="5" height="5" fill="#CFD8DC"/>
  <rect x="50" y="0" width="5" height="5" fill="#B0BEC5"/>
  <!-- Row 1 -->
  <rect x="20" y="5" width="5" height="5" fill="#B0BEC5"/>
  <rect x="25" y="5" width="5" height="5" fill="#CFD8DC"/>
  <rect x="30" y="5" width="5" height="5" fill="#ECEFF1"/>
  <rect x="35" y="5" width="5" height="5" fill="#FFFFFF"/>
  <rect x="40" y="5" width="5" height="5" fill="#FFFFFF"/>
  <rect x="45" y="5" width="5" height="5" fill="#ECEFF1"/>
  <rect x="50" y="5" width="5" height="5" fill="#CFD8DC"/>
  <rect x="55" y="5" width="5" height="5" fill="#B0BEC5"/>
  <!-- Row 2 -->
  <rect x="15" y="10" width="5" height="5" fill="#B0BEC5"/>
  <rect x="20" y="10" width="5" height="5" fill="#ECEFF1"/>
  <rect x="25" y="10" width="5" height="5" fill="#FFFFFF"/>
  <rect x="30" y="10" width="5" height="5" fill="#FFFFFF"/>
  <rect x="35" y="10" width="5" height="5" fill="#FFFFFF"/>
  <rect x="40" y="10" width="5" height="5" fill="#FFFFFF"/>
  <rect x="45" y="10" width="5" height="5" fill="#FFFFFF"/>
  <rect x="50" y="10" width="5" height="5" fill="#FFFFFF"/>
  <rect x="55" y="10" width="5" height="5" fill="#ECEFF1"/>
  <rect x="60" y="10" width="5" height="5" fill="#B0BEC5"/>
  <!-- Row 3: visor top -->
  <rect x="15" y="15" width="5" height="5" fill="#B0BEC5"/>
  <rect x="20" y="15" width="5" height="5" fill="#ECEFF1"/>
  <rect x="25" y="15" width="5" height="5" fill="#FFD600"/>
  <rect x="30" y="15" width="5" height="5" fill="#FFD600"/>
  <rect x="35" y="15" width="5" height="5" fill="#FFD600"/>
  <rect x="40" y="15" width="5" height="5" fill="#FFD600"/>
  <rect x="45" y="15" width="5" height="5" fill="#FFD600"/>
  <rect x="50" y="15" width="5" height="5" fill="#FFD600"/>
  <rect x="55" y="15" width="5" height="5" fill="#ECEFF1"/>
  <rect x="60" y="15" width="5" height="5" fill="#B0BEC5"/>
  <!-- Row 4: visor -->
  <rect x="10" y="20" width="5" height="5" fill="#B0BEC5"/>
  <rect x="15" y="20" width="5" height="5" fill="#ECEFF1"/>
  <rect x="20" y="20" width="5" height="5" fill="#FF8F00"/>
  <rect x="25" y="20" width="5" height="5" fill="#FF6F00"/>
  <rect x="30" y="20" width="5" height="5" fill="#E65100"/>
  <rect x="35" y="20" width="5" height="5" fill="#FFD600"/>
  <rect x="40" y="20" width="5" height="5" fill="#FFD600"/>
  <rect x="45" y="20" width="5" height="5" fill="#FF8F00"/>
  <rect x="50" y="20" width="5" height="5" fill="#FF6F00"/>
  <rect x="55" y="20" width="5" height="5" fill="#E65100"/>
  <rect x="60" y="20" width="5" height="5" fill="#ECEFF1"/>
  <rect x="65" y="20" width="5" height="5" fill="#B0BEC5"/>
  <!-- Row 5: visor -->
  <rect x="10" y="25" width="5" height="5" fill="#B0BEC5"/>
  <rect x="15" y="25" width="5" height="5" fill="#ECEFF1"/>
  <rect x="20" y="25" width="5" height="5" fill="#E65100"/>
  <rect x="25" y="25" width="5" height="5" fill="#BF360C"/>
  <rect x="30" y="25" width="5" height="5" fill="#FF8F00"/>
  <rect x="35" y="25" width="5" height="5" fill="#FF6F00"/>
  <rect x="40" y="25" width="5" height="5" fill="#E65100"/>
  <rect x="45" y="25" width="5" height="5" fill="#BF360C"/>
  <rect x="50" y="25" width="5" height="5" fill="#FF8F00"/>
  <rect x="55" y="25" width="5" height="5" fill="#FF6F00"/>
  <rect x="60" y="25" width="5" height="5" fill="#ECEFF1"/>
  <rect x="65" y="25" width="5" height="5" fill="#B0BEC5"/>
  <!-- Row 6: visor bottom -->
  <rect x="10" y="30" width="5" height="5" fill="#B0BEC5"/>
  <rect x="15" y="30" width="5" height="5" fill="#ECEFF1"/>
  <rect x="20" y="30" width="5" height="5" fill="#BF360C"/>
  <rect x="25" y="30" width="5" height="5" fill="#E65100"/>
  <rect x="30" y="30" width="5" height="5" fill="#E65100"/>
  <rect x="35" y="30" width="5" height="5" fill="#BF360C"/>
  <rect x="40" y="30" width="5" height="5" fill="#BF360C"/>
  <rect x="45" y="30" width="5" height="5" fill="#E65100"/>
  <rect x="50" y="30" width="5" height="5" fill="#E65100"/>
  <rect x="55" y="30" width="5" height="5" fill="#BF360C"/>
  <rect x="60" y="30" width="5" height="5" fill="#ECEFF1"/>
  <rect x="65" y="30" width="5" height="5" fill="#B0BEC5"/>
  <!-- Row 7: helmet bottom -->
  <rect x="15" y="35" width="5" height="5" fill="#B0BEC5"/>
  <rect x="20" y="35" width="5" height="5" fill="#ECEFF1"/>
  <rect x="25" y="35" width="5" height="5" fill="#FFFFFF"/>
  <rect x="30" y="35" width="5" height="5" fill="#FFFFFF"/>
  <rect x="35" y="35" width="5" height="5" fill="#FFFFFF"/>
  <rect x="40" y="35" width="5" height="5" fill="#FFFFFF"/>
  <rect x="45" y="35" width="5" height="5" fill="#FFFFFF"/>
  <rect x="50" y="35" width="5" height="5" fill="#FFFFFF"/>
  <rect x="55" y="35" width="5" height="5" fill="#ECEFF1"/>
  <rect x="60" y="35" width="5" height="5" fill="#B0BEC5"/>
  <!-- Row 8: chin -->
  <rect x="20" y="40" width="5" height="5" fill="#B0BEC5"/>
  <rect x="25" y="40" width="5" height="5" fill="#CFD8DC"/>
  <rect x="30" y="40" width="5" height="5" fill="#ECEFF1"/>
  <rect x="35" y="40" width="5" height="5" fill="#ECEFF1"/>
  <rect x="40" y="40" width="5" height="5" fill="#ECEFF1"/>
  <rect x="45" y="40" width="5" height="5" fill="#ECEFF1"/>
  <rect x="50" y="40" width="5" height="5" fill="#CFD8DC"/>
  <rect x="55" y="40" width="5" height="5" fill="#B0BEC5"/>
  <!-- Row 9: neck -->
  <rect x="25" y="45" width="5" height="5" fill="#90A4AE"/>
  <rect x="30" y="45" width="5" height="5" fill="#B0BEC5"/>
  <rect x="35" y="45" width="5" height="5" fill="#CFD8DC"/>
  <rect x="40" y="45" width="5" height="5" fill="#CFD8DC"/>
  <rect x="45" y="45" width="5" height="5" fill="#B0BEC5"/>
  <rect x="50" y="45" width="5" height="5" fill="#90A4AE"/>
  <!-- Row 10: suit -->
  <rect x="15" y="50" width="5" height="5" fill="#90A4AE"/>
  <rect x="20" y="50" width="5" height="5" fill="#B0BEC5"/>
  <rect x="25" y="50" width="5" height="5" fill="#CFD8DC"/>
  <rect x="30" y="50" width="5" height="5" fill="#ECEFF1"/>
  <rect x="35" y="50" width="5" height="5" fill="#FFFFFF"/>
  <rect x="40" y="50" width="5" height="5" fill="#FFFFFF"/>
  <rect x="45" y="50" width="5" height="5" fill="#ECEFF1"/>
  <rect x="50" y="50" width="5" height="5" fill="#CFD8DC"/>
  <rect x="55" y="50" width="5" height="5" fill="#B0BEC5"/>
  <rect x="60" y="50" width="5" height="5" fill="#90A4AE"/>
  <!-- Row 11: suit with flag -->
  <rect x="10" y="55" width="5" height="5" fill="#90A4AE"/>
  <rect x="15" y="55" width="5" height="5" fill="#B0BEC5"/>
  <rect x="20" y="55" width="5" height="5" fill="#CFD8DC"/>
  <rect x="25" y="55" width="5" height="5" fill="#ECEFF1"/>
  <rect x="30" y="55" width="5" height="5" fill="#1565C0"/>
  <rect x="35" y="55" width="5" height="5" fill="#1565C0"/>
  <rect x="40" y="55" width="5" height="5" fill="#C62828"/>
  <rect x="45" y="55" width="5" height="5" fill="#ECEFF1"/>
  <rect x="50" y="55" width="5" height="5" fill="#CFD8DC"/>
  <rect x="55" y="55" width="5" height="5" fill="#B0BEC5"/>
  <rect x="60" y="55" width="5" height="5" fill="#B0BEC5"/>
  <rect x="65" y="55" width="5" height="5" fill="#90A4AE"/>
  <!-- Row 12 -->
  <rect x="10" y="60" width="5" height="5" fill="#B0BEC5"/>
  <rect x="15" y="60" width="5" height="5" fill="#CFD8DC"/>
  <rect x="20" y="60" width="5" height="5" fill="#ECEFF1"/>
  <rect x="25" y="60" width="5" height="5" fill="#ECEFF1"/>
  <rect x="30" y="60" width="5" height="5" fill="#FFFFFF"/>
  <rect x="35" y="60" width="5" height="5" fill="#C62828"/>
  <rect x="40" y="60" width="5" height="5" fill="#FFFFFF"/>
  <rect x="45" y="60" width="5" height="5" fill="#FFFFFF"/>
  <rect x="50" y="60" width="5" height="5" fill="#ECEFF1"/>
  <rect x="55" y="60" width="5" height="5" fill="#ECEFF1"/>
  <rect x="60" y="60" width="5" height="5" fill="#CFD8DC"/>
  <rect x="65" y="60" width="5" height="5" fill="#B0BEC5"/>
  <!-- Row 13: gloves -->
  <rect x="5" y="65" width="5" height="5" fill="#ECEFF1"/>
  <rect x="10" y="65" width="5" height="5" fill="#CFD8DC"/>
  <rect x="15" y="65" width="5" height="5" fill="#B0BEC5"/>
  <rect x="25" y="65" width="5" height="5" fill="#90A4AE"/>
  <rect x="30" y="65" width="5" height="5" fill="#90A4AE"/>
  <rect x="45" y="65" width="5" height="5" fill="#90A4AE"/>
  <rect x="50" y="65" width="5" height="5" fill="#90A4AE"/>
  <rect x="60" y="65" width="5" height="5" fill="#B0BEC5"/>
  <rect x="65" y="65" width="5" height="5" fill="#CFD8DC"/>
  <rect x="70" y="65" width="5" height="5" fill="#ECEFF1"/>
  <!-- Row 14: legs -->
  <rect x="20" y="70" width="5" height="5" fill="#90A4AE"/>
  <rect x="25" y="70" width="5" height="5" fill="#B0BEC5"/>
  <rect x="30" y="70" width="5" height="5" fill="#CFD8DC"/>
  <rect x="45" y="70" width="5" height="5" fill="#CFD8DC"/>
  <rect x="50" y="70" width="5" height="5" fill="#B0BEC5"/>
  <rect x="55" y="70" width="5" height="5" fill="#90A4AE"/>
  <!-- Row 15: boots -->
  <rect x="15" y="75" width="5" height="5" fill="#78909C"/>
  <rect x="20" y="75" width="5" height="5" fill="#90A4AE"/>
  <rect x="25" y="75" width="5" height="5" fill="#B0BEC5"/>
  <rect x="30" y="75" width="5" height="5" fill="#B0BEC5"/>
  <rect x="45" y="75" width="5" height="5" fill="#B0BEC5"/>
  <rect x="50" y="75" width="5" height="5" fill="#B0BEC5"/>
  <rect x="55" y="75" width="5" height="5" fill="#90A4AE"/>
  <rect x="60" y="75" width="5" height="5" fill="#78909C"/>
</svg>