<svg xmlns="http://www.w3.org/2000/svg" width="80" height="80" viewBox="0 0 80 80">
  <!-- Cat: Orange tabby face -->
  <!-- Row 0: ear tips -->
  <rect x="10" y="0" width="5" height="5" fill="#E65100"/>
  <rect x="15" y="0" width="5" height="5" fill="#FF8F00"/>
  <rect x="60" y="0" width="5" height="5" fill="#FF8F00"/>
  <rect x="65" y="0" width="5" height="5" fill="#E65100"/>
  <!-- Row 1: ears -->
  <rect x="5" y="5" width="5" height="5" fill="#E65100"/>
  <rect x="10" y="5" width="5" height="5" fill="#FF8F00"/>
  <rect x="15" y="5" width="5" height="5" fill="#FFB74D"/>
  <rect x="20" y="5" width="5" height="5" fill="#FF8F00"/>
  <rect x="55" y="5" width="5" height="5" fill="#FF8F00"/>
  <rect x="60" y="5" width="5" height="5" fill="#FFB74D"/>
  <rect x="65" y="5" width="5" height="5" fill="#FF8F00"/>
  <rect x="70" y="5" width="5" height="5" fill="#E65100"/>
  <!-- Row 2: ears inner -->
  <rect x="5" y="10" width="5" height="5" fill="#E65100"/>
  <rect x="10" y="10" width="5" height="5" fill="#FF8F00"/>
  <rect x="15" y="10" width="5" height="5" fill="#FFAB91"/>
  <rect x="20" y="10" width="5" height="5" fill="#FFB74D"/>
  <rect x="25" y="10" width="5" height="5" fill="#FF8F00"/>
  <rect x="50" y="10" width="5" height="5" fill="#FF8F00"/>
  <rect x="55" y="10" width="5" height="5" fill="#FFB74D"/>
  <rect x="60" y="10" width="5" height="5" fill="#FFAB91"/>
  <rect x="65" y="10" width="5" height="5" fill="#FF8F00"/>
  <rect x="70" y="10" width="5" height="5" fill="#E65100"/>
  <!-- Row 3: head top -->
  <rect x="10" y="15" width="5" height="5" fill="#E65100"/>
  <rect x="15" y="15" width="5" height="5" fill="#FF8F00"/>
  <rect x="20" y="15" width="5" height="5" fill="#FFB74D"/>
  <rect x="25" y="15" width="5" height="5" fill="#FFB74D"/>
  <rect x="30" y="15" width="5" height="5" fill="#FF8F00"/>
  <rect x="35" y="15" width="5" height="5" fill="#FFB74D"/>
  <rect x="40" y="15" width="5" height="5" fill="#FFB74D"/>
  <rect x="45" y="15" width="5" height="5" fill="#FF8F00"/>
  <rect x="50" y="15" width="5" height="5" fill="#FFB74D"/>
  <rect x="55" y="15" width="5" height="5" fill="#FFB74D"/>
  <rect x="60" y="15" width="5" height="5" fill="#FF8F00"/>
  <rect x="65" y="15" width="5" height="5" fill="#E65100"/>
  <!-- Row 4: forehead stripes -->
  <rect x="10" y="20" width="5" height="5" fill="#FF8F00"/>
  <rect x="15" y="20" width="5" height="5" fill="#FFB74D"/>
  <rect x="20" y="20" width="5" height="5" fill="#FFCC80"/>
  <rect x="25" y="20" width="5" height="5" fill="#E65100"/>
  <rect x="30" y="20" width="5" height="5" fill="#FFCC80"/>
  <rect x="35" y="20" width="5" height="5" fill="#E65100"/>
  <rect x="40" y="20" width="5" height="5" fill="#E65100"/>
  <rect x="45" y="20" width="5" height="5" fill="#FFCC80"/>
  <rect x="50" y="20" width="5" height="5" fill="#E65100"/>
  <rect x="55" y="20" width="5" height="5" fill="#FFCC80"/>
  <rect x="60" y="20" width="5" height="5" fill="#FFB74D"/>
  <rect x="65" y="20" width="5" height="5" fill="#FF8F00"/>
  <!-- Row 5: eyes -->
  <rect x="10" y="25" width="5" height="5" fill="#FF8F00"/>
  <rect x="15" y="25" width="5" height="5" fill="#FFB74D"/>
  <rect x="20" y="25" width="5" height="5" fill="#4CAF50"/>
  <rect x="25" y="25" width="5" height="5" fill="#111111"/>
  <rect x="30" y="25" width="5" height="5" fill="#FFCC80"/>
  <rect x="35" y="25" width="5" height="5" fill="#FFCC80"/>
  <rect x="40" y="25" width="5" height="5" fill="#FFCC80"/>
  <rect x="45" y="25" width="5" height="5" fill="#FFCC80"/>
  <rect x="50" y="25" width="5" height="5" fill="#4CAF50"/>
  <rect x="55" y="25" width="5" height="5" fill="#111111"/>
  <rect x="60" y="25" width="5" height="5" fill="#FFB74D"/>
  <rect x="65" y="25" width="5" height="5" fill="#FF8F00"/>
  <!-- Row 6: eyes bottom -->
  <rect x="10" y="30" width="5" height="5" fill="#FF8F00"/>
  <rect x="15" y="30" width="5" height="5" fill="#FFB74D"/>
  <rect x="20" y="30" width="5" height="5" fill="#4CAF50"/>
  <rect x="25" y="30" width="5" height="5" fill="#4CAF50"/>
  <rect x="30" y="30" width="5" height="5" fill="#FFCC80"/>
  <rect x="35" y="30" width="5" height="5" fill="#FFCC80"/>
  <rect x="40" y="30" width="5" height="5" fill="#FFCC80"/>
  <rect x="45" y="30" width="5" height="5" fill="#FFCC80"/>
  <rect x="50" y="30" width="5" height="5" fill="#4CAF50"/>
  <rect x="55" y="30" width="5" height="5" fill="#4CAF50"/>
  <rect x="60" y="30" width="5" height="5" fill="#FFB74D"/>
  <rect x="65" y="30" width="5" height="5" fill="#FF8F00"/>
  <!-- Row 7: nose -->
  <rect x="10" y="35" width="5" height="5" fill="#E65100"/>
  <rect x="15" y="35" width="5" height="5" fill="#FFB74D"/>
  <rect x="20" y="35" width="5" height="5" fill="#FFCC80"/>
  <rect x="25" y="35" width="5" height="5" fill="#FFCC80"/>
  <rect x="30" y="35" width="5" height="5" fill="#FFCC80"/>
  <rect x="35" y="35" width="5" height="5" fill="#FF7043"/>
  <rect x="40" y="35" width="5" height="5" fill="#FF7043"/>
  <rect x="45" y="35" width="5" height="5" fill="#FFCC80"/>
  <rect x="50" y="35" width="5" height="5" fill="#FFCC80"/>
  <rect x="55" y="35" width="5" height="5" fill="#FFCC80"/>
  <rect x="60" y="35" width="5" height="5" fill="#FFB74D"/>
  <rect x="65" y="35" width="5" height="5" fill="#E65100"/>
  <!-- Row 8: mouth/whiskers -->
  <rect x="5" y="40" width="5" height="5" fill="#E0E0E0"/>
  <rect x="10" y="40" width="5" height="5" fill="#E65100"/>
  <rect x="15" y="40" width="5" height="5" fill="#FFB74D"/>
  <rect x="20" y="40" width="5" height="5" fill="#FFCC80"/>
  <rect x="25" y="40" width="5" height="5" fill="#FFF3E0"/>
  <rect x="30" y="40" width="5" height="5" fill="#FFF3E0"/>
  <rect x="35" y="40" width="5" height="5" fill="#3E2723"/>
  <rect x="40" y="40" width="5" height="5" fill="#3E2723"/>
  <rect x="45" y="40" width="5" height="5" fill="#FFF3E0"/>
  <rect x="50" y="40" width="5" height="5" fill="#FFF3E0"/>
  <rect x="55" y="40" width="5" height="5" fill="#FFCC80"/>
  <rect x="60" y="40" width="5" height="5" fill="#FFB74D"/>
  <rect x="65" y="40" width="5" height="5" fill="#E65100"/>
  <rect x="70" y="40" width="5" height="5" fill="#E0E0E0"/>
  <!-- Row 9: whiskers + mouth -->
  <rect x="0" y="45" width="5" height="5" fill="#E0E0E0"/>
  <rect x="10" y="45" width="5" height="5" fill="#E0E0E0"/>
  <rect x="15" y="45" width="5" height="5" fill="#E65100"/>
  <rect x="20" y="45" width="5" height="5" fill="#FFB74D"/>
  <rect x="25" y="45" width="5" height="5" fill="#FFF3E0"/>
  <rect x="30" y="45" width="5" height="5" fill="#FFF3E0"/>
  <rect x="35" y="45" width="5" height="5" fill="#FFF3E0"/>
  <rect x="40" y="45" width="5" height="5" fill="#FFF3E0"/>
  <rect x="45" y="45" width="5" height="5" fill="#FFF3E0"/>
  <rect x="50" y="45" width="5" height="5" fill="#FFF3E0"/>
  <rect x="55" y="45" width="5" height="5" fill="#FFB74D"/>
  <rect x="60" y="45" width="5" height="5" fill="#E65100"/>
  <rect x="65" y="45" width="5" height="5" fill="#E0E0E0"/>
  <rect x="75" y="45" width="5" height="5" fill="#E0E0E0"/>
  <!-- Row 10: chin -->
  <rect x="15" y="50" width="5" height="5" fill="#E65100"/>
  <rect x="20" y="50" width="5" height="5" fill="#FF8F00"/>
  <rect x="25" y="50" width="5" height="5" fill="#FFB74D"/>
  <rect x="30" y="50" width="5" height="5" fill="#FFF3E0"/>
  <rect x="35" y="50" width="5" height="5" fill="#FFF3E0"/>
  <rect x="40" y="50" width="5" height="5" fill="#FFF3E0"/>
  <rect x="45" y="50" width="5" height="5" fill="#FFF3E0"/>
  <rect x="50" y="50" width="5" height="5" fill="#FFB74D"/>
  <rect x="55" y="50" width="5" height="5" fill="#FF8F00"/>
  <rect x="60" y="50" width="5" height="5" fill="#E65100"/>
  <!-- Row 11: neck -->
  <rect x="20" y="55" width="5" height="5" fill="#E65100"/>
  <rect x="25" y="55" width="5" height="5" fill="#FF8F00"/>
  <rect x="30" y="55" width="5" height="5" fill="#FFB74D"/>
  <rect x="35" y="55" width="5" height="5" fill="#FFCC80"/>
  <rect x="40" y="55" width="5" height="5" fill="#FFCC80"/>
  <rect x="45" y="55" width="5" height="5" fill="#FFB74D"/>
  <rect x="50" y="55" width="5" height="5" fill="#FF8F00"/>
  <rect x="55" y="55" width="5" height="5" fill="#E65100"/>
  <!-- Row 12: body -->
  <rect x="15" y="60" width="5" height="5" fill="#E65100"/>
  <rect x="20" y="60" width="5" height="5" fill="#FF8F00"/>
  <rect x="25" y="60" width="5" height="5" fill="#FFB74D"/>
  <rect x="30" y="60" width="5" height="5" fill="#FFCC80"/>
  <rect x="35" y="60" width="5" height="5" fill="#FFF3E0"/>
  <rect x="40" y="60" width="5" height="5" fill="#FFF3E0"/>
  <rect x="45" y="60" width="5" height="5" fill="#FFCC80"/>
  <rect x="50" y="60" width="5" height="5" fill="#FFB74D"/>
  <rect x="55" y="60" width="5" height="5" fill="#FF8F00"/>
  <rect x="60" y="60" width="5" height="5" fill="#E65100"/>
  <!-- Row 13: body -->
  <rect x="10" y="65" width="5" height="5" fill="#E65100"/>
  <rect x="15" y="65" width="5" height="5" fill="#FF8F00"/>
  <rect x="20" y="65" width="5" height="5" fill="#FFB74D"/>
  <rect x="25" y="65" width="5" height="5" fill="#FFCC80"/>
  <rect x="30" y="65" width="5" height="5" fill="#FFF3E0"/>
  <rect x="35" y="65" width="5" height="5" fill="#FFF3E0"/>
  <rect x="40" y="65" width="5" height="5" fill="#FFF3E0"/>
  <rect x="45" y="65" width="5" height="5" fill="#FFF3E0"/>
  <rect x="50" y="65" width="5" height="5" fill="#FFCC80"/>
  <rect x="55" y="65" width="5" height="5" fill="#FFB74D"/>
  <rect x="60" y="65" width="5" height="5" fill="#FF8F00"/>
  <rect x="65" y="65" width="5" height="5" fill="#E65100"/>
  <!-- Row 14: paws -->
  <rect x="10" y="70" width="5" height="5" fill="#FF8F00"/>
  <rect x="15" y="70" width="5" height="5" fill="#FFB74D"/>
  <rect x="20" y="70" width="5" height="5" fill="#FFB74D"/>
  <rect x="30" y="70" width="5" height="5" fill="#E65100"/>
  <rect x="35" y="70" width="5" height="5" fill="#E65100"/>
  <rect x="40" y="70" width="5" height="5" fill="#E65100"/>
  <rect x="45" y="70" width="5" height="5" fill="#E65100"/>
  <rect x="55" y="70" width="5" height="5" fill="#FFB74D"/>
  <rect x="60" y="70" width="5" height="5" fill="#FFB74D"/>
  <rect x="65" y="70" width="5" height="5" fill="#FF8F00"/>
  <!-- Row 15: paws -->
  <rect x="10" y="75" width="5" height="5" fill="#FFCC80"/>
  <rect x="15" y="75" width="5" height="5" fill="#FFF3E0"/>
  <rect x="20" y="75" width="5" height="5" fill="#FFCC80"/>
  <rect x="55" y="75" width="5" height="5" fill="#FFCC80"/>
  <rect x="60" y="75" width="5" height="5" fill="#FFF3E0"/>
  <rect x="65" y="75" width="5" height="5" fill="#FFCC80"/>
</svg>