<svg xmlns="http://www.w3.org/2000/svg" width="80" height="80" viewBox="0 0 80 80">
  <!-- Crown: Royal character with golden crown -->
  <!-- Row 0: crown points -->
  <rect x="10" y="0" width="5" height="5" fill="#FFD600"/>
  <rect x="35" y="0" width="5" height="5" fill="#FFD600"/>
  <rect x="40" y="0" width="5" height="5" fill="#FFD600"/>
  <rect x="65" y="0" width="5" height="5" fill="#FFD600"/>
  <!-- Row 1: crown points -->
  <rect x="10" y="5" width="5" height="5" fill="#FFAB00"/>
  <rect x="15" y="5" width="5" height="5" fill="#FFD600"/>
  <rect x="30" y="5" width="5" height="5" fill="#FFD600"/>
  <rect x="35" y="5" width="5" height="5" fill="#FFEA00"/>
  <rect x="40" y="5" width="5" height="5" fill="#FFEA00"/>
  <rect x="45" y="5" width="5" height="5" fill="#FFD600"/>
  <rect x="60" y="5" width="5" height="5" fill="#FFD600"/>
  <rect x="65" y="5" width="5" height="5" fill="#FFAB00"/>
  <!-- Row 2: crown body -->
  <rect x="10" y="10" width="5" height="5" fill="#FF8F00"/>
  <rect x="15" y="10" width="5" height="5" fill="#FFAB00"/>
  <rect x="20" y="10" width="5" height="5" fill="#FFD600"/>
  <rect x="25" y="10" width="5" height="5" fill="#FFEA00"/>
  <rect x="30" y="10" width="5" height="5" fill="#FFEA00"/>
  <rect x="35" y="10" width="5" height="5" fill="#C62828"/>
  <rect x="40" y="10" width="5" height="5" fill="#C62828"/>
  <rect x="45" y="10" width="5" height="5" fill="#FFEA00"/>
  <rect x="50" y="10" width="5" height="5" fill="#FFEA00"/>
  <rect x="55" y="10" width="5" height="5" fill="#FFD600"/>
  <rect x="60" y="10" width="5" height="5" fill="#FFAB00"/>
  <rect x="65" y="10" width="5" height="5" fill="#FF8F00"/>
  <!-- Row 3: crown body -->
  <rect x="10" y="15" width="5" height="5" fill="#FF8F00"/>
  <rect x="15" y="15" width="5" height="5" fill="#FFAB00"/>
  <rect x="20" y="15" width="5" height="5" fill="#FFD600"/>
  <rect x="25" y="15" width="5" height="5" fill="#FFEA00"/>
  <rect x="30" y="15" width="5" height="5" fill="#FFEA00"/>
  <rect x="35" y="15" width="5" height="5" fill="#FFEA00"/>
  <rect x="40" y="15" width="5" height="5" fill="#FFEA00"/>
  <rect x="45" y="15" width="5" height="5" fill="#FFEA00"/>
  <rect x="50" y="15" width="5" height="5" fill="#FFEA00"/>
  <rect x="55" y="15" width="5" height="5" fill="#FFD600"/>
  <rect x="60" y="15" width="5" height="5" fill="#FFAB00"/>
  <rect x="65" y="15" width="5" height="5" fill="#FF8F00"/>
  <!-- Row 4: crown rim with gems -->
  <rect x="10" y="20" width="5" height="5" fill="#FF6F00"/>
  <rect x="15" y="20" width="5" height="5" fill="#FF8F00"/>
  <rect x="20" y="20" width="5" height="5" fill="#E53935"/>
  <rect x="25" y="20" width="5" height="5" fill="#FFAB00"/>
  <rect x="30" y="20" width="5" height="5" fill="#1E88E5"/>
  <rect x="35" y="20" width="5" height="5" fill="#FFAB00"/>
  <rect x="40" y="20" width="5" height="5" fill="#FFAB00"/>
  <rect x="45" y="20" width="5" height="5" fill="#1E88E5"/>
  <rect x="50" y="20" width="5" height="5" fill="#FFAB00"/>
  <rect x="55" y="20" width="5" height="5" fill="#E53935"/>
  <rect x="60" y="20" width="5" height="5" fill="#FF8F00"/>
  <rect x="65" y="20" width="5" height="5" fill="#FF6F00"/>
  <!-- Row 5: forehead -->
  <rect x="15" y="25" width="5" height="5" fill="#8D6E63"/>
  <rect x="20" y="25" width="5" height="5" fill="#A1887F"/>
  <rect x="25" y="25" width="5" height="5" fill="#BCAAA4"/>
  <rect x="30" y="25" width="5" height="5" fill="#D7CCC8"/>
  <rect x="35" y="25" width="5" height="5" fill="#D7CCC8"/>
  <rect x="40" y="25" width="5" height="5" fill="#D7CCC8"/>
  <rect x="45" y="25" width="5" height="5" fill="#D7CCC8"/>
  <rect x="50" y="25" width="5" height="5" fill="#BCAAA4"/>
  <rect x="55" y="25" width="5" height="5" fill="#A1887F"/>
  <rect x="60" y="25" width="5" height="5" fill="#8D6E63"/>
  <!-- Row 6: eyes -->
  <rect x="15" y="30" width="5" height="5" fill="#8D6E63"/>
  <rect x="20" y="30" width="5" height="5" fill="#BCAAA4"/>
  <rect x="25" y="30" width="5" height="5" fill="#FFFFFF"/>
  <rect x="30" y="30" width="5" height="5" fill="#4E342E"/>
  <rect x="35" y="30" width="5" height="5" fill="#D7CCC8"/>
  <rect x="40" y="30" width="5" height="5" fill="#D7CCC8"/>
  <rect x="45" y="30" width="5" height="5" fill="#FFFFFF"/>
  <rect x="50" y="30" width="5" height="5" fill="#4E342E"/>
  <rect x="55" y="30" width="5" height="5" fill="#BCAAA4"/>
  <rect x="60" y="30" width="5" height="5" fill="#8D6E63"/>
  <!-- Row 7: nose -->
  <rect x="15" y="35" width="5" height="5" fill="#8D6E63"/>
  <rect x="20" y="35" width="5" height="5" fill="#BCAAA4"/>
  <rect x="25" y="35" width="5" height="5" fill="#D7CCC8"/>
  <rect x="30" y="35" width="5" height="5" fill="#D7CCC8"/>
  <rect x="35" y="35" width="5" height="5" fill="#A1887F"/>
  <rect x="40" y="35" width="5" height="5" fill="#A1887F"/>
  <rect x="45" y="35" width="5" height="5" fill="#D7CCC8"/>
  <rect x="50" y="35" width="5" height="5" fill="#D7CCC8"/>
  <rect x="55" y="35" width="5" height="5" fill="#BCAAA4"/>
  <rect x="60" y="35" width="5" height="5" fill="#8D6E63"/>
  <!-- Row 8: mouth -->
  <rect x="20" y="40" width="5" height="5" fill="#8D6E63"/>
  <rect x="25" y="40" width="5" height="5" fill="#BCAAA4"/>
  <rect x="30" y="40" width="5" height="5" fill="#D7CCC8"/>
  <rect x="35" y="40" width="5" height="5" fill="#795548"/>
  <rect x="40" y="40" width="5" height="5" fill="#795548"/>
  <rect x="45" y="40" width="5" height="5" fill="#D7CCC8"/>
  <rect x="50" y="40" width="5" height="5" fill="#BCAAA4"/>
  <rect x="55" y="40" width="5" height="5" fill="#8D6E63"/>
  <!-- Row 9: chin -->
  <rect x="25" y="45" width="5" height="5" fill="#8D6E63"/>
  <rect x="30" y="45" width="5" height="5" fill="#A1887F"/>
  <rect x="35" y="45" width="5" height="5" fill="#BCAAA4"/>
  <rect x="40" y="45" width="5" height="5" fill="#BCAAA4"/>
  <rect x="45" y="45" width="5" height="5" fill="#A1887F"/>
  <rect x="50" y="45" width="5" height="5" fill="#8D6E63"/>
  <!-- Row 10: neck -->
  <rect x="30" y="50" width="5" height="5" fill="#A1887F"/>
  <rect x="35" y="50" width="5" height="5" fill="#BCAAA4"/>
  <rect x="40" y="50" width="5" height="5" fill="#BCAAA4"/>
  <rect x="45" y="50" width="5" height="5" fill="#A1887F"/>
  <!-- Row 11: cape/robe -->
  <rect x="15" y="55" width="5" height="5" fill="#6A1B9A"/>
  <rect x="20" y="55" width="5" height="5" fill="#7B1FA2"/>
  <rect x="25" y="55" width="5" height="5" fill="#8E24AA"/>
  <rect x="30" y="55" width="5" height="5" fill="#9C27B0"/>
  <rect x="35" y="55" width="5" height="5" fill="#AB47BC"/>
  <rect x="40" y="55" width="5" height="5" fill="#AB47BC"/>
  <rect x="45" y="55" width="5" height="5" fill="#9C27B0"/>
  <rect x="50" y="55" width="5" height="5" fill="#8E24AA"/>
  <rect x="55" y="55" width="5" height="5" fill="#7B1FA2"/>
  <rect x="60" y="55" width="5" height="5" fill="#6A1B9A"/>
  <!-- Row 12: robe with ermine -->
  <rect x="10" y="60" width="5" height="5" fill="#6A1B9A"/>
  <rect x="15" y="60" width="5" height="5" fill="#7B1FA2"/>
  <rect x="20" y="60" width="5" height="5" fill="#8E24AA"/>
  <rect x="25" y="60" width="5" height="5" fill="#9C27B0"/>
  <rect x="30" y="60" width="5" height="5" fill="#FFFFFF"/>
  <rect x="35" y="60" width="5" height="5" fill="#FFD600"/>
  <rect x="40" y="60" width="5" height="5" fill="#FFD600"/>
  <rect x="45" y="60" width="5" height="5" fill="#FFFFFF"/>
  <rect x="50" y="60" width="5" height="5" fill="#9C27B0"/>
  <rect x="55" y="60" width="5" height="5" fill="#8E24AA"/>
  <rect x="60" y="60" width="5" height="5" fill="#7B1FA2"/>
  <rect x="65" y="60" width="5" height="5" fill="#6A1B9A"/>
  <!-- Row 13: robe -->
  <rect x="5" y="65" width="5" height="5" fill="#6A1B9A"/>
  <rect x="10" y="65" width="5" height="5" fill="#7B1FA2"/>
  <rect x="15" y="65" width="5" height="5" fill="#8E24AA"/>
  <rect x="20" y="65" width="5" height="5" fill="#9C27B0"/>
  <rect x="25" y="65" width="5" height="5" fill="#AB47BC"/>
  <rect x="30" y="65" width="5" height="5" fill="#AB47BC"/>
  <rect x="35" y="65" width="5" height="5" fill="#AB47BC"/>
  <rect x="40" y="65" width="5" height="5" fill="#AB47BC"/>
  <rect x="45" y="65" width="5" height="5" fill="#AB47BC"/>
  <rect x="50" y="65" width="5" height="5" fill="#AB47BC"/>
  <rect x="55" y="65" width="5" height="5" fill="#9C27B0"/>
  <rect x="60" y="65" width="5" height="5" fill="#8E24AA"/>
  <rect x="65" y="65" width="5" height="5" fill="#7B1FA2"/>
  <rect x="70" y="65" width="5" height="5" fill="#6A1B9A"/>
  <!-- Row 14: ermine trim -->
  <rect x="5" y="70" width="5" height="5" fill="#FFFFFF"/>
  <rect x="10" y="70" width="5" height="5" fill="#EEEEEE"/>
  <rect x="15" y="70" width="5" height="5" fill="#FFFFFF"/>
  <rect x="20" y="70" width="5" height="5" fill="#111111"/>
  <rect x="25" y="70" width="5" height="5" fill="#FFFFFF"/>
  <rect x="30" y="70" width="5" height="5" fill="#EEEEEE"/>
  <rect x="35" y="70" width="5" height="5" fill="#FFFFFF"/>
  <rect x="40" y="70" width="5" height="5" fill="#FFFFFF"/>
  <rect x="45" y="70" width="5" height="5" fill="#EEEEEE"/>
  <rect x="50" y="70" width="5" height="5" fill="#FFFFFF"/>
  <rect x="55" y="70" width="5" height="5" fill="#111111"/>
  <rect x="60" y="70" width="5" height="5" fill="#FFFFFF"/>
  <rect x="65" y="70" width="5" height="5" fill="#EEEEEE"/>
  <rect x="70" y="70" width="5" height="5" fill="#FFFFFF"/>
  <!-- Row 15: shoes -->
  <rect x="20" y="75" width="5" height="5" fill="#4E342E"/>
  <rect x="25" y="75" width="5" height="5" fill="#5D4037"/>
  <rect x="30" y="75" width="5" height="5" fill="#4E342E"/>
  <rect x="45" y="75" width="5" height="5" fill="#4E342E"/>
  <rect x="50" y="75" width="5" height="5" fill="#5D4037"/>
  <rect x="55" y="75" width="5" height="5" fill="#4E342E"/>
</svg>