<svg xmlns="http://www.w3.org/2000/svg" width="80" height="80" viewBox="0 0 80 80">
  <!-- Doggie: Cute golden/brown dog face -->
  <!-- Row 0: ears -->
  <rect x="10" y="0" width="5" height="5" fill="#8B5E3C"/>
  <rect x="15" y="0" width="5" height="5" fill="#A0522D"/>
  <rect x="55" y="0" width="5" height="5" fill="#A0522D"/>
  <rect x="60" y="0" width="5" height="5" fill="#8B5E3C"/>
  <!-- Row 1 -->
  <rect x="5" y="5" width="5" height="5" fill="#8B5E3C"/>
  <rect x="10" y="5" width="5" height="5" fill="#C8843E"/>
  <rect x="15" y="5" width="5" height="5" fill="#C8843E"/>
  <rect x="30" y="5" width="5" height="5" fill="#D4954A"/>
  <rect x="35" y="5" width="5" height="5" fill="#D4954A"/>
  <rect x="40" y="5" width="5" height="5" fill="#D4954A"/>
  <rect x="55" y="5" width="5" height="5" fill="#C8843E"/>
  <rect x="60" y="5" width="5" height="5" fill="#C8843E"/>
  <rect x="65" y="5" width="5" height="5" fill="#8B5E3C"/>
  <!-- Row 2 -->
  <rect x="5" y="10" width="5" height="5" fill="#A0522D"/>
  <rect x="10" y="10" width="5" height="5" fill="#D4954A"/>
  <rect x="15" y="10" width="5" height="5" fill="#C8843E"/>
  <rect x="25" y="10" width="5" height="5" fill="#D4954A"/>
  <rect x="30" y="10" width="5" height="5" fill="#E8B06A"/>
  <rect x="35" y="10" width="5" height="5" fill="#E8B06A"/>
  <rect x="40" y="10" width="5" height="5" fill="#E8B06A"/>
  <rect x="45" y="10" width="5" height="5" fill="#D4954A"/>
  <rect x="55" y="10" width="5" height="5" fill="#C8843E"/>
  <rect x="60" y="10" width="5" height="5" fill="#D4954A"/>
  <rect x="65" y="10" width="5" height="5" fill="#A0522D"/>
  <!-- Row 3 -->
  <rect x="5" y="15" width="5" height="5" fill="#A0522D"/>
  <rect x="10" y="15" width="5" height="5" fill="#D4954A"/>
  <rect x="15" y="15" width="5" height="5" fill="#C8843E"/>
  <rect x="20" y="15" width="5" height="5" fill="#D4954A"/>
  <rect x="25" y="15" width="5" height="5" fill="#E8B06A"/>
  <rect x="30" y="15" width="5" height="5" fill="#E8B06A"/>
  <rect x="35" y="15" width="5" height="5" fill="#E8B06A"/>
  <rect x="40" y="15" width="5" height="5" fill="#E8B06A"/>
  <rect x="45" y="15" width="5" height="5" fill="#E8B06A"/>
  <rect x="50" y="15" width="5" height="5" fill="#D4954A"/>
  <rect x="55" y="15" width="5" height="5" fill="#C8843E"/>
  <rect x="60" y="15" width="5" height="5" fill="#D4954A"/>
  <rect x="65" y="15" width="5" height="5" fill="#A0522D"/>
  <!-- Row 4: top of head -->
  <rect x="15" y="20" width="5" height="5" fill="#D4954A"/>
  <rect x="20" y="20" width="5" height="5" fill="#E8B06A"/>
  <rect x="25" y="20" width="5" height="5" fill="#E8B06A"/>
  <rect x="30" y="20" width="5" height="5" fill="#E8B06A"/>
  <rect x="35" y="20" width="5" height="5" fill="#F0C880"/>
  <rect x="40" y="20" width="5" height="5" fill="#E8B06A"/>
  <rect x="45" y="20" width="5" height="5" fill="#E8B06A"/>
  <rect x="50" y="20" width="5" height="5" fill="#E8B06A"/>
  <rect x="55" y="20" width="5" height="5" fill="#D4954A"/>
  <!-- Row 5 -->
  <rect x="15" y="25" width="5" height="5" fill="#D4954A"/>
  <rect x="20" y="25" width="5" height="5" fill="#E8B06A"/>
  <rect x="25" y="25" width="5" height="5" fill="#F0C880"/>
  <rect x="30" y="25" width="5" height="5" fill="#F0C880"/>
  <rect x="35" y="25" width="5" height="5" fill="#F0C880"/>
  <rect x="40" y="25" width="5" height="5" fill="#F0C880"/>
  <rect x="45" y="25" width="5" height="5" fill="#F0C880"/>
  <rect x="50" y="25" width="5" height="5" fill="#E8B06A"/>
  <rect x="55" y="25" width="5" height="5" fill="#D4954A"/>
  <!-- Row 6: eyes -->
  <rect x="10" y="30" width="5" height="5" fill="#D4954A"/>
  <rect x="15" y="30" width="5" height="5" fill="#E8B06A"/>
  <rect x="20" y="30" width="5" height="5" fill="#F0C880"/>
  <rect x="25" y="30" width="5" height="5" fill="#FFFFFF"/>
  <rect x="30" y="30" width="5" height="5" fill="#2C1810"/>
  <rect x="35" y="30" width="5" height="5" fill="#F0C880"/>
  <rect x="40" y="30" width="5" height="5" fill="#FFFFFF"/>
  <rect x="45" y="30" width="5" height="5" fill="#2C1810"/>
  <rect x="50" y="30" width="5" height="5" fill="#F0C880"/>
  <rect x="55" y="30" width="5" height="5" fill="#E8B06A"/>
  <rect x="60" y="30" width="5" height="5" fill="#D4954A"/>
  <!-- Row 7 -->
  <rect x="10" y="35" width="5" height="5" fill="#D4954A"/>
  <rect x="15" y="35" width="5" height="5" fill="#E8B06A"/>
  <rect x="20" y="35" width="5" height="5" fill="#F0C880"/>
  <rect x="25" y="35" width="5" height="5" fill="#F0C880"/>
  <rect x="30" y="35" width="5" height="5" fill="#F0C880"/>
  <rect x="35" y="35" width="5" height="5" fill="#F0C880"/>
  <rect x="40" y="35" width="5" height="5" fill="#F0C880"/>
  <rect x="45" y="35" width="5" height="5" fill="#F0C880"/>
  <rect x="50" y="35" width="5" height="5" fill="#F0C880"/>
  <rect x="55" y="35" width="5" height="5" fill="#E8B06A"/>
  <rect x="60" y="35" width="5" height="5" fill="#D4954A"/>
  <!-- Row 8: nose -->
  <rect x="10" y="40" width="5" height="5" fill="#D4954A"/>
  <rect x="15" y="40" width="5" height="5" fill="#E8B06A"/>
  <rect x="20" y="40" width="5" height="5" fill="#F5D6A0"/>
  <rect x="25" y="40" width="5" height="5" fill="#F5D6A0"/>
  <rect x="30" y="40" width="5" height="5" fill="#F5D6A0"/>
  <rect x="35" y="40" width="5" height="5" fill="#2C1810"/>
  <rect x="40" y="40" width="5" height="5" fill="#F5D6A0"/>
  <rect x="45" y="40" width="5" height="5" fill="#F5D6A0"/>
  <rect x="50" y="40" width="5" height="5" fill="#F5D6A0"/>
  <rect x="55" y="40" width="5" height="5" fill="#E8B06A"/>
  <rect x="60" y="40" width="5" height="5" fill="#D4954A"/>
  <!-- Row 9: snout -->
  <rect x="15" y="45" width="5" height="5" fill="#D4954A"/>
  <rect x="20" y="45" width="5" height="5" fill="#F5D6A0"/>
  <rect x="25" y="45" width="5" height="5" fill="#F5D6A0"/>
  <rect x="30" y="45" width="5" height="5" fill="#F5D6A0"/>
  <rect x="35" y="45" width="5" height="5" fill="#F5D6A0"/>
  <rect x="40" y="45" width="5" height="5" fill="#F5D6A0"/>
  <rect x="45" y="45" width="5" height="5" fill="#F5D6A0"/>
  <rect x="50" y="45" width="5" height="5" fill="#F5D6A0"/>
  <rect x="55" y="45" width="5" height="5" fill="#D4954A"/>
  <!-- Row 10: mouth/tongue -->
  <rect x="15" y="50" width="5" height="5" fill="#D4954A"/>
  <rect x="20" y="50" width="5" height="5" fill="#F5D6A0"/>
  <rect x="25" y="50" width="5" height="5" fill="#F5D6A0"/>
  <rect x="30" y="50" width="5" height="5" fill="#2C1810"/>
  <rect x="35" y="50" width="5" height="5" fill="#2C1810"/>
  <rect x="40" y="50" width="5" height="5" fill="#2C1810"/>
  <rect x="45" y="50" width="5" height="5" fill="#F5D6A0"/>
  <rect x="50" y="50" width="5" height="5" fill="#F5D6A0"/>
  <rect x="55" y="50" width="5" height="5" fill="#D4954A"/>
  <!-- Row 11: tongue -->
  <rect x="20" y="55" width="5" height="5" fill="#D4954A"/>
  <rect x="25" y="55" width="5" height="5" fill="#F5D6A0"/>
  <rect x="30" y="55" width="5" height="5" fill="#F5D6A0"/>
  <rect x="35" y="55" width="5" height="5" fill="#FF6B8A"/>
  <rect x="40" y="55" width="5" height="5" fill="#FF6B8A"/>
  <rect x="45" y="55" width="5" height="5" fill="#F5D6A0"/>
  <rect x="50" y="55" width="5" height="5" fill="#F5D6A0"/>
  <rect x="55" y="55" width="5" height="5" fill="#D4954A"/>
  <!-- Row 12: tongue -->
  <rect x="20" y="60" width="5" height="5" fill="#D4954A"/>
  <rect x="25" y="60" width="5" height="5" fill="#E8B06A"/>
  <rect x="30" y="60" width="5" height="5" fill="#F5D6A0"/>
  <rect x="35" y="60" width="5" height="5" fill="#FF4D6A"/>
  <rect x="40" y="60" width="5" height="5" fill="#FF4D6A"/>
  <rect x="45" y="60" width="5" height="5" fill="#F5D6A0"/>
  <rect x="50" y="60" width="5" height="5" fill="#E8B06A"/>
  <rect x="55" y="60" width="5" height="5" fill="#D4954A"/>
  <!-- Row 13 -->
  <rect x="25" y="65" width="5" height="5" fill="#D4954A"/>
  <rect x="30" y="65" width="5" height="5" fill="#E8B06A"/>
  <rect x="35" y="65" width="5" height="5" fill="#FF4D6A"/>
  <rect x="40" y="65" width="5" height="5" fill="#FF4D6A"/>
  <rect x="45" y="65" width="5" height="5" fill="#E8B06A"/>
  <rect x="50" y="65" width="5" height="5" fill="#D4954A"/>
  <!-- Row 14 -->
  <rect x="30" y="70" width="5" height="5" fill="#D4954A"/>
  <rect x="35" y="70" width="5" height="5" fill="#E85880"/>
  <rect x="40" y="70" width="5" height="5" fill="#E85880"/>
  <rect x="45" y="70" width="5" height="5" fill="#D4954A"/>
  <!-- Row 15 -->
  <rect x="35" y="75" width="5" height="5" fill="#D4954A"/>
  <rect x="40" y="75" width="5" height="5" fill="#D4954A"/>
</svg>