<svg xmlns="http://www.w3.org/2000/svg" width="80" height="80" viewBox="0 0 80 80">
  <!-- Doom Slayer: Green helmet with visor, angry face -->
  <!-- Row 0 -->
  <rect x="25" y="0" width="5" height="5" fill="#2E5E1E"/>
  <rect x="30" y="0" width="5" height="5" fill="#2E5E1E"/>
  <rect x="35" y="0" width="5" height="5" fill="#2E5E1E"/>
  <rect x="40" y="0" width="5" height="5" fill="#2E5E1E"/>
  <rect x="45" y="0" width="5" height="5" fill="#2E5E1E"/>
  <rect x="50" y="0" width="5" height="5" fill="#2E5E1E"/>
  <!-- Row 1 -->
  <rect x="20" y="5" width="5" height="5" fill="#2E5E1E"/>
  <rect x="25" y="5" width="5" height="5" fill="#3D7A28"/>
  <rect x="30" y="5" width="5" height="5" fill="#4A8E32"/>
  <rect x="35" y="5" width="5" height="5" fill="#4A8E32"/>
  <rect x="40" y="5" width="5" height="5" fill="#4A8E32"/>
  <rect x="45" y="5" width="5" height="5" fill="#4A8E32"/>
  <rect x="50" y="5" width="5" height="5" fill="#3D7A28"/>
  <rect x="55" y="5" width="5" height="5" fill="#2E5E1E"/>
  <!-- Row 2 -->
  <rect x="15" y="10" width="5" height="5" fill="#2E5E1E"/>
  <rect x="20" y="10" width="5" height="5" fill="#3D7A28"/>
  <rect x="25" y="10" width="5" height="5" fill="#4A8E32"/>
  <rect x="30" y="10" width="5" height="5" fill="#5AA040"/>
  <rect x="35" y="10" width="5" height="5" fill="#5AA040"/>
  <rect x="40" y="10" width="5" height="5" fill="#5AA040"/>
  <rect x="45" y="10" width="5" height="5" fill="#5AA040"/>
  <rect x="50" y="10" width="5" height="5" fill="#4A8E32"/>
  <rect x="55" y="10" width="5" height="5" fill="#3D7A28"/>
  <rect x="60" y="10" width="5" height="5" fill="#2E5E1E"/>
  <!-- Row 3 -->
  <rect x="10" y="15" width="5" height="5" fill="#2E5E1E"/>
  <rect x="15" y="15" width="5" height="5" fill="#3D7A28"/>
  <rect x="20" y="15" width="5" height="5" fill="#4A8E32"/>
  <rect x="25" y="15" width="5" height="5" fill="#5AA040"/>
  <rect x="30" y="15" width="5" height="5" fill="#5AA040"/>
  <rect x="35" y="15" width="5" height="5" fill="#6AB050"/>
  <rect x="40" y="15" width="5" height="5" fill="#6AB050"/>
  <rect x="45" y="15" width="5" height="5" fill="#5AA040"/>
  <rect x="50" y="15" width="5" height="5" fill="#5AA040"/>
  <rect x="55" y="15" width="5" height="5" fill="#4A8E32"/>
  <rect x="60" y="15" width="5" height="5" fill="#3D7A28"/>
  <rect x="65" y="15" width="5" height="5" fill="#2E5E1E"/>
  <!-- Row 4: visor -->
  <rect x="10" y="20" width="5" height="5" fill="#2E5E1E"/>
  <rect x="15" y="20" width="5" height="5" fill="#2E5E1E"/>
  <rect x="20" y="20" width="5" height="5" fill="#2E5E1E"/>
  <rect x="25" y="20" width="5" height="5" fill="#2E5E1E"/>
  <rect x="30" y="20" width="5" height="5" fill="#2E5E1E"/>
  <rect x="35" y="20" width="5" height="5" fill="#2E5E1E"/>
  <rect x="40" y="20" width="5" height="5" fill="#2E5E1E"/>
  <rect x="45" y="20" width="5" height="5" fill="#2E5E1E"/>
  <rect x="50" y="20" width="5" height="5" fill="#2E5E1E"/>
  <rect x="55" y="20" width="5" height="5" fill="#2E5E1E"/>
  <rect x="60" y="20" width="5" height="5" fill="#2E5E1E"/>
  <rect x="65" y="20" width="5" height="5" fill="#2E5E1E"/>
  <!-- Row 5: visor glass -->
  <rect x="10" y="25" width="5" height="5" fill="#2E5E1E"/>
  <rect x="15" y="25" width="5" height="5" fill="#3D7A28"/>
  <rect x="20" y="25" width="5" height="5" fill="#88AACC"/>
  <rect x="25" y="25" width="5" height="5" fill="#99BBDD"/>
  <rect x="30" y="25" width="5" height="5" fill="#AACCEE"/>
  <rect x="35" y="25" width="5" height="5" fill="#3D7A28"/>
  <rect x="40" y="25" width="5" height="5" fill="#3D7A28"/>
  <rect x="45" y="25" width="5" height="5" fill="#AACCEE"/>
  <rect x="50" y="25" width="5" height="5" fill="#99BBDD"/>
  <rect x="55" y="25" width="5" height="5" fill="#88AACC"/>
  <rect x="60" y="25" width="5" height="5" fill="#3D7A28"/>
  <rect x="65" y="25" width="5" height="5" fill="#2E5E1E"/>
  <!-- Row 6: lower visor -->
  <rect x="10" y="30" width="5" height="5" fill="#2E5E1E"/>
  <rect x="15" y="30" width="5" height="5" fill="#2E5E1E"/>
  <rect x="20" y="30" width="5" height="5" fill="#2E5E1E"/>
  <rect x="25" y="30" width="5" height="5" fill="#2E5E1E"/>
  <rect x="30" y="30" width="5" height="5" fill="#2E5E1E"/>
  <rect x="35" y="30" width="5" height="5" fill="#2E5E1E"/>
  <rect x="40" y="30" width="5" height="5" fill="#2E5E1E"/>
  <rect x="45" y="30" width="5" height="5" fill="#2E5E1E"/>
  <rect x="50" y="30" width="5" height="5" fill="#2E5E1E"/>
  <rect x="55" y="30" width="5" height="5" fill="#2E5E1E"/>
  <rect x="60" y="30" width="5" height="5" fill="#2E5E1E"/>
  <rect x="65" y="30" width="5" height="5" fill="#2E5E1E"/>
  <!-- Row 7: face visible - angry eyes -->
  <rect x="10" y="35" width="5" height="5" fill="#2E5E1E"/>
  <rect x="15" y="35" width="5" height="5" fill="#D4954A"/>
  <rect x="20" y="35" width="5" height="5" fill="#E8B06A"/>
  <rect x="25" y="35" width="5" height="5" fill="#E8B06A"/>
  <rect x="30" y="35" width="5" height="5" fill="#FFFFFF"/>
  <rect x="35" y="35" width="5" height="5" fill="#8B2500"/>
  <rect x="40" y="35" width="5" height="5" fill="#8B2500"/>
  <rect x="45" y="35" width="5" height="5" fill="#FFFFFF"/>
  <rect x="50" y="35" width="5" height="5" fill="#E8B06A"/>
  <rect x="55" y="35" width="5" height="5" fill="#E8B06A"/>
  <rect x="60" y="35" width="5" height="5" fill="#D4954A"/>
  <rect x="65" y="35" width="5" height="5" fill="#2E5E1E"/>
  <!-- Row 8: face -->
  <rect x="10" y="40" width="5" height="5" fill="#2E5E1E"/>
  <rect x="15" y="40" width="5" height="5" fill="#D4954A"/>
  <rect x="20" y="40" width="5" height="5" fill="#E8B06A"/>
  <rect x="25" y="40" width="5" height="5" fill="#E8B06A"/>
  <rect x="30" y="40" width="5" height="5" fill="#E8B06A"/>
  <rect x="35" y="40" width="5" height="5" fill="#C87840"/>
  <rect x="40" y="40" width="5" height="5" fill="#C87840"/>
  <rect x="45" y="40" width="5" height="5" fill="#E8B06A"/>
  <rect x="50" y="40" width="5" height="5" fill="#E8B06A"/>
  <rect x="55" y="40" width="5" height="5" fill="#E8B06A"/>
  <rect x="60" y="40" width="5" height="5" fill="#D4954A"/>
  <rect x="65" y="40" width="5" height="5" fill="#2E5E1E"/>
  <!-- Row 9: angry mouth -->
  <rect x="15" y="45" width="5" height="5" fill="#2E5E1E"/>
  <rect x="20" y="45" width="5" height="5" fill="#D4954A"/>
  <rect x="25" y="45" width="5" height="5" fill="#E8B06A"/>
  <rect x="30" y="45" width="5" height="5" fill="#551111"/>
  <rect x="35" y="45" width="5" height="5" fill="#771111"/>
  <rect x="40" y="45" width="5" height="5" fill="#771111"/>
  <rect x="45" y="45" width="5" height="5" fill="#551111"/>
  <rect x="50" y="45" width="5" height="5" fill="#E8B06A"/>
  <rect x="55" y="45" width="5" height="5" fill="#D4954A"/>
  <rect x="60" y="45" width="5" height="5" fill="#2E5E1E"/>
  <!-- Row 10: chin guard -->
  <rect x="15" y="50" width="5" height="5" fill="#2E5E1E"/>
  <rect x="20" y="50" width="5" height="5" fill="#3D7A28"/>
  <rect x="25" y="50" width="5" height="5" fill="#D4954A"/>
  <rect x="30" y="50" width="5" height="5" fill="#FFFFFF"/>
  <rect x="35" y="50" width="5" height="5" fill="#E8B06A"/>
  <rect x="40" y="50" width="5" height="5" fill="#E8B06A"/>
  <rect x="45" y="50" width="5" height="5" fill="#FFFFFF"/>
  <rect x="50" y="50" width="5" height="5" fill="#D4954A"/>
  <rect x="55" y="50" width="5" height="5" fill="#3D7A28"/>
  <rect x="60" y="50" width="5" height="5" fill="#2E5E1E"/>
  <!-- Row 11 -->
  <rect x="20" y="55" width="5" height="5" fill="#2E5E1E"/>
  <rect x="25" y="55" width="5" height="5" fill="#3D7A28"/>
  <rect x="30" y="55" width="5" height="5" fill="#3D7A28"/>
  <rect x="35" y="55" width="5" height="5" fill="#4A8E32"/>
  <rect x="40" y="55" width="5" height="5" fill="#4A8E32"/>
  <rect x="45" y="55" width="5" height="5" fill="#3D7A28"/>
  <rect x="50" y="55" width="5" height="5" fill="#3D7A28"/>
  <rect x="55" y="55" width="5" height="5" fill="#2E5E1E"/>
  <!-- Row 12: neck/armor -->
  <rect x="20" y="60" width="5" height="5" fill="#2E5E1E"/>
  <rect x="25" y="60" width="5" height="5" fill="#3D7A28"/>
  <rect x="30" y="60" width="5" height="5" fill="#4A8E32"/>
  <rect x="35" y="60" width="5" height="5" fill="#4A8E32"/>
  <rect x="40" y="60" width="5" height="5" fill="#4A8E32"/>
  <rect x="45" y="60" width="5" height="5" fill="#4A8E32"/>
  <rect x="50" y="60" width="5" height="5" fill="#3D7A28"/>
  <rect x="55" y="60" width="5" height="5" fill="#2E5E1E"/>
  <!-- Row 13: armor -->
  <rect x="15" y="65" width="5" height="5" fill="#2E5E1E"/>
  <rect x="20" y="65" width="5" height="5" fill="#3D7A28"/>
  <rect x="25" y="65" width="5" height="5" fill="#4A8E32"/>
  <rect x="30" y="65" width="5" height="5" fill="#5AA040"/>
  <rect x="35" y="65" width="5" height="5" fill="#5AA040"/>
  <rect x="40" y="65" width="5" height="5" fill="#5AA040"/>
  <rect x="45" y="65" width="5" height="5" fill="#5AA040"/>
  <rect x="50" y="65" width="5" height="5" fill="#4A8E32"/>
  <rect x="55" y="65" width="5" height="5" fill="#3D7A28"/>
  <rect x="60" y="65" width="5" height="5" fill="#2E5E1E"/>
  <!-- Row 14 -->
  <rect x="10" y="70" width="5" height="5" fill="#2E5E1E"/>
  <rect x="15" y="70" width="5" height="5" fill="#3D7A28"/>
  <rect x="20" y="70" width="5" height="5" fill="#4A8E32"/>
  <rect x="25" y="70" width="5" height="5" fill="#5AA040"/>
  <rect x="30" y="70" width="5" height="5" fill="#5AA040"/>
  <rect x="35" y="70" width="5" height="5" fill="#6AB050"/>
  <rect x="40" y="70" width="5" height="5" fill="#6AB050"/>
  <rect x="45" y="70" width="5" height="5" fill="#5AA040"/>
  <rect x="50" y="70" width="5" height="5" fill="#5AA040"/>
  <rect x="55" y="70" width="5" height="5" fill="#4A8E32"/>
  <rect x="60" y="70" width="5" height="5" fill="#3D7A28"/>
  <rect x="65" y="70" width="5" height="5" fill="#2E5E1E"/>
  <!-- Row 15 -->
  <rect x="10" y="75" width="5" height="5" fill="#2E5E1E"/>
  <rect x="15" y="75" width="5" height="5" fill="#3D7A28"/>
  <rect x="20" y="75" width="5" height="5" fill="#4A8E32"/>
  <rect x="25" y="75" width="5" height="5" fill="#4A8E32"/>
  <rect x="30" y="75" width="5" height="5" fill="#5AA040"/>
  <rect x="35" y="75" width="5" height="5" fill="#5AA040"/>
  <rect x="40" y="75" width="5" height="5" fill="#5AA040"/>
  <rect x="45" y="75" width="5" height="5" fill="#5AA040"/>
  <rect x="50" y="75" width="5" height="5" fill="#4A8E32"/>
  <rect x="55" y="75" width="5" height="5" fill="#4A8E32"/>
  <rect x="60" y="75" width="5" height="5" fill="#3D7A28"/>
  <rect x="65" y="75" width="5" height="5" fill="#2E5E1E"/>
</svg>