<svg xmlns="http://www.w3.org/2000/svg" width="80" height="80" viewBox="0 0 80 80">
  <!-- Dragon: Fierce dragon head, green/red, breathing fire -->
  <!-- Row 0: horns -->
  <rect x="10" y="0" width="5" height="5" fill="#8B6914"/>
  <rect x="15" y="0" width="5" height="5" fill="#AA8822"/>
  <rect x="55" y="0" width="5" height="5" fill="#AA8822"/>
  <rect x="60" y="0" width="5" height="5" fill="#8B6914"/>
  <!-- Row 1: horns -->
  <rect x="15" y="5" width="5" height="5" fill="#AA8822"/>
  <rect x="20" y="5" width="5" height="5" fill="#CC9933"/>
  <rect x="50" y="5" width="5" height="5" fill="#CC9933"/>
  <rect x="55" y="5" width="5" height="5" fill="#AA8822"/>
  <!-- Row 2: top of head -->
  <rect x="20" y="10" width="5" height="5" fill="#1B6B1B"/>
  <rect x="25" y="10" width="5" height="5" fill="#228B22"/>
  <rect x="30" y="10" width="5" height="5" fill="#228B22"/>
  <rect x="35" y="10" width="5" height="5" fill="#228B22"/>
  <rect x="40" y="10" width="5" height="5" fill="#228B22"/>
  <rect x="45" y="10" width="5" height="5" fill="#228B22"/>
  <rect x="50" y="10" width="5" height="5" fill="#1B6B1B"/>
  <!-- Row 3 -->
  <rect x="15" y="15" width="5" height="5" fill="#1B6B1B"/>
  <rect x="20" y="15" width="5" height="5" fill="#228B22"/>
  <rect x="25" y="15" width="5" height="5" fill="#2EA02E"/>
  <rect x="30" y="15" width="5" height="5" fill="#33AA33"/>
  <rect x="35" y="15" width="5" height="5" fill="#33AA33"/>
  <rect x="40" y="15" width="5" height="5" fill="#33AA33"/>
  <rect x="45" y="15" width="5" height="5" fill="#2EA02E"/>
  <rect x="50" y="15" width="5" height="5" fill="#228B22"/>
  <rect x="55" y="15" width="5" height="5" fill="#1B6B1B"/>
  <!-- Row 4: brow -->
  <rect x="10" y="20" width="5" height="5" fill="#1B6B1B"/>
  <rect x="15" y="20" width="5" height="5" fill="#228B22"/>
  <rect x="20" y="20" width="5" height="5" fill="#1B6B1B"/>
  <rect x="25" y="20" width="5" height="5" fill="#1B6B1B"/>
  <rect x="30" y="20" width="5" height="5" fill="#33AA33"/>
  <rect x="35" y="20" width="5" height="5" fill="#33AA33"/>
  <rect x="40" y="20" width="5" height="5" fill="#33AA33"/>
  <rect x="45" y="20" width="5" height="5" fill="#1B6B1B"/>
  <rect x="50" y="20" width="5" height="5" fill="#1B6B1B"/>
  <rect x="55" y="20" width="5" height="5" fill="#228B22"/>
  <rect x="60" y="20" width="5" height="5" fill="#1B6B1B"/>
  <!-- Row 5: eyes -->
  <rect x="5" y="25" width="5" height="5" fill="#1B6B1B"/>
  <rect x="10" y="25" width="5" height="5" fill="#228B22"/>
  <rect x="15" y="25" width="5" height="5" fill="#2EA02E"/>
  <rect x="20" y="25" width="5" height="5" fill="#FFCC00"/>
  <rect x="25" y="25" width="5" height="5" fill="#FF4400"/>
  <rect x="30" y="25" width="5" height="5" fill="#2EA02E"/>
  <rect x="35" y="25" width="5" height="5" fill="#33AA33"/>
  <rect x="40" y="25" width="5" height="5" fill="#2EA02E"/>
  <rect x="45" y="25" width="5" height="5" fill="#FFCC00"/>
  <rect x="50" y="25" width="5" height="5" fill="#FF4400"/>
  <rect x="55" y="25" width="5" height="5" fill="#2EA02E"/>
  <rect x="60" y="25" width="5" height="5" fill="#228B22"/>
  <rect x="65" y="25" width="5" height="5" fill="#1B6B1B"/>
  <!-- Row 6: snout -->
  <rect x="5" y="30" width="5" height="5" fill="#1B6B1B"/>
  <rect x="10" y="30" width="5" height="5" fill="#228B22"/>
  <rect x="15" y="30" width="5" height="5" fill="#2EA02E"/>
  <rect x="20" y="30" width="5" height="5" fill="#33AA33"/>
  <rect x="25" y="30" width="5" height="5" fill="#33AA33"/>
  <rect x="30" y="30" width="5" height="5" fill="#33AA33"/>
  <rect x="35" y="30" width="5" height="5" fill="#33AA33"/>
  <rect x="40" y="30" width="5" height="5" fill="#33AA33"/>
  <rect x="45" y="30" width="5" height="5" fill="#33AA33"/>
  <rect x="50" y="30" width="5" height="5" fill="#33AA33"/>
  <rect x="55" y="30" width="5" height="5" fill="#2EA02E"/>
  <rect x="60" y="30" width="5" height="5" fill="#228B22"/>
  <rect x="65" y="30" width="5" height="5" fill="#1B6B1B"/>
  <!-- Row 7: nostrils -->
  <rect x="5" y="35" width="5" height="5" fill="#1B6B1B"/>
  <rect x="10" y="35" width="5" height="5" fill="#2EA02E"/>
  <rect x="15" y="35" width="5" height="5" fill="#33AA33"/>
  <rect x="20" y="35" width="5" height="5" fill="#33AA33"/>
  <rect x="25" y="35" width="5" height="5" fill="#1B6B1B"/>
  <rect x="30" y="35" width="5" height="5" fill="#33AA33"/>
  <rect x="35" y="35" width="5" height="5" fill="#33AA33"/>
  <rect x="40" y="35" width="5" height="5" fill="#33AA33"/>
  <rect x="45" y="35" width="5" height="5" fill="#1B6B1B"/>
  <rect x="50" y="35" width="5" height="5" fill="#33AA33"/>
  <rect x="55" y="35" width="5" height="5" fill="#33AA33"/>
  <rect x="60" y="35" width="5" height="5" fill="#2EA02E"/>
  <rect x="65" y="35" width="5" height="5" fill="#1B6B1B"/>
  <!-- Row 8: upper jaw -->
  <rect x="0" y="40" width="5" height="5" fill="#1B6B1B"/>
  <rect x="5" y="40" width="5" height="5" fill="#228B22"/>
  <rect x="10" y="40" width="5" height="5" fill="#2EA02E"/>
  <rect x="15" y="40" width="5" height="5" fill="#33AA33"/>
  <rect x="20" y="40" width="5" height="5" fill="#33AA33"/>
  <rect x="25" y="40" width="5" height="5" fill="#33AA33"/>
  <rect x="30" y="40" width="5" height="5" fill="#33AA33"/>
  <rect x="35" y="40" width="5" height="5" fill="#33AA33"/>
  <rect x="40" y="40" width="5" height="5" fill="#33AA33"/>
  <rect x="45" y="40" width="5" height="5" fill="#33AA33"/>
  <rect x="50" y="40" width="5" height="5" fill="#33AA33"/>
  <rect x="55" y="40" width="5" height="5" fill="#2EA02E"/>
  <rect x="60" y="40" width="5" height="5" fill="#228B22"/>
  <rect x="65" y="40" width="5" height="5" fill="#1B6B1B"/>
  <!-- Row 9: teeth + fire start -->
  <rect x="0" y="45" width="5" height="5" fill="#1B6B1B"/>
  <rect x="5" y="45" width="5" height="5" fill="#228B22"/>
  <rect x="10" y="45" width="5" height="5" fill="#FFFFFF"/>
  <rect x="15" y="45" width="5" height="5" fill="#551111"/>
  <rect x="20" y="45" width="5" height="5" fill="#FFFFFF"/>
  <rect x="25" y="45" width="5" height="5" fill="#551111"/>
  <rect x="30" y="45" width="5" height="5" fill="#FFFFFF"/>
  <rect x="35" y="45" width="5" height="5" fill="#551111"/>
  <rect x="40" y="45" width="5" height="5" fill="#551111"/>
  <rect x="45" y="45" width="5" height="5" fill="#FFFFFF"/>
  <rect x="50" y="45" width="5" height="5" fill="#551111"/>
  <rect x="55" y="45" width="5" height="5" fill="#FFFFFF"/>
  <rect x="60" y="45" width="5" height="5" fill="#228B22"/>
  <rect x="65" y="45" width="5" height="5" fill="#FF4400"/>
  <rect x="70" y="45" width="5" height="5" fill="#FF6600"/>
  <!-- Row 10: lower jaw + fire -->
  <rect x="5" y="50" width="5" height="5" fill="#1B6B1B"/>
  <rect x="10" y="50" width="5" height="5" fill="#228B22"/>
  <rect x="15" y="50" width="5" height="5" fill="#FFFFFF"/>
  <rect x="20" y="50" width="5" height="5" fill="#881111"/>
  <rect x="25" y="50" width="5" height="5" fill="#FFFFFF"/>
  <rect x="30" y="50" width="5" height="5" fill="#881111"/>
  <rect x="35" y="50" width="5" height="5" fill="#881111"/>
  <rect x="40" y="50" width="5" height="5" fill="#FFFFFF"/>
  <rect x="45" y="50" width="5" height="5" fill="#881111"/>
  <rect x="50" y="50" width="5" height="5" fill="#FFFFFF"/>
  <rect x="55" y="50" width="5" height="5" fill="#228B22"/>
  <rect x="60" y="50" width="5" height="5" fill="#FF2200"/>
  <rect x="65" y="50" width="5" height="5" fill="#FF6600"/>
  <rect x="70" y="50" width="5" height="5" fill="#FFAA00"/>
  <rect x="75" y="50" width="5" height="5" fill="#FFCC00"/>
  <!-- Row 11: jaw + fire -->
  <rect x="10" y="55" width="5" height="5" fill="#1B6B1B"/>
  <rect x="15" y="55" width="5" height="5" fill="#228B22"/>
  <rect x="20" y="55" width="5" height="5" fill="#2EA02E"/>
  <rect x="25" y="55" width="5" height="5" fill="#2EA02E"/>
  <rect x="30" y="55" width="5" height="5" fill="#2EA02E"/>
  <rect x="35" y="55" width="5" height="5" fill="#2EA02E"/>
  <rect x="40" y="55" width="5" height="5" fill="#2EA02E"/>
  <rect x="45" y="55" width="5" height="5" fill="#2EA02E"/>
  <rect x="50" y="55" width="5" height="5" fill="#228B22"/>
  <rect x="55" y="55" width="5" height="5" fill="#FF2200"/>
  <rect x="60" y="55" width="5" height="5" fill="#FF4400"/>
  <rect x="65" y="55" width="5" height="5" fill="#FF8800"/>
  <rect x="70" y="55" width="5" height="5" fill="#FFCC00"/>
  <rect x="75" y="55" width="5" height="5" fill="#FFEE44"/>
  <!-- Row 12: fire continues -->
  <rect x="15" y="60" width="5" height="5" fill="#1B6B1B"/>
  <rect x="20" y="60" width="5" height="5" fill="#228B22"/>
  <rect x="25" y="60" width="5" height="5" fill="#228B22"/>
  <rect x="30" y="60" width="5" height="5" fill="#228B22"/>
  <rect x="35" y="60" width="5" height="5" fill="#228B22"/>
  <rect x="40" y="60" width="5" height="5" fill="#228B22"/>
  <rect x="45" y="60" width="5" height="5" fill="#1B6B1B"/>
  <rect x="55" y="60" width="5" height="5" fill="#FF4400"/>
  <rect x="60" y="60" width="5" height="5" fill="#FF6600"/>
  <rect x="65" y="60" width="5" height="5" fill="#FFAA00"/>
  <rect x="70" y="60" width="5" height="5" fill="#FFEE44"/>
  <!-- Row 13: neck -->
  <rect x="20" y="65" width="5" height="5" fill="#1B6B1B"/>
  <rect x="25" y="65" width="5" height="5" fill="#228B22"/>
  <rect x="30" y="65" width="5" height="5" fill="#2EA02E"/>
  <rect x="35" y="65" width="5" height="5" fill="#2EA02E"/>
  <rect x="40" y="65" width="5" height="5" fill="#228B22"/>
  <rect x="45" y="65" width="5" height="5" fill="#1B6B1B"/>
  <rect x="60" y="65" width="5" height="5" fill="#FF6600"/>
  <rect x="65" y="65" width="5" height="5" fill="#FFAA00"/>
  <!-- Row 14: neck scales -->
  <rect x="20" y="70" width="5" height="5" fill="#1B6B1B"/>
  <rect x="25" y="70" width="5" height="5" fill="#228B22"/>
  <rect x="30" y="70" width="5" height="5" fill="#CC3300"/>
  <rect x="35" y="70" width="5" height="5" fill="#CC3300"/>
  <rect x="40" y="70" width="5" height="5" fill="#228B22"/>
  <rect x="45" y="70" width="5" height="5" fill="#1B6B1B"/>
  <!-- Row 15: neck -->
  <rect x="20" y="75" width="5" height="5" fill="#1B6B1B"/>
  <rect x="25" y="75" width="5" height="5" fill="#228B22"/>
  <rect x="30" y="75" width="5" height="5" fill="#CC3300"/>
  <rect x="35" y="75" width="5" height="5" fill="#CC3300"/>
  <rect x="40" y="75" width="5" height="5" fill="#228B22"/>
  <rect x="45" y="75" width="5" height="5" fill="#1B6B1B"/>
</svg>