<svg xmlns="http://www.w3.org/2000/svg" width="80" height="80" viewBox="0 0 80 80">
  <!-- Ghost: Cute blue/white Pac-Man style -->
  <!-- Row 0 -->
  <rect x="25" y="0" width="5" height="5" fill="#90CAF9"/>
  <rect x="30" y="0" width="5" height="5" fill="#BBDEFB"/>
  <rect x="35" y="0" width="5" height="5" fill="#BBDEFB"/>
  <rect x="40" y="0" width="5" height="5" fill="#BBDEFB"/>
  <rect x="45" y="0" width="5" height="5" fill="#BBDEFB"/>
  <rect x="50" y="0" width="5" height="5" fill="#90CAF9"/>
  <!-- Row 1 -->
  <rect x="20" y="5" width="5" height="5" fill="#90CAF9"/>
  <rect x="25" y="5" width="5" height="5" fill="#BBDEFB"/>
  <rect x="30" y="5" width="5" height="5" fill="#E3F2FD"/>
  <rect x="35" y="5" width="5" height="5" fill="#E3F2FD"/>
  <rect x="40" y="5" width="5" height="5" fill="#E3F2FD"/>
  <rect x="45" y="5" width="5" height="5" fill="#E3F2FD"/>
  <rect x="50" y="5" width="5" height="5" fill="#BBDEFB"/>
  <rect x="55" y="5" width="5" height="5" fill="#90CAF9"/>
  <!-- Row 2 -->
  <rect x="15" y="10" width="5" height="5" fill="#90CAF9"/>
  <rect x="20" y="10" width="5" height="5" fill="#BBDEFB"/>
  <rect x="25" y="10" width="5" height="5" fill="#E3F2FD"/>
  <rect x="30" y="10" width="5" height="5" fill="#E3F2FD"/>
  <rect x="35" y="10" width="5" height="5" fill="#FFFFFF"/>
  <rect x="40" y="10" width="5" height="5" fill="#FFFFFF"/>
  <rect x="45" y="10" width="5" height="5" fill="#E3F2FD"/>
  <rect x="50" y="10" width="5" height="5" fill="#E3F2FD"/>
  <rect x="55" y="10" width="5" height="5" fill="#BBDEFB"/>
  <rect x="60" y="10" width="5" height="5" fill="#90CAF9"/>
  <!-- Row 3 -->
  <rect x="10" y="15" width="5" height="5" fill="#90CAF9"/>
  <rect x="15" y="15" width="5" height="5" fill="#BBDEFB"/>
  <rect x="20" y="15" width="5" height="5" fill="#E3F2FD"/>
  <rect x="25" y="15" width="5" height="5" fill="#E3F2FD"/>
  <rect x="30" y="15" width="5" height="5" fill="#FFFFFF"/>
  <rect x="35" y="15" width="5" height="5" fill="#FFFFFF"/>
  <rect x="40" y="15" width="5" height="5" fill="#FFFFFF"/>
  <rect x="45" y="15" width="5" height="5" fill="#FFFFFF"/>
  <rect x="50" y="15" width="5" height="5" fill="#E3F2FD"/>
  <rect x="55" y="15" width="5" height="5" fill="#E3F2FD"/>
  <rect x="60" y="15" width="5" height="5" fill="#BBDEFB"/>
  <rect x="65" y="15" width="5" height="5" fill="#90CAF9"/>
  <!-- Row 4: eyes -->
  <rect x="10" y="20" width="5" height="5" fill="#90CAF9"/>
  <rect x="15" y="20" width="5" height="5" fill="#BBDEFB"/>
  <rect x="20" y="20" width="5" height="5" fill="#FFFFFF"/>
  <rect x="25" y="20" width="5" height="5" fill="#FFFFFF"/>
  <rect x="30" y="20" width="5" height="5" fill="#FFFFFF"/>
  <rect x="35" y="20" width="5" height="5" fill="#E3F2FD"/>
  <rect x="40" y="20" width="5" height="5" fill="#E3F2FD"/>
  <rect x="45" y="20" width="5" height="5" fill="#FFFFFF"/>
  <rect x="50" y="20" width="5" height="5" fill="#FFFFFF"/>
  <rect x="55" y="20" width="5" height="5" fill="#FFFFFF"/>
  <rect x="60" y="20" width="5" height="5" fill="#BBDEFB"/>
  <rect x="65" y="20" width="5" height="5" fill="#90CAF9"/>
  <!-- Row 5: eyes with pupils -->
  <rect x="10" y="25" width="5" height="5" fill="#90CAF9"/>
  <rect x="15" y="25" width="5" height="5" fill="#BBDEFB"/>
  <rect x="20" y="25" width="5" height="5" fill="#FFFFFF"/>
  <rect x="25" y="25" width="5" height="5" fill="#1565C0"/>
  <rect x="30" y="25" width="5" height="5" fill="#1565C0"/>
  <rect x="35" y="25" width="5" height="5" fill="#E3F2FD"/>
  <rect x="40" y="25" width="5" height="5" fill="#E3F2FD"/>
  <rect x="45" y="25" width="5" height="5" fill="#FFFFFF"/>
  <rect x="50" y="25" width="5" height="5" fill="#1565C0"/>
  <rect x="55" y="25" width="5" height="5" fill="#1565C0"/>
  <rect x="60" y="25" width="5" height="5" fill="#BBDEFB"/>
  <rect x="65" y="25" width="5" height="5" fill="#90CAF9"/>
  <!-- Row 6: below eyes -->
  <rect x="10" y="30" width="5" height="5" fill="#90CAF9"/>
  <rect x="15" y="30" width="5" height="5" fill="#BBDEFB"/>
  <rect x="20" y="30" width="5" height="5" fill="#FFFFFF"/>
  <rect x="25" y="30" width="5" height="5" fill="#1565C0"/>
  <rect x="30" y="30" width="5" height="5" fill="#FFFFFF"/>
  <rect x="35" y="30" width="5" height="5" fill="#E3F2FD"/>
  <rect x="40" y="30" width="5" height="5" fill="#E3F2FD"/>
  <rect x="45" y="30" width="5" height="5" fill="#FFFFFF"/>
  <rect x="50" y="30" width="5" height="5" fill="#1565C0"/>
  <rect x="55" y="30" width="5" height="5" fill="#FFFFFF"/>
  <rect x="60" y="30" width="5" height="5" fill="#BBDEFB"/>
  <rect x="65" y="30" width="5" height="5" fill="#90CAF9"/>
  <!-- Row 7: cheeks -->
  <rect x="10" y="35" width="5" height="5" fill="#90CAF9"/>
  <rect x="15" y="35" width="5" height="5" fill="#BBDEFB"/>
  <rect x="20" y="35" width="5" height="5" fill="#E3F2FD"/>
  <rect x="25" y="35" width="5" height="5" fill="#E3F2FD"/>
  <rect x="30" y="35" width="5" height="5" fill="#E3F2FD"/>
  <rect x="35" y="35" width="5" height="5" fill="#E3F2FD"/>
  <rect x="40" y="35" width="5" height="5" fill="#E3F2FD"/>
  <rect x="45" y="35" width="5" height="5" fill="#E3F2FD"/>
  <rect x="50" y="35" width="5" height="5" fill="#E3F2FD"/>
  <rect x="55" y="35" width="5" height="5" fill="#E3F2FD"/>
  <rect x="60" y="35" width="5" height="5" fill="#BBDEFB"/>
  <rect x="65" y="35" width="5" height="5" fill="#90CAF9"/>
  <!-- Row 8: mouth -->
  <rect x="10" y="40" width="5" height="5" fill="#90CAF9"/>
  <rect x="15" y="40" width="5" height="5" fill="#BBDEFB"/>
  <rect x="20" y="40" width="5" height="5" fill="#F48FB1"/>
  <rect x="25" y="40" width="5" height="5" fill="#E3F2FD"/>
  <rect x="30" y="40" width="5" height="5" fill="#E3F2FD"/>
  <rect x="35" y="40" width="5" height="5" fill="#BBDEFB"/>
  <rect x="40" y="40" width="5" height="5" fill="#BBDEFB"/>
  <rect x="45" y="40" width="5" height="5" fill="#E3F2FD"/>
  <rect x="50" y="40" width="5" height="5" fill="#E3F2FD"/>
  <rect x="55" y="40" width="5" height="5" fill="#F48FB1"/>
  <rect x="60" y="40" width="5" height="5" fill="#BBDEFB"/>
  <rect x="65" y="40" width="5" height="5" fill="#90CAF9"/>
  <!-- Row 9: mouth smile -->
  <rect x="10" y="45" width="5" height="5" fill="#90CAF9"/>
  <rect x="15" y="45" width="5" height="5" fill="#BBDEFB"/>
  <rect x="20" y="45" width="5" height="5" fill="#E3F2FD"/>
  <rect x="25" y="45" width="5" height="5" fill="#E3F2FD"/>
  <rect x="30" y="45" width="5" height="5" fill="#90CAF9"/>
  <rect x="35" y="45" width="5" height="5" fill="#90CAF9"/>
  <rect x="40" y="45" width="5" height="5" fill="#90CAF9"/>
  <rect x="45" y="45" width="5" height="5" fill="#90CAF9"/>
  <rect x="50" y="45" width="5" height="5" fill="#E3F2FD"/>
  <rect x="55" y="45" width="5" height="5" fill="#E3F2FD"/>
  <rect x="60" y="45" width="5" height="5" fill="#BBDEFB"/>
  <rect x="65" y="45" width="5" height="5" fill="#90CAF9"/>
  <!-- Row 10: body -->
  <rect x="10" y="50" width="5" height="5" fill="#90CAF9"/>
  <rect x="15" y="50" width="5" height="5" fill="#BBDEFB"/>
  <rect x="20" y="50" width="5" height="5" fill="#E3F2FD"/>
  <rect x="25" y="50" width="5" height="5" fill="#E3F2FD"/>
  <rect x="30" y="50" width="5" height="5" fill="#E3F2FD"/>
  <rect x="35" y="50" width="5" height="5" fill="#E3F2FD"/>
  <rect x="40" y="50" width="5" height="5" fill="#E3F2FD"/>
  <rect x="45" y="50" width="5" height="5" fill="#E3F2FD"/>
  <rect x="50" y="50" width="5" height="5" fill="#E3F2FD"/>
  <rect x="55" y="50" width="5" height="5" fill="#E3F2FD"/>
  <rect x="60" y="50" width="5" height="5" fill="#BBDEFB"/>
  <rect x="65" y="50" width="5" height="5" fill="#90CAF9"/>
  <!-- Row 11 -->
  <rect x="10" y="55" width="5" height="5" fill="#90CAF9"/>
  <rect x="15" y="55" width="5" height="5" fill="#BBDEFB"/>
  <rect x="20" y="55" width="5" height="5" fill="#BBDEFB"/>
  <rect x="25" y="55" width="5" height="5" fill="#E3F2FD"/>
  <rect x="30" y="55" width="5" height="5" fill="#E3F2FD"/>
  <rect x="35" y="55" width="5" height="5" fill="#BBDEFB"/>
  <rect x="40" y="55" width="5" height="5" fill="#BBDEFB"/>
  <rect x="45" y="55" width="5" height="5" fill="#E3F2FD"/>
  <rect x="50" y="55" width="5" height="5" fill="#E3F2FD"/>
  <rect x="55" y="55" width="5" height="5" fill="#BBDEFB"/>
  <rect x="60" y="55" width="5" height="5" fill="#BBDEFB"/>
  <rect x="65" y="55" width="5" height="5" fill="#90CAF9"/>
  <!-- Row 12 -->
  <rect x="10" y="60" width="5" height="5" fill="#90CAF9"/>
  <rect x="15" y="60" width="5" height="5" fill="#BBDEFB"/>
  <rect x="20" y="60" width="5" height="5" fill="#BBDEFB"/>
  <rect x="25" y="60" width="5" height="5" fill="#E3F2FD"/>
  <rect x="30" y="60" width="5" height="5" fill="#E3F2FD"/>
  <rect x="35" y="60" width="5" height="5" fill="#BBDEFB"/>
  <rect x="40" y="60" width="5" height="5" fill="#BBDEFB"/>
  <rect x="45" y="60" width="5" height="5" fill="#E3F2FD"/>
  <rect x="50" y="60" width="5" height="5" fill="#E3F2FD"/>
  <rect x="55" y="60" width="5" height="5" fill="#BBDEFB"/>
  <rect x="60" y="60" width="5" height="5" fill="#BBDEFB"/>
  <rect x="65" y="60" width="5" height="5" fill="#90CAF9"/>
  <!-- Row 13: wavy bottom -->
  <rect x="10" y="65" width="5" height="5" fill="#90CAF9"/>
  <rect x="15" y="65" width="5" height="5" fill="#90CAF9"/>
  <rect x="20" y="65" width="5" height="5" fill="#BBDEFB"/>
  <rect x="25" y="65" width="5" height="5" fill="#BBDEFB"/>
  <rect x="30" y="65" width="5" height="5" fill="#E3F2FD"/>
  <rect x="35" y="65" width="5" height="5" fill="#90CAF9"/>
  <rect x="40" y="65" width="5" height="5" fill="#90CAF9"/>
  <rect x="45" y="65" width="5" height="5" fill="#E3F2FD"/>
  <rect x="50" y="65" width="5" height="5" fill="#BBDEFB"/>
  <rect x="55" y="65" width="5" height="5" fill="#BBDEFB"/>
  <rect x="60" y="65" width="5" height="5" fill="#90CAF9"/>
  <rect x="65" y="65" width="5" height="5" fill="#90CAF9"/>
  <!-- Row 14: tentacles -->
  <rect x="10" y="70" width="5" height="5" fill="#90CAF9"/>
  <rect x="15" y="70" width="5" height="5" fill="#BBDEFB"/>
  <rect x="30" y="70" width="5" height="5" fill="#90CAF9"/>
  <rect x="35" y="70" width="5" height="5" fill="#BBDEFB"/>
  <rect x="40" y="70" width="5" height="5" fill="#BBDEFB"/>
  <rect x="45" y="70" width="5" height="5" fill="#90CAF9"/>
  <rect x="60" y="70" width="5" height="5" fill="#BBDEFB"/>
  <rect x="65" y="70" width="5" height="5" fill="#90CAF9"/>
  <!-- Row 15: tentacle tips -->
  <rect x="10" y="75" width="5" height="5" fill="#BBDEFB"/>
  <rect x="30" y="75" width="5" height="5" fill="#BBDEFB"/>
  <rect x="45" y="75" width="5" height="5" fill="#BBDEFB"/>
  <rect x="65" y="75" width="5" height="5" fill="#BBDEFB"/>
</svg>