<svg xmlns="http://www.w3.org/2000/svg" width="80" height="80" viewBox="0 0 80 80">
  <!-- The Dude: long messy brown hair, scruffy beard, bathrobe -->
  <!-- Row 0: top of hair -->
  <rect x="20" y="0" width="4" height="4" fill="#4A2C1A"/>
  <rect x="24" y="0" width="4" height="4" fill="#5A3620"/>
  <rect x="28" y="0" width="4" height="4" fill="#5A3620"/>
  <rect x="32" y="0" width="4" height="4" fill="#6A4030"/>
  <rect x="36" y="0" width="4" height="4" fill="#6A4030"/>
  <rect x="40" y="0" width="4" height="4" fill="#5A3620"/>
  <rect x="44" y="0" width="4" height="4" fill="#5A3620"/>
  <rect x="48" y="0" width="4" height="4" fill="#6A4030"/>
  <rect x="52" y="0" width="4" height="4" fill="#5A3620"/>
  <rect x="56" y="0" width="4" height="4" fill="#4A2C1A"/>
  <!-- Row 1 -->
  <rect x="16" y="4" width="4" height="4" fill="#4A2C1A"/>
  <rect x="20" y="4" width="4" height="4" fill="#5A3620"/>
  <rect x="24" y="4" width="4" height="4" fill="#6A4030"/>
  <rect x="28" y="4" width="4" height="4" fill="#6A4030"/>
  <rect x="32" y="4" width="4" height="4" fill="#7A5038"/>
  <rect x="36" y="4" width="4" height="4" fill="#7A5038"/>
  <rect x="40" y="4" width="4" height="4" fill="#6A4030"/>
  <rect x="44" y="4" width="4" height="4" fill="#7A5038"/>
  <rect x="48" y="4" width="4" height="4" fill="#6A4030"/>
  <rect x="52" y="4" width="4" height="4" fill="#6A4030"/>
  <rect x="56" y="4" width="4" height="4" fill="#5A3620"/>
  <rect x="60" y="4" width="4" height="4" fill="#4A2C1A"/>
  <!-- Row 2 -->
  <rect x="12" y="8" width="4" height="4" fill="#4A2C1A"/>
  <rect x="16" y="8" width="4" height="4" fill="#5A3620"/>
  <rect x="20" y="8" width="4" height="4" fill="#6A4030"/>
  <rect x="24" y="8" width="4" height="4" fill="#6A4030"/>
  <rect x="28" y="8" width="4" height="4" fill="#D8A878"/>
  <rect x="32" y="8" width="4" height="4" fill="#E8B888"/>
  <rect x="36" y="8" width="4" height="4" fill="#E8B888"/>
  <rect x="40" y="8" width="4" height="4" fill="#E8B888"/>
  <rect x="44" y="8" width="4" height="4" fill="#E8B888"/>
  <rect x="48" y="8" width="4" height="4" fill="#D8A878"/>
  <rect x="52" y="8" width="4" height="4" fill="#6A4030"/>
  <rect x="56" y="8" width="4" height="4" fill="#6A4030"/>
  <rect x="60" y="8" width="4" height="4" fill="#5A3620"/>
  <rect x="64" y="8" width="4" height="4" fill="#4A2C1A"/>
  <!-- Row 3: hair flowing, face -->
  <rect x="12" y="12" width="4" height="4" fill="#5A3620"/>
  <rect x="16" y="12" width="4" height="4" fill="#6A4030"/>
  <rect x="20" y="12" width="4" height="4" fill="#6A4030"/>
  <rect x="24" y="12" width="4" height="4" fill="#D8A878"/>
  <rect x="28" y="12" width="4" height="4" fill="#E8B888"/>
  <rect x="32" y="12" width="4" height="4" fill="#E8B888"/>
  <rect x="36" y="12" width="4" height="4" fill="#E8B888"/>
  <rect x="40" y="12" width="4" height="4" fill="#E8B888"/>
  <rect x="44" y="12" width="4" height="4" fill="#E8B888"/>
  <rect x="48" y="12" width="4" height="4" fill="#E8B888"/>
  <rect x="52" y="12" width="4" height="4" fill="#D8A878"/>
  <rect x="56" y="12" width="4" height="4" fill="#6A4030"/>
  <rect x="60" y="12" width="4" height="4" fill="#6A4030"/>
  <rect x="64" y="12" width="4" height="4" fill="#5A3620"/>
  <!-- Row 4: eyes area -->
  <rect x="12" y="16" width="4" height="4" fill="#5A3620"/>
  <rect x="16" y="16" width="4" height="4" fill="#6A4030"/>
  <rect x="20" y="16" width="4" height="4" fill="#D8A878"/>
  <rect x="24" y="16" width="4" height="4" fill="#E8B888"/>
  <rect x="28" y="16" width="4" height="4" fill="#FFFFFF"/>
  <rect x="32" y="16" width="4" height="4" fill="#2A1A0A"/>
  <rect x="36" y="16" width="4" height="4" fill="#E8B888"/>
  <rect x="40" y="16" width="4" height="4" fill="#E8B888"/>
  <rect x="44" y="16" width="4" height="4" fill="#FFFFFF"/>
  <rect x="48" y="16" width="4" height="4" fill="#2A1A0A"/>
  <rect x="52" y="16" width="4" height="4" fill="#E8B888"/>
  <rect x="56" y="16" width="4" height="4" fill="#D8A878"/>
  <rect x="60" y="16" width="4" height="4" fill="#6A4030"/>
  <rect x="64" y="16" width="4" height="4" fill="#5A3620"/>
  <!-- Row 5: below eyes -->
  <rect x="12" y="20" width="4" height="4" fill="#5A3620"/>
  <rect x="16" y="20" width="4" height="4" fill="#6A4030"/>
  <rect x="20" y="20" width="4" height="4" fill="#D8A878"/>
  <rect x="24" y="20" width="4" height="4" fill="#E8B888"/>
  <rect x="28" y="20" width="4" height="4" fill="#E8B888"/>
  <rect x="32" y="20" width="4" height="4" fill="#E8B888"/>
  <rect x="36" y="20" width="4" height="4" fill="#D8A878"/>
  <rect x="40" y="20" width="4" height="4" fill="#D8A878"/>
  <rect x="44" y="20" width="4" height="4" fill="#E8B888"/>
  <rect x="48" y="20" width="4" height="4" fill="#E8B888"/>
  <rect x="52" y="20" width="4" height="4" fill="#E8B888"/>
  <rect x="56" y="20" width="4" height="4" fill="#D8A878"/>
  <rect x="60" y="20" width="4" height="4" fill="#6A4030"/>
  <rect x="64" y="20" width="4" height="4" fill="#5A3620"/>
  <!-- Row 6: nose -->
  <rect x="12" y="24" width="4" height="4" fill="#5A3620"/>
  <rect x="16" y="24" width="4" height="4" fill="#6A4030"/>
  <rect x="20" y="24" width="4" height="4" fill="#D8A878"/>
  <rect x="24" y="24" width="4" height="4" fill="#E8B888"/>
  <rect x="28" y="24" width="4" height="4" fill="#E8B888"/>
  <rect x="32" y="24" width="4" height="4" fill="#D8A878"/>
  <rect x="36" y="24" width="4" height="4" fill="#C89868"/>
  <rect x="40" y="24" width="4" height="4" fill="#C89868"/>
  <rect x="44" y="24" width="4" height="4" fill="#D8A878"/>
  <rect x="48" y="24" width="4" height="4" fill="#E8B888"/>
  <rect x="52" y="24" width="4" height="4" fill="#E8B888"/>
  <rect x="56" y="24" width="4" height="4" fill="#D8A878"/>
  <rect x="60" y="24" width="4" height="4" fill="#6A4030"/>
  <rect x="64" y="24" width="4" height="4" fill="#5A3620"/>
  <!-- Row 7: mustache/beard top -->
  <rect x="12" y="28" width="4" height="4" fill="#5A3620"/>
  <rect x="16" y="28" width="4" height="4" fill="#6A4030"/>
  <rect x="20" y="28" width="4" height="4" fill="#6A4030"/>
  <rect x="24" y="28" width="4" height="4" fill="#7A5038"/>
  <rect x="28" y="28" width="4" height="4" fill="#7A5038"/>
  <rect x="32" y="28" width="4" height="4" fill="#6A4030"/>
  <rect x="36" y="28" width="4" height="4" fill="#D8A878"/>
  <rect x="40" y="28" width="4" height="4" fill="#D8A878"/>
  <rect x="44" y="28" width="4" height="4" fill="#6A4030"/>
  <rect x="48" y="28" width="4" height="4" fill="#7A5038"/>
  <rect x="52" y="28" width="4" height="4" fill="#7A5038"/>
  <rect x="56" y="28" width="4" height="4" fill="#6A4030"/>
  <rect x="60" y="28" width="4" height="4" fill="#6A4030"/>
  <rect x="64" y="28" width="4" height="4" fill="#5A3620"/>
  <!-- Row 8: beard -->
  <rect x="12" y="32" width="4" height="4" fill="#5A3620"/>
  <rect x="16" y="32" width="4" height="4" fill="#6A4030"/>
  <rect x="20" y="32" width="4" height="4" fill="#7A5038"/>
  <rect x="24" y="32" width="4" height="4" fill="#7A5038"/>
  <rect x="28" y="32" width="4" height="4" fill="#8A5848"/>
  <rect x="32" y="32" width="4" height="4" fill="#7A5038"/>
  <rect x="36" y="32" width="4" height="4" fill="#6A4030"/>
  <rect x="40" y="32" width="4" height="4" fill="#6A4030"/>
  <rect x="44" y="32" width="4" height="4" fill="#7A5038"/>
  <rect x="48" y="32" width="4" height="4" fill="#8A5848"/>
  <rect x="52" y="32" width="4" height="4" fill="#7A5038"/>
  <rect x="56" y="32" width="4" height="4" fill="#7A5038"/>
  <rect x="60" y="32" width="4" height="4" fill="#6A4030"/>
  <rect x="64" y="32" width="4" height="4" fill="#5A3620"/>
  <!-- Row 9: beard -->
  <rect x="12" y="36" width="4" height="4" fill="#5A3620"/>
  <rect x="16" y="36" width="4" height="4" fill="#6A4030"/>
  <rect x="20" y="36" width="4" height="4" fill="#7A5038"/>
  <rect x="24" y="36" width="4" height="4" fill="#8A5848"/>
  <rect x="28" y="36" width="4" height="4" fill="#7A5038"/>
  <rect x="32" y="36" width="4" height="4" fill="#4A2C1A"/>
  <rect x="36" y="36" width="4" height="4" fill="#4A2C1A"/>
  <rect x="40" y="36" width="4" height="4" fill="#4A2C1A"/>
  <rect x="44" y="36" width="4" height="4" fill="#4A2C1A"/>
  <rect x="48" y="36" width="4" height="4" fill="#7A5038"/>
  <rect x="52" y="36" width="4" height="4" fill="#8A5848"/>
  <rect x="56" y="36" width="4" height="4" fill="#7A5038"/>
  <rect x="60" y="36" width="4" height="4" fill="#6A4030"/>
  <rect x="64" y="36" width="4" height="4" fill="#5A3620"/>
  <!-- Row 10: beard + mouth -->
  <rect x="12" y="40" width="4" height="4" fill="#4A2C1A"/>
  <rect x="16" y="40" width="4" height="4" fill="#6A4030"/>
  <rect x="20" y="40" width="4" height="4" fill="#7A5038"/>
  <rect x="24" y="40" width="4" height="4" fill="#7A5038"/>
  <rect x="28" y="40" width="4" height="4" fill="#8A5848"/>
  <rect x="32" y="40" width="4" height="4" fill="#7A5038"/>
  <rect x="36" y="40" width="4" height="4" fill="#7A5038"/>
  <rect x="40" y="40" width="4" height="4" fill="#7A5038"/>
  <rect x="44" y="40" width="4" height="4" fill="#7A5038"/>
  <rect x="48" y="40" width="4" height="4" fill="#8A5848"/>
  <rect x="52" y="40" width="4" height="4" fill="#7A5038"/>
  <rect x="56" y="40" width="4" height="4" fill="#7A5038"/>
  <rect x="60" y="40" width="4" height="4" fill="#6A4030"/>
  <rect x="64" y="40" width="4" height="4" fill="#4A2C1A"/>
  <!-- Row 11: beard bottom -->
  <rect x="16" y="44" width="4" height="4" fill="#4A2C1A"/>
  <rect x="20" y="44" width="4" height="4" fill="#6A4030"/>
  <rect x="24" y="44" width="4" height="4" fill="#7A5038"/>
  <rect x="28" y="44" width="4" height="4" fill="#7A5038"/>
  <rect x="32" y="44" width="4" height="4" fill="#7A5038"/>
  <rect x="36" y="44" width="4" height="4" fill="#7A5038"/>
  <rect x="40" y="44" width="4" height="4" fill="#7A5038"/>
  <rect x="44" y="44" width="4" height="4" fill="#7A5038"/>
  <rect x="48" y="44" width="4" height="4" fill="#7A5038"/>
  <rect x="52" y="44" width="4" height="4" fill="#7A5038"/>
  <rect x="56" y="44" width="4" height="4" fill="#6A4030"/>
  <rect x="60" y="44" width="4" height="4" fill="#4A2C1A"/>
  <!-- Row 12: beard tapering -->
  <rect x="20" y="48" width="4" height="4" fill="#4A2C1A"/>
  <rect x="24" y="48" width="4" height="4" fill="#6A4030"/>
  <rect x="28" y="48" width="4" height="4" fill="#7A5038"/>
  <rect x="32" y="48" width="4" height="4" fill="#7A5038"/>
  <rect x="36" y="48" width="4" height="4" fill="#6A4030"/>
  <rect x="40" y="48" width="4" height="4" fill="#6A4030"/>
  <rect x="44" y="48" width="4" height="4" fill="#7A5038"/>
  <rect x="48" y="48" width="4" height="4" fill="#7A5038"/>
  <rect x="52" y="48" width="4" height="4" fill="#6A4030"/>
  <rect x="56" y="48" width="4" height="4" fill="#4A2C1A"/>
  <!-- Row 13: bathrobe collar -->
  <rect x="12" y="52" width="4" height="4" fill="#8A4A28"/>
  <rect x="16" y="52" width="4" height="4" fill="#9A5A38"/>
  <rect x="20" y="52" width="4" height="4" fill="#AA6A48"/>
  <rect x="24" y="52" width="4" height="4" fill="#BA7A58"/>
  <rect x="28" y="52" width="4" height="4" fill="#6A4030"/>
  <rect x="32" y="52" width="4" height="4" fill="#4A2C1A"/>
  <rect x="36" y="52" width="4" height="4" fill="#4A2C1A"/>
  <rect x="40" y="52" width="4" height="4" fill="#4A2C1A"/>
  <rect x="44" y="52" width="4" height="4" fill="#4A2C1A"/>
  <rect x="48" y="52" width="4" height="4" fill="#6A4030"/>
  <rect x="52" y="52" width="4" height="4" fill="#BA7A58"/>
  <rect x="56" y="52" width="4" height="4" fill="#AA6A48"/>
  <rect x="60" y="52" width="4" height="4" fill="#9A5A38"/>
  <rect x="64" y="52" width="4" height="4" fill="#8A4A28"/>
  <!-- Row 14: bathrobe -->
  <rect x="8" y="56" width="4" height="4" fill="#8A4A28"/>
  <rect x="12" y="56" width="4" height="4" fill="#9A5A38"/>
  <rect x="16" y="56" width="4" height="4" fill="#AA6A48"/>
  <rect x="20" y="56" width="4" height="4" fill="#BA7A58"/>
  <rect x="24" y="56" width="4" height="4" fill="#BA7A58"/>
  <rect x="28" y="56" width="4" height="4" fill="#CA8A68"/>
  <rect x="32" y="56" width="4" height="4" fill="#8A4A28"/>
  <rect x="36" y="56" width="4" height="4" fill="#E8E8E8"/>
  <rect x="40" y="56" width="4" height="4" fill="#E8E8E8"/>
  <rect x="44" y="56" width="4" height="4" fill="#8A4A28"/>
  <rect x="48" y="56" width="4" height="4" fill="#CA8A68"/>
  <rect x="52" y="56" width="4" height="4" fill="#BA7A58"/>
  <rect x="56" y="56" width="4" height="4" fill="#BA7A58"/>
  <rect x="60" y="56" width="4" height="4" fill="#AA6A48"/>
  <rect x="64" y="56" width="4" height="4" fill="#9A5A38"/>
  <rect x="68" y="56" width="4" height="4" fill="#8A4A28"/>
  <!-- Row 15: bathrobe -->
  <rect x="4" y="60" width="4" height="4" fill="#8A4A28"/>
  <rect x="8" y="60" width="4" height="4" fill="#9A5A38"/>
  <rect x="12" y="60" width="4" height="4" fill="#AA6A48"/>
  <rect x="16" y="60" width="4" height="4" fill="#BA7A58"/>
  <rect x="20" y="60" width="4" height="4" fill="#CA8A68"/>
  <rect x="24" y="60" width="4" height="4" fill="#CA8A68"/>
  <rect x="28" y="60" width="4" height="4" fill="#BA7A58"/>
  <rect x="32" y="60" width="4" height="4" fill="#8A4A28"/>
  <rect x="36" y="60" width="4" height="4" fill="#E8E8E8"/>
  <rect x="40" y="60" width="4" height="4" fill="#E8E8E8"/>
  <rect x="44" y="60" width="4" height="4" fill="#8A4A28"/>
  <rect x="48" y="60" width="4" height="4" fill="#BA7A58"/>
  <rect x="52" y="60" width="4" height="4" fill="#CA8A68"/>
  <rect x="56" y="60" width="4" height="4" fill="#CA8A68"/>
  <rect x="60" y="60" width="4" height="4" fill="#BA7A58"/>
  <rect x="64" y="60" width="4" height="4" fill="#AA6A48"/>
  <rect x="68" y="60" width="4" height="4" fill="#9A5A38"/>
  <rect x="72" y="60" width="4" height="4" fill="#8A4A28"/>
  <!-- Row 16 -->
  <rect x="4" y="64" width="4" height="4" fill="#8A4A28"/>
  <rect x="8" y="64" width="4" height="4" fill="#9A5A38"/>
  <rect x="12" y="64" width="4" height="4" fill="#AA6A48"/>
  <rect x="16" y="64" width="4" height="4" fill="#AA6A48"/>
  <rect x="20" y="64" width="4" height="4" fill="#BA7A58"/>
  <rect x="24" y="64" width="4" height="4" fill="#BA7A58"/>
  <rect x="28" y="64" width="4" height="4" fill="#AA6A48"/>
  <rect x="32" y="64" width="4" height="4" fill="#8A4A28"/>
  <rect x="36" y="64" width="4" height="4" fill="#E8E8E8"/>
  <rect x="40" y="64" width="4" height="4" fill="#E8E8E8"/>
  <rect x="44" y="64" width="4" height="4" fill="#8A4A28"/>
  <rect x="48" y="64" width="4" height="4" fill="#AA6A48"/>
  <rect x="52" y="64" width="4" height="4" fill="#BA7A58"/>
  <rect x="56" y="64" width="4" height="4" fill="#BA7A58"/>
  <rect x="60" y="64" width="4" height="4" fill="#AA6A48"/>
  <rect x="64" y="64" width="4" height="4" fill="#AA6A48"/>
  <rect x="68" y="64" width="4" height="4" fill="#9A5A38"/>
  <rect x="72" y="64" width="4" height="4" fill="#8A4A28"/>
  <!-- Row 17 -->
  <rect x="4" y="68" width="4" height="4" fill="#8A4A28"/>
  <rect x="8" y="68" width="4" height="4" fill="#9A5A38"/>
  <rect x="12" y="68" width="4" height="4" fill="#9A5A38"/>
  <rect x="16" y="68" width="4" height="4" fill="#AA6A48"/>
  <rect x="20" y="68" width="4" height="4" fill="#AA6A48"/>
  <rect x="24" y="68" width="4" height="4" fill="#BA7A58"/>
  <rect x="28" y="68" width="4" height="4" fill="#AA6A48"/>
  <rect x="32" y="68" width="4" height="4" fill="#8A4A28"/>
  <rect x="36" y="68" width="4" height="4" fill="#E8E8E8"/>
  <rect x="40" y="68" width="4" height="4" fill="#E8E8E8"/>
  <rect x="44" y="68" width="4" height="4" fill="#8A4A28"/>
  <rect x="48" y="68" width="4" height="4" fill="#AA6A48"/>
  <rect x="52" y="68" width="4" height="4" fill="#BA7A58"/>
  <rect x="56" y="68" width="4" height="4" fill="#AA6A48"/>
  <rect x="60" y="68" width="4" height="4" fill="#AA6A48"/>
  <rect x="64" y="68" width="4" height="4" fill="#9A5A38"/>
  <rect x="68" y="68" width="4" height="4" fill="#9A5A38"/>
  <rect x="72" y="68" width="4" height="4" fill="#8A4A28"/>
  <!-- Row 18 -->
  <rect x="4" y="72" width="4" height="4" fill="#8A4A28"/>
  <rect x="8" y="72" width="4" height="4" fill="#8A4A28"/>
  <rect x="12" y="72" width="4" height="4" fill="#9A5A38"/>
  <rect x="16" y="72" width="4" height="4" fill="#9A5A38"/>
  <rect x="20" y="72" width="4" height="4" fill="#AA6A48"/>
  <rect x="24" y="72" width="4" height="4" fill="#AA6A48"/>
  <rect x="28" y="72" width="4" height="4" fill="#9A5A38"/>
  <rect x="32" y="72" width="4" height="4" fill="#8A4A28"/>
  <rect x="36" y="72" width="4" height="4" fill="#8A4A28"/>
  <rect x="40" y="72" width="4" height="4" fill="#8A4A28"/>
  <rect x="44" y="72" width="4" height="4" fill="#8A4A28"/>
  <rect x="48" y="72" width="4" height="4" fill="#9A5A38"/>
  <rect x="52" y="72" width="4" height="4" fill="#AA6A48"/>
  <rect x="56" y="72" width="4" height="4" fill="#AA6A48"/>
  <rect x="60" y="72" width="4" height="4" fill="#9A5A38"/>
  <rect x="64" y="72" width="4" height="4" fill="#9A5A38"/>
  <rect x="68" y="72" width="4" height="4" fill="#8A4A28"/>
  <rect x="72" y="72" width="4" height="4" fill="#8A4A28"/>
  <!-- Row 19 -->
  <rect x="4" y="76" width="4" height="4" fill="#6A3818"/>
  <rect x="8" y="76" width="4" height="4" fill="#8A4A28"/>
  <rect x="12" y="76" width="4" height="4" fill="#8A4A28"/>
  <rect x="16" y="76" width="4" height="4" fill="#9A5A38"/>
  <rect x="20" y="76" width="4" height="4" fill="#9A5A38"/>
  <rect x="24" y="76" width="4" height="4" fill="#9A5A38"/>
  <rect x="28" y="76" width="4" height="4" fill="#8A4A28"/>
  <rect x="32" y="76" width="4" height="4" fill="#6A3818"/>
  <rect x="36" y="76" width="4" height="4" fill="#6A3818"/>
  <rect x="40" y="76" width="4" height="4" fill="#6A3818"/>
  <rect x="44" y="76" width="4" height="4" fill="#6A3818"/>
  <rect x="48" y="76" width="4" height="4" fill="#8A4A28"/>
  <rect x="52" y="76" width="4" height="4" fill="#9A5A38"/>
  <rect x="56" y="76" width="4" height="4" fill="#9A5A38"/>
  <rect x="60" y="76" width="4" height="4" fill="#9A5A38"/>
  <rect x="64" y="76" width="4" height="4" fill="#8A4A28"/>
  <rect x="68" y="76" width="4" height="4" fill="#8A4A28"/>
  <rect x="72" y="76" width="4" height="4" fill="#6A3818"/>
</svg>
