<svg xmlns="http://www.w3.org/2000/svg" width="80" height="80" viewBox="0 0 80 80">
  <!-- Leeloo: bright orange hair, pale skin, white bandage suit -->
  <!-- Row 0: orange hair top -->
  <rect x="20" y="0" width="4" height="4" fill="#CC4400"/>
  <rect x="24" y="0" width="4" height="4" fill="#FF6600"/>
  <rect x="28" y="0" width="4" height="4" fill="#FF7711"/>
  <rect x="32" y="0" width="4" height="4" fill="#FF8822"/>
  <rect x="36" y="0" width="4" height="4" fill="#FF7711"/>
  <rect x="40" y="0" width="4" height="4" fill="#FF8822"/>
  <rect x="44" y="0" width="4" height="4" fill="#FF7711"/>
  <rect x="48" y="0" width="4" height="4" fill="#FF6600"/>
  <rect x="52" y="0" width="4" height="4" fill="#CC4400"/>
  <!-- Row 1 -->
  <rect x="16" y="4" width="4" height="4" fill="#CC4400"/>
  <rect x="20" y="4" width="4" height="4" fill="#FF6600"/>
  <rect x="24" y="4" width="4" height="4" fill="#FF8822"/>
  <rect x="28" y="4" width="4" height="4" fill="#FFAA33"/>
  <rect x="32" y="4" width="4" height="4" fill="#FF8822"/>
  <rect x="36" y="4" width="4" height="4" fill="#FFAA33"/>
  <rect x="40" y="4" width="4" height="4" fill="#FF8822"/>
  <rect x="44" y="4" width="4" height="4" fill="#FFAA33"/>
  <rect x="48" y="4" width="4" height="4" fill="#FF8822"/>
  <rect x="52" y="4" width="4" height="4" fill="#FF6600"/>
  <rect x="56" y="4" width="4" height="4" fill="#CC4400"/>
  <!-- Row 2 -->
  <rect x="12" y="8" width="4" height="4" fill="#CC4400"/>
  <rect x="16" y="8" width="4" height="4" fill="#FF6600"/>
  <rect x="20" y="8" width="4" height="4" fill="#FF8822"/>
  <rect x="24" y="8" width="4" height="4" fill="#FFAA33"/>
  <rect x="28" y="8" width="4" height="4" fill="#FF8822"/>
  <rect x="32" y="8" width="4" height="4" fill="#FFAA33"/>
  <rect x="36" y="8" width="4" height="4" fill="#FF8822"/>
  <rect x="40" y="8" width="4" height="4" fill="#FF8822"/>
  <rect x="44" y="8" width="4" height="4" fill="#FFAA33"/>
  <rect x="48" y="8" width="4" height="4" fill="#FF8822"/>
  <rect x="52" y="8" width="4" height="4" fill="#FFAA33"/>
  <rect x="56" y="8" width="4" height="4" fill="#FF6600"/>
  <rect x="60" y="8" width="4" height="4" fill="#CC4400"/>
  <!-- Row 3: bangs + forehead -->
  <rect x="12" y="12" width="4" height="4" fill="#CC4400"/>
  <rect x="16" y="12" width="4" height="4" fill="#FF6600"/>
  <rect x="20" y="12" width="4" height="4" fill="#FF7711"/>
  <rect x="24" y="12" width="4" height="4" fill="#FF6600"/>
  <rect x="28" y="12" width="4" height="4" fill="#F8D0C0"/>
  <rect x="32" y="12" width="4" height="4" fill="#F8D0C0"/>
  <rect x="36" y="12" width="4" height="4" fill="#F8D0C0"/>
  <rect x="40" y="12" width="4" height="4" fill="#F8D0C0"/>
  <rect x="44" y="12" width="4" height="4" fill="#F8D0C0"/>
  <rect x="48" y="12" width="4" height="4" fill="#FF6600"/>
  <rect x="52" y="12" width="4" height="4" fill="#FF7711"/>
  <rect x="56" y="12" width="4" height="4" fill="#FF6600"/>
  <rect x="60" y="12" width="4" height="4" fill="#CC4400"/>
  <!-- Row 4: face with sidelocks -->
  <rect x="12" y="16" width="4" height="4" fill="#CC4400"/>
  <rect x="16" y="16" width="4" height="4" fill="#FF6600"/>
  <rect x="20" y="16" width="4" height="4" fill="#FF7711"/>
  <rect x="24" y="16" width="4" height="4" fill="#F8D0C0"/>
  <rect x="28" y="16" width="4" height="4" fill="#FFE0D0"/>
  <rect x="32" y="16" width="4" height="4" fill="#FFE0D0"/>
  <rect x="36" y="16" width="4" height="4" fill="#FFE0D0"/>
  <rect x="40" y="16" width="4" height="4" fill="#FFE0D0"/>
  <rect x="44" y="16" width="4" height="4" fill="#FFE0D0"/>
  <rect x="48" y="16" width="4" height="4" fill="#F8D0C0"/>
  <rect x="52" y="16" width="4" height="4" fill="#FF7711"/>
  <rect x="56" y="16" width="4" height="4" fill="#FF6600"/>
  <rect x="60" y="16" width="4" height="4" fill="#CC4400"/>
  <!-- Row 5: eyes -->
  <rect x="12" y="20" width="4" height="4" fill="#CC4400"/>
  <rect x="16" y="20" width="4" height="4" fill="#FF6600"/>
  <rect x="20" y="20" width="4" height="4" fill="#FF7711"/>
  <rect x="24" y="20" width="4" height="4" fill="#FFE0D0"/>
  <rect x="28" y="20" width="4" height="4" fill="#FFFFFF"/>
  <rect x="32" y="20" width="4" height="4" fill="#227744"/>
  <rect x="36" y="20" width="4" height="4" fill="#FFE0D0"/>
  <rect x="40" y="20" width="4" height="4" fill="#FFE0D0"/>
  <rect x="44" y="20" width="4" height="4" fill="#FFFFFF"/>
  <rect x="48" y="20" width="4" height="4" fill="#227744"/>
  <rect x="52" y="20" width="4" height="4" fill="#FF7711"/>
  <rect x="56" y="20" width="4" height="4" fill="#FF6600"/>
  <rect x="60" y="20" width="4" height="4" fill="#CC4400"/>
  <!-- Row 6: below eyes -->
  <rect x="12" y="24" width="4" height="4" fill="#CC4400"/>
  <rect x="16" y="24" width="4" height="4" fill="#FF6600"/>
  <rect x="20" y="24" width="4" height="4" fill="#FF7711"/>
  <rect x="24" y="24" width="4" height="4" fill="#FFE0D0"/>
  <rect x="28" y="24" width="4" height="4" fill="#FFE0D0"/>
  <rect x="32" y="24" width="4" height="4" fill="#F8D0C0"/>
  <rect x="36" y="24" width="4" height="4" fill="#FFE0D0"/>
  <rect x="40" y="24" width="4" height="4" fill="#FFE0D0"/>
  <rect x="44" y="24" width="4" height="4" fill="#F8D0C0"/>
  <rect x="48" y="24" width="4" height="4" fill="#FFE0D0"/>
  <rect x="52" y="24" width="4" height="4" fill="#FF7711"/>
  <rect x="56" y="24" width="4" height="4" fill="#FF6600"/>
  <rect x="60" y="24" width="4" height="4" fill="#CC4400"/>
  <!-- Row 7: nose -->
  <rect x="12" y="28" width="4" height="4" fill="#CC4400"/>
  <rect x="16" y="28" width="4" height="4" fill="#FF6600"/>
  <rect x="20" y="28" width="4" height="4" fill="#FF7711"/>
  <rect x="24" y="28" width="4" height="4" fill="#FFE0D0"/>
  <rect x="28" y="28" width="4" height="4" fill="#FFE0D0"/>
  <rect x="32" y="28" width="4" height="4" fill="#FFE0D0"/>
  <rect x="36" y="28" width="4" height="4" fill="#F8D0C0"/>
  <rect x="40" y="28" width="4" height="4" fill="#F8D0C0"/>
  <rect x="44" y="28" width="4" height="4" fill="#FFE0D0"/>
  <rect x="48" y="28" width="4" height="4" fill="#FFE0D0"/>
  <rect x="52" y="28" width="4" height="4" fill="#FF7711"/>
  <rect x="56" y="28" width="4" height="4" fill="#FF6600"/>
  <rect x="60" y="28" width="4" height="4" fill="#CC4400"/>
  <!-- Row 8: cheeks -->
  <rect x="12" y="32" width="4" height="4" fill="#CC4400"/>
  <rect x="16" y="32" width="4" height="4" fill="#FF6600"/>
  <rect x="20" y="32" width="4" height="4" fill="#FF7711"/>
  <rect x="24" y="32" width="4" height="4" fill="#FFE0D0"/>
  <rect x="28" y="32" width="4" height="4" fill="#FFB8B0"/>
  <rect x="32" y="32" width="4" height="4" fill="#FFE0D0"/>
  <rect x="36" y="32" width="4" height="4" fill="#FFE0D0"/>
  <rect x="40" y="32" width="4" height="4" fill="#FFE0D0"/>
  <rect x="44" y="32" width="4" height="4" fill="#FFE0D0"/>
  <rect x="48" y="32" width="4" height="4" fill="#FFB8B0"/>
  <rect x="52" y="32" width="4" height="4" fill="#FF7711"/>
  <rect x="56" y="32" width="4" height="4" fill="#FF6600"/>
  <rect x="60" y="32" width="4" height="4" fill="#CC4400"/>
  <!-- Row 9: mouth -->
  <rect x="12" y="36" width="4" height="4" fill="#CC4400"/>
  <rect x="16" y="36" width="4" height="4" fill="#FF6600"/>
  <rect x="20" y="36" width="4" height="4" fill="#FF6600"/>
  <rect x="24" y="36" width="4" height="4" fill="#FFE0D0"/>
  <rect x="28" y="36" width="4" height="4" fill="#FFE0D0"/>
  <rect x="32" y="36" width="4" height="4" fill="#FFE0D0"/>
  <rect x="36" y="36" width="4" height="4" fill="#E04848"/>
  <rect x="40" y="36" width="4" height="4" fill="#E04848"/>
  <rect x="44" y="36" width="4" height="4" fill="#FFE0D0"/>
  <rect x="48" y="36" width="4" height="4" fill="#FFE0D0"/>
  <rect x="52" y="36" width="4" height="4" fill="#FF6600"/>
  <rect x="56" y="36" width="4" height="4" fill="#FF6600"/>
  <rect x="60" y="36" width="4" height="4" fill="#CC4400"/>
  <!-- Row 10: chin + long side hair -->
  <rect x="12" y="40" width="4" height="4" fill="#CC4400"/>
  <rect x="16" y="40" width="4" height="4" fill="#FF6600"/>
  <rect x="20" y="40" width="4" height="4" fill="#FF6600"/>
  <rect x="24" y="40" width="4" height="4" fill="#F8D0C0"/>
  <rect x="28" y="40" width="4" height="4" fill="#FFE0D0"/>
  <rect x="32" y="40" width="4" height="4" fill="#FFE0D0"/>
  <rect x="36" y="40" width="4" height="4" fill="#FFE0D0"/>
  <rect x="40" y="40" width="4" height="4" fill="#FFE0D0"/>
  <rect x="44" y="40" width="4" height="4" fill="#FFE0D0"/>
  <rect x="48" y="40" width="4" height="4" fill="#F8D0C0"/>
  <rect x="52" y="40" width="4" height="4" fill="#FF6600"/>
  <rect x="56" y="40" width="4" height="4" fill="#FF6600"/>
  <rect x="60" y="40" width="4" height="4" fill="#CC4400"/>
  <!-- Row 11: jaw -->
  <rect x="12" y="44" width="4" height="4" fill="#CC4400"/>
  <rect x="16" y="44" width="4" height="4" fill="#CC4400"/>
  <rect x="20" y="44" width="4" height="4" fill="#FF6600"/>
  <rect x="24" y="44" width="4" height="4" fill="#FF7711"/>
  <rect x="28" y="44" width="4" height="4" fill="#F8D0C0"/>
  <rect x="32" y="44" width="4" height="4" fill="#FFE0D0"/>
  <rect x="36" y="44" width="4" height="4" fill="#FFE0D0"/>
  <rect x="40" y="44" width="4" height="4" fill="#FFE0D0"/>
  <rect x="44" y="44" width="4" height="4" fill="#F8D0C0"/>
  <rect x="48" y="44" width="4" height="4" fill="#FF7711"/>
  <rect x="52" y="44" width="4" height="4" fill="#FF6600"/>
  <rect x="56" y="44" width="4" height="4" fill="#CC4400"/>
  <rect x="60" y="44" width="4" height="4" fill="#CC4400"/>
  <!-- Row 12: chin -->
  <rect x="16" y="48" width="4" height="4" fill="#CC4400"/>
  <rect x="20" y="48" width="4" height="4" fill="#FF6600"/>
  <rect x="24" y="48" width="4" height="4" fill="#FF7711"/>
  <rect x="28" y="48" width="4" height="4" fill="#F8D0C0"/>
  <rect x="32" y="48" width="4" height="4" fill="#F8D0C0"/>
  <rect x="36" y="48" width="4" height="4" fill="#FFE0D0"/>
  <rect x="40" y="48" width="4" height="4" fill="#F8D0C0"/>
  <rect x="44" y="48" width="4" height="4" fill="#F8D0C0"/>
  <rect x="48" y="48" width="4" height="4" fill="#FF7711"/>
  <rect x="52" y="48" width="4" height="4" fill="#FF6600"/>
  <rect x="56" y="48" width="4" height="4" fill="#CC4400"/>
  <!-- Row 13: bandage start -->
  <rect x="16" y="52" width="4" height="4" fill="#CC4400"/>
  <rect x="20" y="52" width="4" height="4" fill="#FFFFFF"/>
  <rect x="24" y="52" width="4" height="4" fill="#FFFFFF"/>
  <rect x="28" y="52" width="4" height="4" fill="#DDDDDD"/>
  <rect x="32" y="52" width="4" height="4" fill="#FFE0D0"/>
  <rect x="36" y="52" width="4" height="4" fill="#F8D0C0"/>
  <rect x="40" y="52" width="4" height="4" fill="#FFE0D0"/>
  <rect x="44" y="52" width="4" height="4" fill="#DDDDDD"/>
  <rect x="48" y="52" width="4" height="4" fill="#FFFFFF"/>
  <rect x="52" y="52" width="4" height="4" fill="#FFFFFF"/>
  <rect x="56" y="52" width="4" height="4" fill="#CC4400"/>
  <!-- Row 14: bandage strip -->
  <rect x="12" y="56" width="4" height="4" fill="#DDDDDD"/>
  <rect x="16" y="56" width="4" height="4" fill="#FFFFFF"/>
  <rect x="20" y="56" width="4" height="4" fill="#F8F8F8"/>
  <rect x="24" y="56" width="4" height="4" fill="#DDDDDD"/>
  <rect x="28" y="56" width="4" height="4" fill="#FFFFFF"/>
  <rect x="32" y="56" width="4" height="4" fill="#FFE0D0"/>
  <rect x="36" y="56" width="4" height="4" fill="#F8D0C0"/>
  <rect x="40" y="56" width="4" height="4" fill="#FFE0D0"/>
  <rect x="44" y="56" width="4" height="4" fill="#FFFFFF"/>
  <rect x="48" y="56" width="4" height="4" fill="#DDDDDD"/>
  <rect x="52" y="56" width="4" height="4" fill="#F8F8F8"/>
  <rect x="56" y="56" width="4" height="4" fill="#FFFFFF"/>
  <rect x="60" y="56" width="4" height="4" fill="#DDDDDD"/>
  <!-- Row 15: bandages with gaps -->
  <rect x="8" y="60" width="4" height="4" fill="#BBBBBB"/>
  <rect x="12" y="60" width="4" height="4" fill="#FFFFFF"/>
  <rect x="16" y="60" width="4" height="4" fill="#DDDDDD"/>
  <rect x="20" y="60" width="4" height="4" fill="#FFFFFF"/>
  <rect x="24" y="60" width="4" height="4" fill="#F8F8F8"/>
  <rect x="28" y="60" width="4" height="4" fill="#FFE0D0"/>
  <rect x="32" y="60" width="4" height="4" fill="#FFFFFF"/>
  <rect x="36" y="60" width="4" height="4" fill="#DDDDDD"/>
  <rect x="40" y="60" width="4" height="4" fill="#DDDDDD"/>
  <rect x="44" y="60" width="4" height="4" fill="#FFFFFF"/>
  <rect x="48" y="60" width="4" height="4" fill="#FFE0D0"/>
  <rect x="52" y="60" width="4" height="4" fill="#F8F8F8"/>
  <rect x="56" y="60" width="4" height="4" fill="#FFFFFF"/>
  <rect x="60" y="60" width="4" height="4" fill="#DDDDDD"/>
  <rect x="64" y="60" width="4" height="4" fill="#FFFFFF"/>
  <rect x="68" y="60" width="4" height="4" fill="#BBBBBB"/>
  <!-- Row 16 -->
  <rect x="8" y="64" width="4" height="4" fill="#BBBBBB"/>
  <rect x="12" y="64" width="4" height="4" fill="#DDDDDD"/>
  <rect x="16" y="64" width="4" height="4" fill="#FFFFFF"/>
  <rect x="20" y="64" width="4" height="4" fill="#F8F8F8"/>
  <rect x="24" y="64" width="4" height="4" fill="#FFE0D0"/>
  <rect x="28" y="64" width="4" height="4" fill="#F8D0C0"/>
  <rect x="32" y="64" width="4" height="4" fill="#FFFFFF"/>
  <rect x="36" y="64" width="4" height="4" fill="#FFFFFF"/>
  <rect x="40" y="64" width="4" height="4" fill="#FFFFFF"/>
  <rect x="44" y="64" width="4" height="4" fill="#FFFFFF"/>
  <rect x="48" y="64" width="4" height="4" fill="#F8D0C0"/>
  <rect x="52" y="64" width="4" height="4" fill="#FFE0D0"/>
  <rect x="56" y="64" width="4" height="4" fill="#F8F8F8"/>
  <rect x="60" y="64" width="4" height="4" fill="#FFFFFF"/>
  <rect x="64" y="64" width="4" height="4" fill="#DDDDDD"/>
  <rect x="68" y="64" width="4" height="4" fill="#BBBBBB"/>
  <!-- Row 17 -->
  <rect x="8" y="68" width="4" height="4" fill="#BBBBBB"/>
  <rect x="12" y="68" width="4" height="4" fill="#FFFFFF"/>
  <rect x="16" y="68" width="4" height="4" fill="#DDDDDD"/>
  <rect x="20" y="68" width="4" height="4" fill="#FFFFFF"/>
  <rect x="24" y="68" width="4" height="4" fill="#F8F8F8"/>
  <rect x="28" y="68" width="4" height="4" fill="#FFFFFF"/>
  <rect x="32" y="68" width="4" height="4" fill="#DDDDDD"/>
  <rect x="36" y="68" width="4" height="4" fill="#F8F8F8"/>
  <rect x="40" y="68" width="4" height="4" fill="#F8F8F8"/>
  <rect x="44" y="68" width="4" height="4" fill="#DDDDDD"/>
  <rect x="48" y="68" width="4" height="4" fill="#FFFFFF"/>
  <rect x="52" y="68" width="4" height="4" fill="#F8F8F8"/>
  <rect x="56" y="68" width="4" height="4" fill="#FFFFFF"/>
  <rect x="60" y="68" width="4" height="4" fill="#DDDDDD"/>
  <rect x="64" y="68" width="4" height="4" fill="#FFFFFF"/>
  <rect x="68" y="68" width="4" height="4" fill="#BBBBBB"/>
  <!-- Row 18 -->
  <rect x="8" y="72" width="4" height="4" fill="#BBBBBB"/>
  <rect x="12" y="72" width="4" height="4" fill="#DDDDDD"/>
  <rect x="16" y="72" width="4" height="4" fill="#FFFFFF"/>
  <rect x="20" y="72" width="4" height="4" fill="#DDDDDD"/>
  <rect x="24" y="72" width="4" height="4" fill="#FFFFFF"/>
  <rect x="28" y="72" width="4" height="4" fill="#F8F8F8"/>
  <rect x="32" y="72" width="4" height="4" fill="#FFFFFF"/>
  <rect x="36" y="72" width="4" height="4" fill="#DDDDDD"/>
  <rect x="40" y="72" width="4" height="4" fill="#DDDDDD"/>
  <rect x="44" y="72" width="4" height="4" fill="#FFFFFF"/>
  <rect x="48" y="72" width="4" height="4" fill="#F8F8F8"/>
  <rect x="52" y="72" width="4" height="4" fill="#FFFFFF"/>
  <rect x="56" y="72" width="4" height="4" fill="#DDDDDD"/>
  <rect x="60" y="72" width="4" height="4" fill="#FFFFFF"/>
  <rect x="64" y="72" width="4" height="4" fill="#DDDDDD"/>
  <rect x="68" y="72" width="4" height="4" fill="#BBBBBB"/>
  <!-- Row 19 -->
  <rect x="8" y="76" width="4" height="4" fill="#999999"/>
  <rect x="12" y="76" width="4" height="4" fill="#BBBBBB"/>
  <rect x="16" y="76" width="4" height="4" fill="#DDDDDD"/>
  <rect x="20" y="76" width="4" height="4" fill="#FFFFFF"/>
  <rect x="24" y="76" width="4" height="4" fill="#DDDDDD"/>
  <rect x="28" y="76" width="4" height="4" fill="#FFFFFF"/>
  <rect x="32" y="76" width="4" height="4" fill="#F8F8F8"/>
  <rect x="36" y="76" width="4" height="4" fill="#FFFFFF"/>
  <rect x="40" y="76" width="4" height="4" fill="#FFFFFF"/>
  <rect x="44" y="76" width="4" height="4" fill="#F8F8F8"/>
  <rect x="48" y="76" width="4" height="4" fill="#FFFFFF"/>
  <rect x="52" y="76" width="4" height="4" fill="#DDDDDD"/>
  <rect x="56" y="76" width="4" height="4" fill="#FFFFFF"/>
  <rect x="60" y="76" width="4" height="4" fill="#DDDDDD"/>
  <rect x="64" y="76" width="4" height="4" fill="#BBBBBB"/>
  <rect x="68" y="76" width="4" height="4" fill="#999999"/>
</svg>
