<svg xmlns="http://www.w3.org/2000/svg" width="80" height="80" viewBox="0 0 80 80">
  <!-- Link: Green hat, blonde hair, blue eyes -->
  <!-- Row 0: top of hat -->
  <rect x="25" y="0" width="5" height="5" fill="#2D8C2D"/>
  <rect x="30" y="0" width="5" height="5" fill="#2D8C2D"/>
  <rect x="35" y="0" width="5" height="5" fill="#2D8C2D"/>
  <rect x="40" y="0" width="5" height="5" fill="#2D8C2D"/>
  <rect x="45" y="0" width="5" height="5" fill="#2D8C2D"/>
  <!-- Row 1 -->
  <rect x="20" y="5" width="5" height="5" fill="#1E6B1E"/>
  <rect x="25" y="5" width="5" height="5" fill="#3AA33A"/>
  <rect x="30" y="5" width="5" height="5" fill="#45B845"/>
  <rect x="35" y="5" width="5" height="5" fill="#45B845"/>
  <rect x="40" y="5" width="5" height="5" fill="#45B845"/>
  <rect x="45" y="5" width="5" height="5" fill="#3AA33A"/>
  <rect x="50" y="5" width="5" height="5" fill="#2D8C2D"/>
  <!-- Row 2 -->
  <rect x="15" y="10" width="5" height="5" fill="#1E6B1E"/>
  <rect x="20" y="10" width="5" height="5" fill="#3AA33A"/>
  <rect x="25" y="10" width="5" height="5" fill="#45B845"/>
  <rect x="30" y="10" width="5" height="5" fill="#55CC55"/>
  <rect x="35" y="10" width="5" height="5" fill="#55CC55"/>
  <rect x="40" y="10" width="5" height="5" fill="#55CC55"/>
  <rect x="45" y="10" width="5" height="5" fill="#45B845"/>
  <rect x="50" y="10" width="5" height="5" fill="#3AA33A"/>
  <rect x="55" y="10" width="5" height="5" fill="#2D8C2D"/>
  <!-- Row 3: hat brim + hat flowing right -->
  <rect x="10" y="15" width="5" height="5" fill="#1E6B1E"/>
  <rect x="15" y="15" width="5" height="5" fill="#2D8C2D"/>
  <rect x="20" y="15" width="5" height="5" fill="#3AA33A"/>
  <rect x="25" y="15" width="5" height="5" fill="#45B845"/>
  <rect x="30" y="15" width="5" height="5" fill="#55CC55"/>
  <rect x="35" y="15" width="5" height="5" fill="#55CC55"/>
  <rect x="40" y="15" width="5" height="5" fill="#55CC55"/>
  <rect x="45" y="15" width="5" height="5" fill="#45B845"/>
  <rect x="50" y="15" width="5" height="5" fill="#3AA33A"/>
  <rect x="55" y="15" width="5" height="5" fill="#2D8C2D"/>
  <rect x="60" y="15" width="5" height="5" fill="#1E6B1E"/>
  <!-- Row 4: hat brim -->
  <rect x="5" y="20" width="5" height="5" fill="#1E6B1E"/>
  <rect x="10" y="20" width="5" height="5" fill="#2D8C2D"/>
  <rect x="15" y="20" width="5" height="5" fill="#2D8C2D"/>
  <rect x="20" y="20" width="5" height="5" fill="#2D8C2D"/>
  <rect x="25" y="20" width="5" height="5" fill="#2D8C2D"/>
  <rect x="30" y="20" width="5" height="5" fill="#2D8C2D"/>
  <rect x="35" y="20" width="5" height="5" fill="#2D8C2D"/>
  <rect x="40" y="20" width="5" height="5" fill="#2D8C2D"/>
  <rect x="45" y="20" width="5" height="5" fill="#2D8C2D"/>
  <rect x="50" y="20" width="5" height="5" fill="#2D8C2D"/>
  <rect x="55" y="20" width="5" height="5" fill="#3AA33A"/>
  <rect x="60" y="20" width="5" height="5" fill="#45B845"/>
  <rect x="65" y="20" width="5" height="5" fill="#2D8C2D"/>
  <!-- Row 5: hair + hat tip -->
  <rect x="10" y="25" width="5" height="5" fill="#D4A832"/>
  <rect x="15" y="25" width="5" height="5" fill="#E8C33A"/>
  <rect x="20" y="25" width="5" height="5" fill="#E8C33A"/>
  <rect x="25" y="25" width="5" height="5" fill="#E8C33A"/>
  <rect x="30" y="25" width="5" height="5" fill="#E8C33A"/>
  <rect x="35" y="25" width="5" height="5" fill="#F0D050"/>
  <rect x="40" y="25" width="5" height="5" fill="#F0D050"/>
  <rect x="45" y="25" width="5" height="5" fill="#E8C33A"/>
  <rect x="50" y="25" width="5" height="5" fill="#E8C33A"/>
  <rect x="55" y="25" width="5" height="5" fill="#D4A832"/>
  <rect x="60" y="25" width="5" height="5" fill="#3AA33A"/>
  <rect x="65" y="25" width="5" height="5" fill="#45B845"/>
  <rect x="70" y="25" width="5" height="5" fill="#2D8C2D"/>
  <!-- Row 6: hair + face -->
  <rect x="10" y="30" width="5" height="5" fill="#D4A832"/>
  <rect x="15" y="30" width="5" height="5" fill="#E8C33A"/>
  <rect x="20" y="30" width="5" height="5" fill="#F5D6A0"/>
  <rect x="25" y="30" width="5" height="5" fill="#F5D6A0"/>
  <rect x="30" y="30" width="5" height="5" fill="#F5D6A0"/>
  <rect x="35" y="30" width="5" height="5" fill="#F5D6A0"/>
  <rect x="40" y="30" width="5" height="5" fill="#F5D6A0"/>
  <rect x="45" y="30" width="5" height="5" fill="#F5D6A0"/>
  <rect x="50" y="30" width="5" height="5" fill="#F5D6A0"/>
  <rect x="55" y="30" width="5" height="5" fill="#E8C33A"/>
  <rect x="60" y="30" width="5" height="5" fill="#D4A832"/>
  <rect x="65" y="30" width="5" height="5" fill="#2D8C2D"/>
  <!-- Row 7: eyes -->
  <rect x="10" y="35" width="5" height="5" fill="#D4A832"/>
  <rect x="15" y="35" width="5" height="5" fill="#F5D6A0"/>
  <rect x="20" y="35" width="5" height="5" fill="#F5D6A0"/>
  <rect x="25" y="35" width="5" height="5" fill="#FFFFFF"/>
  <rect x="30" y="35" width="5" height="5" fill="#2266CC"/>
  <rect x="35" y="35" width="5" height="5" fill="#F5D6A0"/>
  <rect x="40" y="35" width="5" height="5" fill="#FFFFFF"/>
  <rect x="45" y="35" width="5" height="5" fill="#2266CC"/>
  <rect x="50" y="35" width="5" height="5" fill="#F5D6A0"/>
  <rect x="55" y="35" width="5" height="5" fill="#E8C33A"/>
  <rect x="60" y="35" width="5" height="5" fill="#D4A832"/>
  <!-- Row 8: nose -->
  <rect x="15" y="40" width="5" height="5" fill="#E8C33A"/>
  <rect x="20" y="40" width="5" height="5" fill="#F5D6A0"/>
  <rect x="25" y="40" width="5" height="5" fill="#F5D6A0"/>
  <rect x="30" y="40" width="5" height="5" fill="#F5D6A0"/>
  <rect x="35" y="40" width="5" height="5" fill="#E8B080"/>
  <rect x="40" y="40" width="5" height="5" fill="#F5D6A0"/>
  <rect x="45" y="40" width="5" height="5" fill="#F5D6A0"/>
  <rect x="50" y="40" width="5" height="5" fill="#F5D6A0"/>
  <rect x="55" y="40" width="5" height="5" fill="#E8C33A"/>
  <!-- Row 9: mouth -->
  <rect x="15" y="45" width="5" height="5" fill="#D4A832"/>
  <rect x="20" y="45" width="5" height="5" fill="#F5D6A0"/>
  <rect x="25" y="45" width="5" height="5" fill="#F5D6A0"/>
  <rect x="30" y="45" width="5" height="5" fill="#F5D6A0"/>
  <rect x="35" y="45" width="5" height="5" fill="#F5D6A0"/>
  <rect x="40" y="45" width="5" height="5" fill="#F5D6A0"/>
  <rect x="45" y="45" width="5" height="5" fill="#F5D6A0"/>
  <rect x="50" y="45" width="5" height="5" fill="#F5D6A0"/>
  <rect x="55" y="45" width="5" height="5" fill="#D4A832"/>
  <!-- Row 10 -->
  <rect x="20" y="50" width="5" height="5" fill="#D4A832"/>
  <rect x="25" y="50" width="5" height="5" fill="#F5D6A0"/>
  <rect x="30" y="50" width="5" height="5" fill="#CC6655"/>
  <rect x="35" y="50" width="5" height="5" fill="#CC6655"/>
  <rect x="40" y="50" width="5" height="5" fill="#CC6655"/>
  <rect x="45" y="50" width="5" height="5" fill="#F5D6A0"/>
  <rect x="50" y="50" width="5" height="5" fill="#D4A832"/>
  <!-- Row 11: chin -->
  <rect x="25" y="55" width="5" height="5" fill="#E8B080"/>
  <rect x="30" y="55" width="5" height="5" fill="#F5D6A0"/>
  <rect x="35" y="55" width="5" height="5" fill="#F5D6A0"/>
  <rect x="40" y="55" width="5" height="5" fill="#F5D6A0"/>
  <rect x="45" y="55" width="5" height="5" fill="#E8B080"/>
  <!-- Row 12: neck/tunic -->
  <rect x="25" y="60" width="5" height="5" fill="#2D8C2D"/>
  <rect x="30" y="60" width="5" height="5" fill="#3AA33A"/>
  <rect x="35" y="60" width="5" height="5" fill="#3AA33A"/>
  <rect x="40" y="60" width="5" height="5" fill="#3AA33A"/>
  <rect x="45" y="60" width="5" height="5" fill="#2D8C2D"/>
  <!-- Row 13 -->
  <rect x="20" y="65" width="5" height="5" fill="#1E6B1E"/>
  <rect x="25" y="65" width="5" height="5" fill="#2D8C2D"/>
  <rect x="30" y="65" width="5" height="5" fill="#3AA33A"/>
  <rect x="35" y="65" width="5" height="5" fill="#45B845"/>
  <rect x="40" y="65" width="5" height="5" fill="#3AA33A"/>
  <rect x="45" y="65" width="5" height="5" fill="#2D8C2D"/>
  <rect x="50" y="65" width="5" height="5" fill="#1E6B1E"/>
  <!-- Row 14: belt -->
  <rect x="20" y="70" width="5" height="5" fill="#1E6B1E"/>
  <rect x="25" y="70" width="5" height="5" fill="#2D8C2D"/>
  <rect x="30" y="70" width="5" height="5" fill="#8B6914"/>
  <rect x="35" y="70" width="5" height="5" fill="#C8A820"/>
  <rect x="40" y="70" width="5" height="5" fill="#8B6914"/>
  <rect x="45" y="70" width="5" height="5" fill="#2D8C2D"/>
  <rect x="50" y="70" width="5" height="5" fill="#1E6B1E"/>
  <!-- Row 15 -->
  <rect x="20" y="75" width="5" height="5" fill="#1E6B1E"/>
  <rect x="25" y="75" width="5" height="5" fill="#2D8C2D"/>
  <rect x="30" y="75" width="5" height="5" fill="#3AA33A"/>
  <rect x="35" y="75" width="5" height="5" fill="#3AA33A"/>
  <rect x="40" y="75" width="5" height="5" fill="#3AA33A"/>
  <rect x="45" y="75" width="5" height="5" fill="#2D8C2D"/>
  <rect x="50" y="75" width="5" height="5" fill="#1E6B1E"/>
</svg>