<svg xmlns="http://www.w3.org/2000/svg" width="80" height="80" viewBox="0 0 80 80">
  <!-- Neo: slicked black hair, sunglasses, black trenchcoat -->
  <!-- Row 0: hair top -->
  <rect x="20" y="0" width="4" height="4" fill="#0A0A0A"/>
  <rect x="24" y="0" width="4" height="4" fill="#0A0A0A"/>
  <rect x="28" y="0" width="4" height="4" fill="#0A0A0A"/>
  <rect x="32" y="0" width="4" height="4" fill="#0A0A0A"/>
  <rect x="36" y="0" width="4" height="4" fill="#0A0A0A"/>
  <rect x="40" y="0" width="4" height="4" fill="#0A0A0A"/>
  <rect x="44" y="0" width="4" height="4" fill="#0A0A0A"/>
  <rect x="48" y="0" width="4" height="4" fill="#0A0A0A"/>
  <rect x="52" y="0" width="4" height="4" fill="#0A0A0A"/>
  <!-- Row 1: hair -->
  <rect x="16" y="4" width="4" height="4" fill="#0A0A0A"/>
  <rect x="20" y="4" width="4" height="4" fill="#1A1A1A"/>
  <rect x="24" y="4" width="4" height="4" fill="#1A1A1A"/>
  <rect x="28" y="4" width="4" height="4" fill="#1A1A1A"/>
  <rect x="32" y="4" width="4" height="4" fill="#1A1A1A"/>
  <rect x="36" y="4" width="4" height="4" fill="#1A1A1A"/>
  <rect x="40" y="4" width="4" height="4" fill="#1A1A1A"/>
  <rect x="44" y="4" width="4" height="4" fill="#1A1A1A"/>
  <rect x="48" y="4" width="4" height="4" fill="#1A1A1A"/>
  <rect x="52" y="4" width="4" height="4" fill="#1A1A1A"/>
  <rect x="56" y="4" width="4" height="4" fill="#0A0A0A"/>
  <!-- Row 2: hair forehead line -->
  <rect x="16" y="8" width="4" height="4" fill="#0A0A0A"/>
  <rect x="20" y="8" width="4" height="4" fill="#0A0A0A"/>
  <rect x="24" y="8" width="4" height="4" fill="#0A0A0A"/>
  <rect x="28" y="8" width="4" height="4" fill="#0A0A0A"/>
  <rect x="32" y="8" width="4" height="4" fill="#0A0A0A"/>
  <rect x="36" y="8" width="4" height="4" fill="#0A0A0A"/>
  <rect x="40" y="8" width="4" height="4" fill="#0A0A0A"/>
  <rect x="44" y="8" width="4" height="4" fill="#0A0A0A"/>
  <rect x="48" y="8" width="4" height="4" fill="#0A0A0A"/>
  <rect x="52" y="8" width="4" height="4" fill="#0A0A0A"/>
  <rect x="56" y="8" width="4" height="4" fill="#0A0A0A"/>
  <!-- Row 3: forehead -->
  <rect x="16" y="12" width="4" height="4" fill="#0A0A0A"/>
  <rect x="20" y="12" width="4" height="4" fill="#C89878"/>
  <rect x="24" y="12" width="4" height="4" fill="#D8A888"/>
  <rect x="28" y="12" width="4" height="4" fill="#D8A888"/>
  <rect x="32" y="12" width="4" height="4" fill="#D8A888"/>
  <rect x="36" y="12" width="4" height="4" fill="#D8A888"/>
  <rect x="40" y="12" width="4" height="4" fill="#D8A888"/>
  <rect x="44" y="12" width="4" height="4" fill="#D8A888"/>
  <rect x="48" y="12" width="4" height="4" fill="#D8A888"/>
  <rect x="52" y="12" width="4" height="4" fill="#C89878"/>
  <rect x="56" y="12" width="4" height="4" fill="#0A0A0A"/>
  <!-- Row 4: upper face -->
  <rect x="16" y="16" width="4" height="4" fill="#0A0A0A"/>
  <rect x="20" y="16" width="4" height="4" fill="#C89878"/>
  <rect x="24" y="16" width="4" height="4" fill="#D8A888"/>
  <rect x="28" y="16" width="4" height="4" fill="#D8A888"/>
  <rect x="32" y="16" width="4" height="4" fill="#D8A888"/>
  <rect x="36" y="16" width="4" height="4" fill="#D8A888"/>
  <rect x="40" y="16" width="4" height="4" fill="#D8A888"/>
  <rect x="44" y="16" width="4" height="4" fill="#D8A888"/>
  <rect x="48" y="16" width="4" height="4" fill="#D8A888"/>
  <rect x="52" y="16" width="4" height="4" fill="#C89878"/>
  <rect x="56" y="16" width="4" height="4" fill="#0A0A0A"/>
  <!-- Row 5: sunglasses top frame -->
  <rect x="16" y="20" width="4" height="4" fill="#0A0A0A"/>
  <rect x="20" y="20" width="4" height="4" fill="#0A0A0A"/>
  <rect x="24" y="20" width="4" height="4" fill="#0A0A0A"/>
  <rect x="28" y="20" width="4" height="4" fill="#0A0A0A"/>
  <rect x="32" y="20" width="4" height="4" fill="#0A0A0A"/>
  <rect x="36" y="20" width="4" height="4" fill="#0A0A0A"/>
  <rect x="40" y="20" width="4" height="4" fill="#D8A888"/>
  <rect x="44" y="20" width="4" height="4" fill="#0A0A0A"/>
  <rect x="48" y="20" width="4" height="4" fill="#0A0A0A"/>
  <rect x="52" y="20" width="4" height="4" fill="#0A0A0A"/>
  <rect x="56" y="20" width="4" height="4" fill="#0A0A0A"/>
  <!-- Row 6: sunglass lenses -->
  <rect x="16" y="24" width="4" height="4" fill="#0A0A0A"/>
  <rect x="20" y="24" width="4" height="4" fill="#1A1A1A"/>
  <rect x="24" y="24" width="4" height="4" fill="#2A2A2A"/>
  <rect x="28" y="24" width="4" height="4" fill="#1A1A1A"/>
  <rect x="32" y="24" width="4" height="4" fill="#1A1A1A"/>
  <rect x="36" y="24" width="4" height="4" fill="#0A0A0A"/>
  <rect x="40" y="24" width="4" height="4" fill="#D8A888"/>
  <rect x="44" y="24" width="4" height="4" fill="#0A0A0A"/>
  <rect x="48" y="24" width="4" height="4" fill="#1A1A1A"/>
  <rect x="52" y="24" width="4" height="4" fill="#2A2A2A"/>
  <rect x="56" y="24" width="4" height="4" fill="#0A0A0A"/>
  <!-- Row 7: sunglass lenses bottom -->
  <rect x="16" y="28" width="4" height="4" fill="#0A0A0A"/>
  <rect x="20" y="28" width="4" height="4" fill="#0A0A0A"/>
  <rect x="24" y="28" width="4" height="4" fill="#0A0A0A"/>
  <rect x="28" y="28" width="4" height="4" fill="#0A0A0A"/>
  <rect x="32" y="28" width="4" height="4" fill="#0A0A0A"/>
  <rect x="36" y="28" width="4" height="4" fill="#0A0A0A"/>
  <rect x="40" y="28" width="4" height="4" fill="#D8A888"/>
  <rect x="44" y="28" width="4" height="4" fill="#0A0A0A"/>
  <rect x="48" y="28" width="4" height="4" fill="#0A0A0A"/>
  <rect x="52" y="28" width="4" height="4" fill="#0A0A0A"/>
  <rect x="56" y="28" width="4" height="4" fill="#0A0A0A"/>
  <!-- Row 8: cheeks/nose -->
  <rect x="20" y="32" width="4" height="4" fill="#C89878"/>
  <rect x="24" y="32" width="4" height="4" fill="#D8A888"/>
  <rect x="28" y="32" width="4" height="4" fill="#D8A888"/>
  <rect x="32" y="32" width="4" height="4" fill="#D8A888"/>
  <rect x="36" y="32" width="4" height="4" fill="#C89878"/>
  <rect x="40" y="32" width="4" height="4" fill="#C89878"/>
  <rect x="44" y="32" width="4" height="4" fill="#D8A888"/>
  <rect x="48" y="32" width="4" height="4" fill="#D8A888"/>
  <rect x="52" y="32" width="4" height="4" fill="#C89878"/>
  <!-- Row 9: cheeks/nose -->
  <rect x="20" y="36" width="4" height="4" fill="#C89878"/>
  <rect x="24" y="36" width="4" height="4" fill="#D8A888"/>
  <rect x="28" y="36" width="4" height="4" fill="#D8A888"/>
  <rect x="32" y="36" width="4" height="4" fill="#D8A888"/>
  <rect x="36" y="36" width="4" height="4" fill="#B88868"/>
  <rect x="40" y="36" width="4" height="4" fill="#B88868"/>
  <rect x="44" y="36" width="4" height="4" fill="#D8A888"/>
  <rect x="48" y="36" width="4" height="4" fill="#D8A888"/>
  <rect x="52" y="36" width="4" height="4" fill="#C89878"/>
  <!-- Row 10: mouth line (serious, straight) -->
  <rect x="20" y="40" width="4" height="4" fill="#C89878"/>
  <rect x="24" y="40" width="4" height="4" fill="#D8A888"/>
  <rect x="28" y="40" width="4" height="4" fill="#D8A888"/>
  <rect x="32" y="40" width="4" height="4" fill="#704040"/>
  <rect x="36" y="40" width="4" height="4" fill="#704040"/>
  <rect x="40" y="40" width="4" height="4" fill="#704040"/>
  <rect x="44" y="40" width="4" height="4" fill="#704040"/>
  <rect x="48" y="40" width="4" height="4" fill="#D8A888"/>
  <rect x="52" y="40" width="4" height="4" fill="#C89878"/>
  <!-- Row 11: chin -->
  <rect x="20" y="44" width="4" height="4" fill="#C89878"/>
  <rect x="24" y="44" width="4" height="4" fill="#D8A888"/>
  <rect x="28" y="44" width="4" height="4" fill="#D8A888"/>
  <rect x="32" y="44" width="4" height="4" fill="#D8A888"/>
  <rect x="36" y="44" width="4" height="4" fill="#C89878"/>
  <rect x="40" y="44" width="4" height="4" fill="#C89878"/>
  <rect x="44" y="44" width="4" height="4" fill="#D8A888"/>
  <rect x="48" y="44" width="4" height="4" fill="#D8A888"/>
  <rect x="52" y="44" width="4" height="4" fill="#C89878"/>
  <!-- Row 12: jaw/chin -->
  <rect x="24" y="48" width="4" height="4" fill="#C89878"/>
  <rect x="28" y="48" width="4" height="4" fill="#D8A888"/>
  <rect x="32" y="48" width="4" height="4" fill="#D8A888"/>
  <rect x="36" y="48" width="4" height="4" fill="#D8A888"/>
  <rect x="40" y="48" width="4" height="4" fill="#D8A888"/>
  <rect x="44" y="48" width="4" height="4" fill="#D8A888"/>
  <rect x="48" y="48" width="4" height="4" fill="#C89878"/>
  <!-- Row 13: neck/collar start -->
  <rect x="20" y="52" width="4" height="4" fill="#0A0A0A"/>
  <rect x="24" y="52" width="4" height="4" fill="#0A0A0A"/>
  <rect x="28" y="52" width="4" height="4" fill="#C89878"/>
  <rect x="32" y="52" width="4" height="4" fill="#D8A888"/>
  <rect x="36" y="52" width="4" height="4" fill="#D8A888"/>
  <rect x="40" y="52" width="4" height="4" fill="#D8A888"/>
  <rect x="44" y="52" width="4" height="4" fill="#C89878"/>
  <rect x="48" y="52" width="4" height="4" fill="#0A0A0A"/>
  <rect x="52" y="52" width="4" height="4" fill="#0A0A0A"/>
  <!-- Row 14: trenchcoat shoulders -->
  <rect x="12" y="56" width="4" height="4" fill="#0A0A0A"/>
  <rect x="16" y="56" width="4" height="4" fill="#0A0A0A"/>
  <rect x="20" y="56" width="4" height="4" fill="#1A1A1A"/>
  <rect x="24" y="56" width="4" height="4" fill="#1A1A1A"/>
  <rect x="28" y="56" width="4" height="4" fill="#0A0A0A"/>
  <rect x="32" y="56" width="4" height="4" fill="#2A2A2A"/>
  <rect x="36" y="56" width="4" height="4" fill="#2A2A2A"/>
  <rect x="40" y="56" width="4" height="4" fill="#2A2A2A"/>
  <rect x="44" y="56" width="4" height="4" fill="#2A2A2A"/>
  <rect x="48" y="56" width="4" height="4" fill="#0A0A0A"/>
  <rect x="52" y="56" width="4" height="4" fill="#1A1A1A"/>
  <rect x="56" y="56" width="4" height="4" fill="#1A1A1A"/>
  <rect x="60" y="56" width="4" height="4" fill="#0A0A0A"/>
  <rect x="64" y="56" width="4" height="4" fill="#0A0A0A"/>
  <!-- Row 15: trenchcoat -->
  <rect x="8" y="60" width="4" height="4" fill="#0A0A0A"/>
  <rect x="12" y="60" width="4" height="4" fill="#1A1A1A"/>
  <rect x="16" y="60" width="4" height="4" fill="#1A1A1A"/>
  <rect x="20" y="60" width="4" height="4" fill="#0A0A0A"/>
  <rect x="24" y="60" width="4" height="4" fill="#1A1A1A"/>
  <rect x="28" y="60" width="4" height="4" fill="#0A0A0A"/>
  <rect x="32" y="60" width="4" height="4" fill="#1A1A1A"/>
  <rect x="36" y="60" width="4" height="4" fill="#2A2A2A"/>
  <rect x="40" y="60" width="4" height="4" fill="#2A2A2A"/>
  <rect x="44" y="60" width="4" height="4" fill="#1A1A1A"/>
  <rect x="48" y="60" width="4" height="4" fill="#0A0A0A"/>
  <rect x="52" y="60" width="4" height="4" fill="#1A1A1A"/>
  <rect x="56" y="60" width="4" height="4" fill="#0A0A0A"/>
  <rect x="60" y="60" width="4" height="4" fill="#1A1A1A"/>
  <rect x="64" y="60" width="4" height="4" fill="#1A1A1A"/>
  <rect x="68" y="60" width="4" height="4" fill="#0A0A0A"/>
  <!-- Row 16: trenchcoat -->
  <rect x="8" y="64" width="4" height="4" fill="#0A0A0A"/>
  <rect x="12" y="64" width="4" height="4" fill="#1A1A1A"/>
  <rect x="16" y="64" width="4" height="4" fill="#1A1A1A"/>
  <rect x="20" y="64" width="4" height="4" fill="#0A0A0A"/>
  <rect x="24" y="64" width="4" height="4" fill="#1A1A1A"/>
  <rect x="28" y="64" width="4" height="4" fill="#0A0A0A"/>
  <rect x="32" y="64" width="4" height="4" fill="#1A1A1A"/>
  <rect x="36" y="64" width="4" height="4" fill="#0A0A0A"/>
  <rect x="40" y="64" width="4" height="4" fill="#0A0A0A"/>
  <rect x="44" y="64" width="4" height="4" fill="#1A1A1A"/>
  <rect x="48" y="64" width="4" height="4" fill="#0A0A0A"/>
  <rect x="52" y="64" width="4" height="4" fill="#1A1A1A"/>
  <rect x="56" y="64" width="4" height="4" fill="#0A0A0A"/>
  <rect x="60" y="64" width="4" height="4" fill="#1A1A1A"/>
  <rect x="64" y="64" width="4" height="4" fill="#1A1A1A"/>
  <rect x="68" y="64" width="4" height="4" fill="#0A0A0A"/>
  <!-- Row 17 -->
  <rect x="8" y="68" width="4" height="4" fill="#0A0A0A"/>
  <rect x="12" y="68" width="4" height="4" fill="#1A1A1A"/>
  <rect x="16" y="68" width="4" height="4" fill="#0A0A0A"/>
  <rect x="20" y="68" width="4" height="4" fill="#1A1A1A"/>
  <rect x="24" y="68" width="4" height="4" fill="#0A0A0A"/>
  <rect x="28" y="68" width="4" height="4" fill="#1A1A1A"/>
  <rect x="32" y="68" width="4" height="4" fill="#0A0A0A"/>
  <rect x="36" y="68" width="4" height="4" fill="#1A1A1A"/>
  <rect x="40" y="68" width="4" height="4" fill="#1A1A1A"/>
  <rect x="44" y="68" width="4" height="4" fill="#0A0A0A"/>
  <rect x="48" y="68" width="4" height="4" fill="#1A1A1A"/>
  <rect x="52" y="68" width="4" height="4" fill="#0A0A0A"/>
  <rect x="56" y="68" width="4" height="4" fill="#1A1A1A"/>
  <rect x="60" y="68" width="4" height="4" fill="#0A0A0A"/>
  <rect x="64" y="68" width="4" height="4" fill="#1A1A1A"/>
  <rect x="68" y="68" width="4" height="4" fill="#0A0A0A"/>
  <!-- Row 18 -->
  <rect x="8" y="72" width="4" height="4" fill="#0A0A0A"/>
  <rect x="12" y="72" width="4" height="4" fill="#0A0A0A"/>
  <rect x="16" y="72" width="4" height="4" fill="#1A1A1A"/>
  <rect x="20" y="72" width="4" height="4" fill="#0A0A0A"/>
  <rect x="24" y="72" width="4" height="4" fill="#1A1A1A"/>
  <rect x="28" y="72" width="4" height="4" fill="#0A0A0A"/>
  <rect x="32" y="72" width="4" height="4" fill="#1A1A1A"/>
  <rect x="36" y="72" width="4" height="4" fill="#0A0A0A"/>
  <rect x="40" y="72" width="4" height="4" fill="#0A0A0A"/>
  <rect x="44" y="72" width="4" height="4" fill="#1A1A1A"/>
  <rect x="48" y="72" width="4" height="4" fill="#0A0A0A"/>
  <rect x="52" y="72" width="4" height="4" fill="#1A1A1A"/>
  <rect x="56" y="72" width="4" height="4" fill="#0A0A0A"/>
  <rect x="60" y="72" width="4" height="4" fill="#1A1A1A"/>
  <rect x="64" y="72" width="4" height="4" fill="#0A0A0A"/>
  <rect x="68" y="72" width="4" height="4" fill="#0A0A0A"/>
  <!-- Row 19 -->
  <rect x="8" y="76" width="4" height="4" fill="#0A0A0A"/>
  <rect x="12" y="76" width="4" height="4" fill="#0A0A0A"/>
  <rect x="16" y="76" width="4" height="4" fill="#0A0A0A"/>
  <rect x="20" y="76" width="4" height="4" fill="#0A0A0A"/>
  <rect x="24" y="76" width="4" height="4" fill="#0A0A0A"/>
  <rect x="28" y="76" width="4" height="4" fill="#0A0A0A"/>
  <rect x="32" y="76" width="4" height="4" fill="#0A0A0A"/>
  <rect x="36" y="76" width="4" height="4" fill="#0A0A0A"/>
  <rect x="40" y="76" width="4" height="4" fill="#0A0A0A"/>
  <rect x="44" y="76" width="4" height="4" fill="#0A0A0A"/>
  <rect x="48" y="76" width="4" height="4" fill="#0A0A0A"/>
  <rect x="52" y="76" width="4" height="4" fill="#0A0A0A"/>
  <rect x="56" y="76" width="4" height="4" fill="#0A0A0A"/>
  <rect x="60" y="76" width="4" height="4" fill="#0A0A0A"/>
  <rect x="64" y="76" width="4" height="4" fill="#0A0A0A"/>
  <rect x="68" y="76" width="4" height="4" fill="#0A0A0A"/>
</svg>
