<svg xmlns="http://www.w3.org/2000/svg" width="80" height="80" viewBox="0 0 80 80">
  <!-- Ninja: Black/Dark Purple -->
  <!-- Row 0 -->
  <rect x="25" y="0" width="5" height="5" fill="#1A1A2E"/>
  <rect x="30" y="0" width="5" height="5" fill="#1A1A2E"/>
  <rect x="35" y="0" width="5" height="5" fill="#1A1A2E"/>
  <rect x="40" y="0" width="5" height="5" fill="#1A1A2E"/>
  <rect x="45" y="0" width="5" height="5" fill="#1A1A2E"/>
  <rect x="50" y="0" width="5" height="5" fill="#1A1A2E"/>
  <!-- Row 1 -->
  <rect x="20" y="5" width="5" height="5" fill="#1A1A2E"/>
  <rect x="25" y="5" width="5" height="5" fill="#2D2B55"/>
  <rect x="30" y="5" width="5" height="5" fill="#2D2B55"/>
  <rect x="35" y="5" width="5" height="5" fill="#2D2B55"/>
  <rect x="40" y="5" width="5" height="5" fill="#2D2B55"/>
  <rect x="45" y="5" width="5" height="5" fill="#2D2B55"/>
  <rect x="50" y="5" width="5" height="5" fill="#2D2B55"/>
  <rect x="55" y="5" width="5" height="5" fill="#1A1A2E"/>
  <!-- Row 2 -->
  <rect x="15" y="10" width="5" height="5" fill="#1A1A2E"/>
  <rect x="20" y="10" width="5" height="5" fill="#2D2B55"/>
  <rect x="25" y="10" width="5" height="5" fill="#2D2B55"/>
  <rect x="30" y="10" width="5" height="5" fill="#2D2B55"/>
  <rect x="35" y="10" width="5" height="5" fill="#2D2B55"/>
  <rect x="40" y="10" width="5" height="5" fill="#2D2B55"/>
  <rect x="45" y="10" width="5" height="5" fill="#2D2B55"/>
  <rect x="50" y="10" width="5" height="5" fill="#2D2B55"/>
  <rect x="55" y="10" width="5" height="5" fill="#2D2B55"/>
  <rect x="60" y="10" width="5" height="5" fill="#1A1A2E"/>
  <!-- Row 3: headband -->
  <rect x="15" y="15" width="5" height="5" fill="#1A1A2E"/>
  <rect x="20" y="15" width="5" height="5" fill="#2D2B55"/>
  <rect x="25" y="15" width="5" height="5" fill="#2D2B55"/>
  <rect x="30" y="15" width="5" height="5" fill="#2D2B55"/>
  <rect x="35" y="15" width="5" height="5" fill="#2D2B55"/>
  <rect x="40" y="15" width="5" height="5" fill="#2D2B55"/>
  <rect x="45" y="15" width="5" height="5" fill="#2D2B55"/>
  <rect x="50" y="15" width="5" height="5" fill="#2D2B55"/>
  <rect x="55" y="15" width="5" height="5" fill="#2D2B55"/>
  <rect x="60" y="15" width="5" height="5" fill="#1A1A2E"/>
  <!-- Row 4: headband accent -->
  <rect x="10" y="20" width="5" height="5" fill="#C62828"/>
  <rect x="15" y="20" width="5" height="5" fill="#C62828"/>
  <rect x="20" y="20" width="5" height="5" fill="#C62828"/>
  <rect x="25" y="20" width="5" height="5" fill="#C62828"/>
  <rect x="30" y="20" width="5" height="5" fill="#C62828"/>
  <rect x="35" y="20" width="5" height="5" fill="#C62828"/>
  <rect x="40" y="20" width="5" height="5" fill="#C62828"/>
  <rect x="45" y="20" width="5" height="5" fill="#C62828"/>
  <rect x="50" y="20" width="5" height="5" fill="#C62828"/>
  <rect x="55" y="20" width="5" height="5" fill="#C62828"/>
  <rect x="60" y="20" width="5" height="5" fill="#C62828"/>
  <rect x="65" y="20" width="5" height="5" fill="#C62828"/>
  <!-- Row 5: eyes -->
  <rect x="15" y="25" width="5" height="5" fill="#1A1A2E"/>
  <rect x="20" y="25" width="5" height="5" fill="#1A1A2E"/>
  <rect x="25" y="25" width="5" height="5" fill="#F5E6CA"/>
  <rect x="30" y="25" width="5" height="5" fill="#FFFFFF"/>
  <rect x="35" y="25" width="5" height="5" fill="#F5E6CA"/>
  <rect x="40" y="25" width="5" height="5" fill="#F5E6CA"/>
  <rect x="45" y="25" width="5" height="5" fill="#FFFFFF"/>
  <rect x="50" y="25" width="5" height="5" fill="#F5E6CA"/>
  <rect x="55" y="25" width="5" height="5" fill="#1A1A2E"/>
  <rect x="60" y="25" width="5" height="5" fill="#1A1A2E"/>
  <!-- Row 6: eyes detail -->
  <rect x="15" y="30" width="5" height="5" fill="#1A1A2E"/>
  <rect x="20" y="30" width="5" height="5" fill="#1A1A2E"/>
  <rect x="25" y="30" width="5" height="5" fill="#F5E6CA"/>
  <rect x="30" y="30" width="5" height="5" fill="#111111"/>
  <rect x="35" y="30" width="5" height="5" fill="#F5E6CA"/>
  <rect x="40" y="30" width="5" height="5" fill="#F5E6CA"/>
  <rect x="45" y="30" width="5" height="5" fill="#111111"/>
  <rect x="50" y="30" width="5" height="5" fill="#F5E6CA"/>
  <rect x="55" y="30" width="5" height="5" fill="#1A1A2E"/>
  <rect x="60" y="30" width="5" height="5" fill="#1A1A2E"/>
  <!-- Row 7: mask -->
  <rect x="15" y="35" width="5" height="5" fill="#1A1A2E"/>
  <rect x="20" y="35" width="5" height="5" fill="#2D2B55"/>
  <rect x="25" y="35" width="5" height="5" fill="#2D2B55"/>
  <rect x="30" y="35" width="5" height="5" fill="#2D2B55"/>
  <rect x="35" y="35" width="5" height="5" fill="#2D2B55"/>
  <rect x="40" y="35" width="5" height="5" fill="#2D2B55"/>
  <rect x="45" y="35" width="5" height="5" fill="#2D2B55"/>
  <rect x="50" y="35" width="5" height="5" fill="#2D2B55"/>
  <rect x="55" y="35" width="5" height="5" fill="#2D2B55"/>
  <rect x="60" y="35" width="5" height="5" fill="#1A1A2E"/>
  <!-- Row 8: mask lower -->
  <rect x="20" y="40" width="5" height="5" fill="#1A1A2E"/>
  <rect x="25" y="40" width="5" height="5" fill="#2D2B55"/>
  <rect x="30" y="40" width="5" height="5" fill="#2D2B55"/>
  <rect x="35" y="40" width="5" height="5" fill="#2D2B55"/>
  <rect x="40" y="40" width="5" height="5" fill="#2D2B55"/>
  <rect x="45" y="40" width="5" height="5" fill="#2D2B55"/>
  <rect x="50" y="40" width="5" height="5" fill="#2D2B55"/>
  <rect x="55" y="40" width="5" height="5" fill="#1A1A2E"/>
  <!-- Row 9: neck/shoulders -->
  <rect x="25" y="45" width="5" height="5" fill="#1A1A2E"/>
  <rect x="30" y="45" width="5" height="5" fill="#1A1A2E"/>
  <rect x="35" y="45" width="5" height="5" fill="#1A1A2E"/>
  <rect x="40" y="45" width="5" height="5" fill="#1A1A2E"/>
  <rect x="45" y="45" width="5" height="5" fill="#1A1A2E"/>
  <rect x="50" y="45" width="5" height="5" fill="#1A1A2E"/>
  <!-- Row 10: body -->
  <rect x="15" y="50" width="5" height="5" fill="#1A1A2E"/>
  <rect x="20" y="50" width="5" height="5" fill="#2D2B55"/>
  <rect x="25" y="50" width="5" height="5" fill="#2D2B55"/>
  <rect x="30" y="50" width="5" height="5" fill="#2D2B55"/>
  <rect x="35" y="50" width="5" height="5" fill="#2D2B55"/>
  <rect x="40" y="50" width="5" height="5" fill="#2D2B55"/>
  <rect x="45" y="50" width="5" height="5" fill="#2D2B55"/>
  <rect x="50" y="50" width="5" height="5" fill="#2D2B55"/>
  <rect x="55" y="50" width="5" height="5" fill="#2D2B55"/>
  <rect x="60" y="50" width="5" height="5" fill="#1A1A2E"/>
  <!-- Row 11: body with belt -->
  <rect x="10" y="55" width="5" height="5" fill="#1A1A2E"/>
  <rect x="15" y="55" width="5" height="5" fill="#2D2B55"/>
  <rect x="20" y="55" width="5" height="5" fill="#2D2B55"/>
  <rect x="25" y="55" width="5" height="5" fill="#2D2B55"/>
  <rect x="30" y="55" width="5" height="5" fill="#C62828"/>
  <rect x="35" y="55" width="5" height="5" fill="#C62828"/>
  <rect x="40" y="55" width="5" height="5" fill="#C62828"/>
  <rect x="45" y="55" width="5" height="5" fill="#C62828"/>
  <rect x="50" y="55" width="5" height="5" fill="#2D2B55"/>
  <rect x="55" y="55" width="5" height="5" fill="#2D2B55"/>
  <rect x="60" y="55" width="5" height="5" fill="#2D2B55"/>
  <rect x="65" y="55" width="5" height="5" fill="#1A1A2E"/>
  <!-- Row 12: body -->
  <rect x="10" y="60" width="5" height="5" fill="#2D2B55"/>
  <rect x="15" y="60" width="5" height="5" fill="#2D2B55"/>
  <rect x="20" y="60" width="5" height="5" fill="#2D2B55"/>
  <rect x="25" y="60" width="5" height="5" fill="#2D2B55"/>
  <rect x="30" y="60" width="5" height="5" fill="#2D2B55"/>
  <rect x="35" y="60" width="5" height="5" fill="#2D2B55"/>
  <rect x="40" y="60" width="5" height="5" fill="#2D2B55"/>
  <rect x="45" y="60" width="5" height="5" fill="#2D2B55"/>
  <rect x="50" y="60" width="5" height="5" fill="#2D2B55"/>
  <rect x="55" y="60" width="5" height="5" fill="#2D2B55"/>
  <rect x="60" y="60" width="5" height="5" fill="#2D2B55"/>
  <rect x="65" y="60" width="5" height="5" fill="#2D2B55"/>
  <!-- Row 13: sword -->
  <rect x="5" y="65" width="5" height="5" fill="#B0BEC5"/>
  <rect x="10" y="65" width="5" height="5" fill="#2D2B55"/>
  <rect x="15" y="65" width="5" height="5" fill="#2D2B55"/>
  <rect x="25" y="65" width="5" height="5" fill="#2D2B55"/>
  <rect x="30" y="65" width="5" height="5" fill="#2D2B55"/>
  <rect x="45" y="65" width="5" height="5" fill="#2D2B55"/>
  <rect x="50" y="65" width="5" height="5" fill="#2D2B55"/>
  <rect x="60" y="65" width="5" height="5" fill="#2D2B55"/>
  <rect x="65" y="65" width="5" height="5" fill="#2D2B55"/>
  <rect x="70" y="65" width="5" height="5" fill="#B0BEC5"/>
  <!-- Row 14: legs -->
  <rect x="20" y="70" width="5" height="5" fill="#1A1A2E"/>
  <rect x="25" y="70" width="5" height="5" fill="#1A1A2E"/>
  <rect x="30" y="70" width="5" height="5" fill="#1A1A2E"/>
  <rect x="45" y="70" width="5" height="5" fill="#1A1A2E"/>
  <rect x="50" y="70" width="5" height="5" fill="#1A1A2E"/>
  <rect x="55" y="70" width="5" height="5" fill="#1A1A2E"/>
  <!-- Row 15: feet -->
  <rect x="15" y="75" width="5" height="5" fill="#1A1A2E"/>
  <rect x="20" y="75" width="5" height="5" fill="#1A1A2E"/>
  <rect x="25" y="75" width="5" height="5" fill="#1A1A2E"/>
  <rect x="50" y="75" width="5" height="5" fill="#1A1A2E"/>
  <rect x="55" y="75" width="5" height="5" fill="#1A1A2E"/>
  <rect x="60" y="75" width="5" height="5" fill="#1A1A2E"/>
</svg>