<svg xmlns="http://www.w3.org/2000/svg" width="80" height="80" viewBox="0 0 80 80">
  <!-- Pac-Man: Yellow circle with mouth open -->
  <!-- Row 0 -->
  <rect x="25" y="0" width="5" height="5" fill="#FFD700"/>
  <rect x="30" y="0" width="5" height="5" fill="#FFD700"/>
  <rect x="35" y="0" width="5" height="5" fill="#FFD700"/>
  <rect x="40" y="0" width="5" height="5" fill="#FFD700"/>
  <rect x="45" y="0" width="5" height="5" fill="#FFD700"/>
  <rect x="50" y="0" width="5" height="5" fill="#FFD700"/>
  <!-- Row 1 -->
  <rect x="15" y="5" width="5" height="5" fill="#FFD700"/>
  <rect x="20" y="5" width="5" height="5" fill="#FFE033"/>
  <rect x="25" y="5" width="5" height="5" fill="#FFE833"/>
  <rect x="30" y="5" width="5" height="5" fill="#FFE833"/>
  <rect x="35" y="5" width="5" height="5" fill="#FFE833"/>
  <rect x="40" y="5" width="5" height="5" fill="#FFE833"/>
  <rect x="45" y="5" width="5" height="5" fill="#FFE833"/>
  <rect x="50" y="5" width="5" height="5" fill="#FFE033"/>
  <rect x="55" y="5" width="5" height="5" fill="#FFD700"/>
  <!-- Row 2 -->
  <rect x="10" y="10" width="5" height="5" fill="#FFD700"/>
  <rect x="15" y="10" width="5" height="5" fill="#FFE033"/>
  <rect x="20" y="10" width="5" height="5" fill="#FFE833"/>
  <rect x="25" y="10" width="5" height="5" fill="#FFF066"/>
  <rect x="30" y="10" width="5" height="5" fill="#FFF066"/>
  <rect x="35" y="10" width="5" height="5" fill="#FFF066"/>
  <rect x="40" y="10" width="5" height="5" fill="#FFF066"/>
  <rect x="45" y="10" width="5" height="5" fill="#FFF066"/>
  <rect x="50" y="10" width="5" height="5" fill="#FFE833"/>
  <rect x="55" y="10" width="5" height="5" fill="#FFE033"/>
  <rect x="60" y="10" width="5" height="5" fill="#FFD700"/>
  <!-- Row 3 -->
  <rect x="5" y="15" width="5" height="5" fill="#FFD700"/>
  <rect x="10" y="15" width="5" height="5" fill="#FFE033"/>
  <rect x="15" y="15" width="5" height="5" fill="#FFE833"/>
  <rect x="20" y="15" width="5" height="5" fill="#FFF066"/>
  <rect x="25" y="15" width="5" height="5" fill="#FFF066"/>
  <rect x="30" y="15" width="5" height="5" fill="#111111"/>
  <rect x="35" y="15" width="5" height="5" fill="#FFF066"/>
  <rect x="40" y="15" width="5" height="5" fill="#FFF066"/>
  <rect x="45" y="15" width="5" height="5" fill="#FFF066"/>
  <rect x="50" y="15" width="5" height="5" fill="#FFF066"/>
  <rect x="55" y="15" width="5" height="5" fill="#FFE833"/>
  <rect x="60" y="15" width="5" height="5" fill="#FFE033"/>
  <rect x="65" y="15" width="5" height="5" fill="#FFD700"/>
  <!-- Row 4 -->
  <rect x="5" y="20" width="5" height="5" fill="#FFD700"/>
  <rect x="10" y="20" width="5" height="5" fill="#FFE033"/>
  <rect x="15" y="20" width="5" height="5" fill="#FFE833"/>
  <rect x="20" y="20" width="5" height="5" fill="#FFF066"/>
  <rect x="25" y="20" width="5" height="5" fill="#FFF066"/>
  <rect x="30" y="20" width="5" height="5" fill="#FFF066"/>
  <rect x="35" y="20" width="5" height="5" fill="#FFF066"/>
  <rect x="40" y="20" width="5" height="5" fill="#FFF066"/>
  <rect x="45" y="20" width="5" height="5" fill="#FFF066"/>
  <rect x="50" y="20" width="5" height="5" fill="#FFE833"/>
  <rect x="55" y="20" width="5" height="5" fill="#FFE033"/>
  <rect x="60" y="20" width="5" height="5" fill="#FFD700"/>
  <!-- Row 5: mouth starts opening -->
  <rect x="0" y="25" width="5" height="5" fill="#FFD700"/>
  <rect x="5" y="25" width="5" height="5" fill="#FFE033"/>
  <rect x="10" y="25" width="5" height="5" fill="#FFE833"/>
  <rect x="15" y="25" width="5" height="5" fill="#FFF066"/>
  <rect x="20" y="25" width="5" height="5" fill="#FFF066"/>
  <rect x="25" y="25" width="5" height="5" fill="#FFF066"/>
  <rect x="30" y="25" width="5" height="5" fill="#FFF066"/>
  <rect x="35" y="25" width="5" height="5" fill="#FFF066"/>
  <rect x="40" y="25" width="5" height="5" fill="#FFE833"/>
  <rect x="45" y="25" width="5" height="5" fill="#FFD700"/>
  <!-- Row 6 -->
  <rect x="0" y="30" width="5" height="5" fill="#FFD700"/>
  <rect x="5" y="30" width="5" height="5" fill="#FFE033"/>
  <rect x="10" y="30" width="5" height="5" fill="#FFE833"/>
  <rect x="15" y="30" width="5" height="5" fill="#FFF066"/>
  <rect x="20" y="30" width="5" height="5" fill="#FFF066"/>
  <rect x="25" y="30" width="5" height="5" fill="#FFF066"/>
  <rect x="30" y="30" width="5" height="5" fill="#FFE833"/>
  <rect x="35" y="30" width="5" height="5" fill="#FFD700"/>
  <!-- Row 7: widest mouth -->
  <rect x="0" y="35" width="5" height="5" fill="#FFD700"/>
  <rect x="5" y="35" width="5" height="5" fill="#FFE033"/>
  <rect x="10" y="35" width="5" height="5" fill="#FFE833"/>
  <rect x="15" y="35" width="5" height="5" fill="#FFF066"/>
  <rect x="20" y="35" width="5" height="5" fill="#FFF066"/>
  <rect x="25" y="35" width="5" height="5" fill="#FFE833"/>
  <!-- Row 8: widest mouth -->
  <rect x="0" y="40" width="5" height="5" fill="#FFD700"/>
  <rect x="5" y="40" width="5" height="5" fill="#FFE033"/>
  <rect x="10" y="40" width="5" height="5" fill="#FFE833"/>
  <rect x="15" y="40" width="5" height="5" fill="#FFF066"/>
  <rect x="20" y="40" width="5" height="5" fill="#FFF066"/>
  <rect x="25" y="40" width="5" height="5" fill="#FFE833"/>
  <!-- Row 9: mouth closing -->
  <rect x="0" y="45" width="5" height="5" fill="#FFD700"/>
  <rect x="5" y="45" width="5" height="5" fill="#FFE033"/>
  <rect x="10" y="45" width="5" height="5" fill="#FFE833"/>
  <rect x="15" y="45" width="5" height="5" fill="#FFF066"/>
  <rect x="20" y="45" width="5" height="5" fill="#FFF066"/>
  <rect x="25" y="45" width="5" height="5" fill="#FFF066"/>
  <rect x="30" y="45" width="5" height="5" fill="#FFE833"/>
  <rect x="35" y="45" width="5" height="5" fill="#FFD700"/>
  <!-- Row 10 -->
  <rect x="0" y="50" width="5" height="5" fill="#FFD700"/>
  <rect x="5" y="50" width="5" height="5" fill="#FFE033"/>
  <rect x="10" y="50" width="5" height="5" fill="#FFE833"/>
  <rect x="15" y="50" width="5" height="5" fill="#FFF066"/>
  <rect x="20" y="50" width="5" height="5" fill="#FFF066"/>
  <rect x="25" y="50" width="5" height="5" fill="#FFF066"/>
  <rect x="30" y="50" width="5" height="5" fill="#FFF066"/>
  <rect x="35" y="50" width="5" height="5" fill="#FFF066"/>
  <rect x="40" y="50" width="5" height="5" fill="#FFE833"/>
  <rect x="45" y="50" width="5" height="5" fill="#FFD700"/>
  <!-- Row 11 -->
  <rect x="5" y="55" width="5" height="5" fill="#FFD700"/>
  <rect x="10" y="55" width="5" height="5" fill="#FFE033"/>
  <rect x="15" y="55" width="5" height="5" fill="#FFE833"/>
  <rect x="20" y="55" width="5" height="5" fill="#FFF066"/>
  <rect x="25" y="55" width="5" height="5" fill="#FFF066"/>
  <rect x="30" y="55" width="5" height="5" fill="#FFF066"/>
  <rect x="35" y="55" width="5" height="5" fill="#FFF066"/>
  <rect x="40" y="55" width="5" height="5" fill="#FFF066"/>
  <rect x="45" y="55" width="5" height="5" fill="#FFF066"/>
  <rect x="50" y="55" width="5" height="5" fill="#FFE833"/>
  <rect x="55" y="55" width="5" height="5" fill="#FFE033"/>
  <rect x="60" y="55" width="5" height="5" fill="#FFD700"/>
  <!-- Row 12 -->
  <rect x="5" y="60" width="5" height="5" fill="#FFD700"/>
  <rect x="10" y="60" width="5" height="5" fill="#FFE033"/>
  <rect x="15" y="60" width="5" height="5" fill="#FFE833"/>
  <rect x="20" y="60" width="5" height="5" fill="#FFF066"/>
  <rect x="25" y="60" width="5" height="5" fill="#FFF066"/>
  <rect x="30" y="60" width="5" height="5" fill="#FFF066"/>
  <rect x="35" y="60" width="5" height="5" fill="#FFF066"/>
  <rect x="40" y="60" width="5" height="5" fill="#FFF066"/>
  <rect x="45" y="60" width="5" height="5" fill="#FFF066"/>
  <rect x="50" y="60" width="5" height="5" fill="#FFE833"/>
  <rect x="55" y="60" width="5" height="5" fill="#FFE033"/>
  <rect x="60" y="60" width="5" height="5" fill="#FFD700"/>
  <!-- Row 13 -->
  <rect x="10" y="65" width="5" height="5" fill="#FFD700"/>
  <rect x="15" y="65" width="5" height="5" fill="#FFE033"/>
  <rect x="20" y="65" width="5" height="5" fill="#FFE833"/>
  <rect x="25" y="65" width="5" height="5" fill="#FFF066"/>
  <rect x="30" y="65" width="5" height="5" fill="#FFF066"/>
  <rect x="35" y="65" width="5" height="5" fill="#FFF066"/>
  <rect x="40" y="65" width="5" height="5" fill="#FFF066"/>
  <rect x="45" y="65" width="5" height="5" fill="#FFF066"/>
  <rect x="50" y="65" width="5" height="5" fill="#FFE833"/>
  <rect x="55" y="65" width="5" height="5" fill="#FFE033"/>
  <rect x="60" y="65" width="5" height="5" fill="#FFD700"/>
  <!-- Row 14 -->
  <rect x="15" y="70" width="5" height="5" fill="#FFD700"/>
  <rect x="20" y="70" width="5" height="5" fill="#FFE033"/>
  <rect x="25" y="70" width="5" height="5" fill="#FFE833"/>
  <rect x="30" y="70" width="5" height="5" fill="#FFE833"/>
  <rect x="35" y="70" width="5" height="5" fill="#FFE833"/>
  <rect x="40" y="70" width="5" height="5" fill="#FFE833"/>
  <rect x="45" y="70" width="5" height="5" fill="#FFE833"/>
  <rect x="50" y="70" width="5" height="5" fill="#FFE033"/>
  <rect x="55" y="70" width="5" height="5" fill="#FFD700"/>
  <!-- Row 15 -->
  <rect x="25" y="75" width="5" height="5" fill="#FFD700"/>
  <rect x="30" y="75" width="5" height="5" fill="#FFD700"/>
  <rect x="35" y="75" width="5" height="5" fill="#FFD700"/>
  <rect x="40" y="75" width="5" height="5" fill="#FFD700"/>
  <rect x="45" y="75" width="5" height="5" fill="#FFD700"/>
  <rect x="50" y="75" width="5" height="5" fill="#FFD700"/>
</svg>