<svg xmlns="http://www.w3.org/2000/svg" width="80" height="80" viewBox="0 0 80 80">
  <!-- Phoenix: Red/orange fire bird -->
  <!-- Row 0: crest -->
  <rect x="35" y="0" width="5" height="5" fill="#FF6F00"/>
  <rect x="40" y="0" width="5" height="5" fill="#FFAB00"/>
  <rect x="45" y="0" width="5" height="5" fill="#FFD600"/>
  <!-- Row 1: crest -->
  <rect x="30" y="5" width="5" height="5" fill="#D84315"/>
  <rect x="35" y="5" width="5" height="5" fill="#FF6F00"/>
  <rect x="40" y="5" width="5" height="5" fill="#FFAB00"/>
  <rect x="45" y="5" width="5" height="5" fill="#FFD600"/>
  <rect x="50" y="5" width="5" height="5" fill="#FFAB00"/>
  <!-- Row 2: head top -->
  <rect x="25" y="10" width="5" height="5" fill="#BF360C"/>
  <rect x="30" y="10" width="5" height="5" fill="#E65100"/>
  <rect x="35" y="10" width="5" height="5" fill="#FF6F00"/>
  <rect x="40" y="10" width="5" height="5" fill="#FF8F00"/>
  <rect x="45" y="10" width="5" height="5" fill="#FF8F00"/>
  <rect x="50" y="10" width="5" height="5" fill="#FF6F00"/>
  <rect x="55" y="10" width="5" height="5" fill="#E65100"/>
  <!-- Row 3: head -->
  <rect x="20" y="15" width="5" height="5" fill="#BF360C"/>
  <rect x="25" y="15" width="5" height="5" fill="#E65100"/>
  <rect x="30" y="15" width="5" height="5" fill="#FF6F00"/>
  <rect x="35" y="15" width="5" height="5" fill="#FF8F00"/>
  <rect x="40" y="15" width="5" height="5" fill="#FFAB00"/>
  <rect x="45" y="15" width="5" height="5" fill="#FF8F00"/>
  <rect x="50" y="15" width="5" height="5" fill="#FF6F00"/>
  <rect x="55" y="15" width="5" height="5" fill="#E65100"/>
  <rect x="60" y="15" width="5" height="5" fill="#BF360C"/>
  <!-- Row 4: eyes -->
  <rect x="15" y="20" width="5" height="5" fill="#BF360C"/>
  <rect x="20" y="20" width="5" height="5" fill="#E65100"/>
  <rect x="25" y="20" width="5" height="5" fill="#FFFFFF"/>
  <rect x="30" y="20" width="5" height="5" fill="#FFD600"/>
  <rect x="35" y="20" width="5" height="5" fill="#FF8F00"/>
  <rect x="40" y="20" width="5" height="5" fill="#FF8F00"/>
  <rect x="45" y="20" width="5" height="5" fill="#FF8F00"/>
  <rect x="50" y="20" width="5" height="5" fill="#FFFFFF"/>
  <rect x="55" y="20" width="5" height="5" fill="#FFD600"/>
  <rect x="60" y="20" width="5" height="5" fill="#E65100"/>
  <rect x="65" y="20" width="5" height="5" fill="#BF360C"/>
  <!-- Row 5: eyes + beak -->
  <rect x="15" y="25" width="5" height="5" fill="#BF360C"/>
  <rect x="20" y="25" width="5" height="5" fill="#E65100"/>
  <rect x="25" y="25" width="5" height="5" fill="#111111"/>
  <rect x="30" y="25" width="5" height="5" fill="#FFD600"/>
  <rect x="35" y="25" width="5" height="5" fill="#FF6F00"/>
  <rect x="40" y="25" width="5" height="5" fill="#FFD600"/>
  <rect x="45" y="25" width="5" height="5" fill="#FF6F00"/>
  <rect x="50" y="25" width="5" height="5" fill="#111111"/>
  <rect x="55" y="25" width="5" height="5" fill="#FFD600"/>
  <rect x="60" y="25" width="5" height="5" fill="#E65100"/>
  <rect x="65" y="25" width="5" height="5" fill="#BF360C"/>
  <!-- Row 6: beak -->
  <rect x="20" y="30" width="5" height="5" fill="#BF360C"/>
  <rect x="25" y="30" width="5" height="5" fill="#E65100"/>
  <rect x="30" y="30" width="5" height="5" fill="#FF6F00"/>
  <rect x="35" y="30" width="5" height="5" fill="#FF8F00"/>
  <rect x="40" y="30" width="5" height="5" fill="#FFD600"/>
  <rect x="45" y="30" width="5" height="5" fill="#FFAB00"/>
  <rect x="50" y="30" width="5" height="5" fill="#FF6F00"/>
  <rect x="55" y="30" width="5" height="5" fill="#E65100"/>
  <rect x="60" y="30" width="5" height="5" fill="#BF360C"/>
  <!-- Row 7: beak point -->
  <rect x="25" y="35" width="5" height="5" fill="#BF360C"/>
  <rect x="30" y="35" width="5" height="5" fill="#E65100"/>
  <rect x="35" y="35" width="5" height="5" fill="#FF6F00"/>
  <rect x="40" y="35" width="5" height="5" fill="#FFAB00"/>
  <rect x="45" y="35" width="5" height="5" fill="#FF6F00"/>
  <rect x="50" y="35" width="5" height="5" fill="#E65100"/>
  <rect x="55" y="35" width="5" height="5" fill="#BF360C"/>
  <!-- Row 8: neck -->
  <rect x="25" y="40" width="5" height="5" fill="#D84315"/>
  <rect x="30" y="40" width="5" height="5" fill="#E65100"/>
  <rect x="35" y="40" width="5" height="5" fill="#FF6F00"/>
  <rect x="40" y="40" width="5" height="5" fill="#FF6F00"/>
  <rect x="45" y="40" width="5" height="5" fill="#E65100"/>
  <rect x="50" y="40" width="5" height="5" fill="#D84315"/>
  <!-- Row 9: body top -->
  <rect x="15" y="45" width="5" height="5" fill="#BF360C"/>
  <rect x="20" y="45" width="5" height="5" fill="#D84315"/>
  <rect x="25" y="45" width="5" height="5" fill="#E65100"/>
  <rect x="30" y="45" width="5" height="5" fill="#FF6F00"/>
  <rect x="35" y="45" width="5" height="5" fill="#FF8F00"/>
  <rect x="40" y="45" width="5" height="5" fill="#FF8F00"/>
  <rect x="45" y="45" width="5" height="5" fill="#FF6F00"/>
  <rect x="50" y="45" width="5" height="5" fill="#E65100"/>
  <rect x="55" y="45" width="5" height="5" fill="#D84315"/>
  <rect x="60" y="45" width="5" height="5" fill="#BF360C"/>
  <!-- Row 10: wings spread -->
  <rect x="5" y="50" width="5" height="5" fill="#FFD600"/>
  <rect x="10" y="50" width="5" height="5" fill="#FFAB00"/>
  <rect x="15" y="50" width="5" height="5" fill="#FF8F00"/>
  <rect x="20" y="50" width="5" height="5" fill="#FF6F00"/>
  <rect x="25" y="50" width="5" height="5" fill="#E65100"/>
  <rect x="30" y="50" width="5" height="5" fill="#FF6F00"/>
  <rect x="35" y="50" width="5" height="5" fill="#FFAB00"/>
  <rect x="40" y="50" width="5" height="5" fill="#FFAB00"/>
  <rect x="45" y="50" width="5" height="5" fill="#FF6F00"/>
  <rect x="50" y="50" width="5" height="5" fill="#E65100"/>
  <rect x="55" y="50" width="5" height="5" fill="#FF6F00"/>
  <rect x="60" y="50" width="5" height="5" fill="#FF8F00"/>
  <rect x="65" y="50" width="5" height="5" fill="#FFAB00"/>
  <rect x="70" y="50" width="5" height="5" fill="#FFD600"/>
  <!-- Row 11: wings -->
  <rect x="0" y="55" width="5" height="5" fill="#FFD600"/>
  <rect x="5" y="55" width="5" height="5" fill="#FFAB00"/>
  <rect x="10" y="55" width="5" height="5" fill="#FF8F00"/>
  <rect x="15" y="55" width="5" height="5" fill="#FF6F00"/>
  <rect x="20" y="55" width="5" height="5" fill="#E65100"/>
  <rect x="25" y="55" width="5" height="5" fill="#D84315"/>
  <rect x="30" y="55" width="5" height="5" fill="#E65100"/>
  <rect x="35" y="55" width="5" height="5" fill="#FF6F00"/>
  <rect x="40" y="55" width="5" height="5" fill="#FF6F00"/>
  <rect x="45" y="55" width="5" height="5" fill="#E65100"/>
  <rect x="50" y="55" width="5" height="5" fill="#D84315"/>
  <rect x="55" y="55" width="5" height="5" fill="#E65100"/>
  <rect x="60" y="55" width="5" height="5" fill="#FF6F00"/>
  <rect x="65" y="55" width="5" height="5" fill="#FF8F00"/>
  <rect x="70" y="55" width="5" height="5" fill="#FFAB00"/>
  <rect x="75" y="55" width="5" height="5" fill="#FFD600"/>
  <!-- Row 12: body -->
  <rect x="0" y="60" width="5" height="5" fill="#FFAB00"/>
  <rect x="5" y="60" width="5" height="5" fill="#FF8F00"/>
  <rect x="10" y="60" width="5" height="5" fill="#FF6F00"/>
  <rect x="25" y="60" width="5" height="5" fill="#D84315"/>
  <rect x="30" y="60" width="5" height="5" fill="#BF360C"/>
  <rect x="35" y="60" width="5" height="5" fill="#D84315"/>
  <rect x="40" y="60" width="5" height="5" fill="#D84315"/>
  <rect x="45" y="60" width="5" height="5" fill="#BF360C"/>
  <rect x="50" y="60" width="5" height="5" fill="#D84315"/>
  <rect x="65" y="60" width="5" height="5" fill="#FF6F00"/>
  <rect x="70" y="60" width="5" height="5" fill="#FF8F00"/>
  <rect x="75" y="60" width="5" height="5" fill="#FFAB00"/>
  <!-- Row 13: tail flames -->
  <rect x="25" y="65" width="5" height="5" fill="#BF360C"/>
  <rect x="30" y="65" width="5" height="5" fill="#D84315"/>
  <rect x="35" y="65" width="5" height="5" fill="#E65100"/>
  <rect x="40" y="65" width="5" height="5" fill="#E65100"/>
  <rect x="45" y="65" width="5" height="5" fill="#D84315"/>
  <rect x="50" y="65" width="5" height="5" fill="#BF360C"/>
  <!-- Row 14: tail flames -->
  <rect x="20" y="70" width="5" height="5" fill="#FFD600"/>
  <rect x="25" y="70" width="5" height="5" fill="#FFAB00"/>
  <rect x="30" y="70" width="5" height="5" fill="#FF8F00"/>
  <rect x="35" y="70" width="5" height="5" fill="#FF6F00"/>
  <rect x="40" y="70" width="5" height="5" fill="#FF6F00"/>
  <rect x="45" y="70" width="5" height="5" fill="#FF8F00"/>
  <rect x="50" y="70" width="5" height="5" fill="#FFAB00"/>
  <rect x="55" y="70" width="5" height="5" fill="#FFD600"/>
  <!-- Row 15: tail flame tips -->
  <rect x="15" y="75" width="5" height="5" fill="#FFD600"/>
  <rect x="25" y="75" width="5" height="5" fill="#FFD600"/>
  <rect x="30" y="75" width="5" height="5" fill="#FFAB00"/>
  <rect x="35" y="75" width="5" height="5" fill="#FF8F00"/>
  <rect x="40" y="75" width="5" height="5" fill="#FF8F00"/>
  <rect x="45" y="75" width="5" height="5" fill="#FFAB00"/>
  <rect x="50" y="75" width="5" height="5" fill="#FFD600"/>
  <rect x="60" y="75" width="5" height="5" fill="#FFD600"/>
</svg>