<svg xmlns="http://www.w3.org/2000/svg" width="80" height="80" viewBox="0 0 80 80">
  <!-- Pirate: Hat and Eyepatch -->
  <!-- Row 0: hat top -->
  <rect x="25" y="0" width="5" height="5" fill="#212121"/>
  <rect x="30" y="0" width="5" height="5" fill="#333333"/>
  <rect x="35" y="0" width="5" height="5" fill="#333333"/>
  <rect x="40" y="0" width="5" height="5" fill="#333333"/>
  <rect x="45" y="0" width="5" height="5" fill="#333333"/>
  <rect x="50" y="0" width="5" height="5" fill="#212121"/>
  <!-- Row 1: hat -->
  <rect x="20" y="5" width="5" height="5" fill="#212121"/>
  <rect x="25" y="5" width="5" height="5" fill="#333333"/>
  <rect x="30" y="5" width="5" height="5" fill="#444444"/>
  <rect x="35" y="5" width="5" height="5" fill="#444444"/>
  <rect x="40" y="5" width="5" height="5" fill="#444444"/>
  <rect x="45" y="5" width="5" height="5" fill="#444444"/>
  <rect x="50" y="5" width="5" height="5" fill="#333333"/>
  <rect x="55" y="5" width="5" height="5" fill="#212121"/>
  <!-- Row 2: hat with skull -->
  <rect x="15" y="10" width="5" height="5" fill="#212121"/>
  <rect x="20" y="10" width="5" height="5" fill="#333333"/>
  <rect x="25" y="10" width="5" height="5" fill="#444444"/>
  <rect x="30" y="10" width="5" height="5" fill="#444444"/>
  <rect x="35" y="10" width="5" height="5" fill="#FFFFFF"/>
  <rect x="40" y="10" width="5" height="5" fill="#FFFFFF"/>
  <rect x="45" y="10" width="5" height="5" fill="#444444"/>
  <rect x="50" y="10" width="5" height="5" fill="#444444"/>
  <rect x="55" y="10" width="5" height="5" fill="#333333"/>
  <rect x="60" y="10" width="5" height="5" fill="#212121"/>
  <!-- Row 3: hat brim -->
  <rect x="10" y="15" width="5" height="5" fill="#212121"/>
  <rect x="15" y="15" width="5" height="5" fill="#333333"/>
  <rect x="20" y="15" width="5" height="5" fill="#333333"/>
  <rect x="25" y="15" width="5" height="5" fill="#333333"/>
  <rect x="30" y="15" width="5" height="5" fill="#333333"/>
  <rect x="35" y="15" width="5" height="5" fill="#333333"/>
  <rect x="40" y="15" width="5" height="5" fill="#333333"/>
  <rect x="45" y="15" width="5" height="5" fill="#333333"/>
  <rect x="50" y="15" width="5" height="5" fill="#333333"/>
  <rect x="55" y="15" width="5" height="5" fill="#333333"/>
  <rect x="60" y="15" width="5" height="5" fill="#333333"/>
  <rect x="65" y="15" width="5" height="5" fill="#212121"/>
  <!-- Row 4: hat brim gold -->
  <rect x="10" y="20" width="5" height="5" fill="#FFD600"/>
  <rect x="15" y="20" width="5" height="5" fill="#FFD600"/>
  <rect x="20" y="20" width="5" height="5" fill="#FFD600"/>
  <rect x="25" y="20" width="5" height="5" fill="#FFD600"/>
  <rect x="30" y="20" width="5" height="5" fill="#FFD600"/>
  <rect x="35" y="20" width="5" height="5" fill="#FFD600"/>
  <rect x="40" y="20" width="5" height="5" fill="#FFD600"/>
  <rect x="45" y="20" width="5" height="5" fill="#FFD600"/>
  <rect x="50" y="20" width="5" height="5" fill="#FFD600"/>
  <rect x="55" y="20" width="5" height="5" fill="#FFD600"/>
  <rect x="60" y="20" width="5" height="5" fill="#FFD600"/>
  <rect x="65" y="20" width="5" height="5" fill="#FFD600"/>
  <!-- Row 5: forehead -->
  <rect x="15" y="25" width="5" height="5" fill="#D7A86E"/>
  <rect x="20" y="25" width="5" height="5" fill="#E8BE8C"/>
  <rect x="25" y="25" width="5" height="5" fill="#F5D6B1"/>
  <rect x="30" y="25" width="5" height="5" fill="#F5D6B1"/>
  <rect x="35" y="25" width="5" height="5" fill="#F5D6B1"/>
  <rect x="40" y="25" width="5" height="5" fill="#F5D6B1"/>
  <rect x="45" y="25" width="5" height="5" fill="#F5D6B1"/>
  <rect x="50" y="25" width="5" height="5" fill="#F5D6B1"/>
  <rect x="55" y="25" width="5" height="5" fill="#E8BE8C"/>
  <rect x="60" y="25" width="5" height="5" fill="#D7A86E"/>
  <!-- Row 6: eyepatch strap + eye -->
  <rect x="15" y="30" width="5" height="5" fill="#D7A86E"/>
  <rect x="20" y="30" width="5" height="5" fill="#111111"/>
  <rect x="25" y="30" width="5" height="5" fill="#111111"/>
  <rect x="30" y="30" width="5" height="5" fill="#111111"/>
  <rect x="35" y="30" width="5" height="5" fill="#F5D6B1"/>
  <rect x="40" y="30" width="5" height="5" fill="#F5D6B1"/>
  <rect x="45" y="30" width="5" height="5" fill="#FFFFFF"/>
  <rect x="50" y="30" width="5" height="5" fill="#3E2723"/>
  <rect x="55" y="30" width="5" height="5" fill="#F5D6B1"/>
  <rect x="60" y="30" width="5" height="5" fill="#D7A86E"/>
  <!-- Row 7: nose -->
  <rect x="15" y="35" width="5" height="5" fill="#D7A86E"/>
  <rect x="20" y="35" width="5" height="5" fill="#F5D6B1"/>
  <rect x="25" y="35" width="5" height="5" fill="#F5D6B1"/>
  <rect x="30" y="35" width="5" height="5" fill="#F5D6B1"/>
  <rect x="35" y="35" width="5" height="5" fill="#D7A86E"/>
  <rect x="40" y="35" width="5" height="5" fill="#D7A86E"/>
  <rect x="45" y="35" width="5" height="5" fill="#F5D6B1"/>
  <rect x="50" y="35" width="5" height="5" fill="#F5D6B1"/>
  <rect x="55" y="35" width="5" height="5" fill="#F5D6B1"/>
  <rect x="60" y="35" width="5" height="5" fill="#D7A86E"/>
  <!-- Row 8: mouth/grin -->
  <rect x="20" y="40" width="5" height="5" fill="#D7A86E"/>
  <rect x="25" y="40" width="5" height="5" fill="#F5D6B1"/>
  <rect x="30" y="40" width="5" height="5" fill="#8D6E63"/>
  <rect x="35" y="40" width="5" height="5" fill="#FFFFFF"/>
  <rect x="40" y="40" width="5" height="5" fill="#8D6E63"/>
  <rect x="45" y="40" width="5" height="5" fill="#FFFFFF"/>
  <rect x="50" y="40" width="5" height="5" fill="#8D6E63"/>
  <rect x="55" y="40" width="5" height="5" fill="#D7A86E"/>
  <!-- Row 9: beard -->
  <rect x="20" y="45" width="5" height="5" fill="#5D4037"/>
  <rect x="25" y="45" width="5" height="5" fill="#6D4C41"/>
  <rect x="30" y="45" width="5" height="5" fill="#795548"/>
  <rect x="35" y="45" width="5" height="5" fill="#795548"/>
  <rect x="40" y="45" width="5" height="5" fill="#795548"/>
  <rect x="45" y="45" width="5" height="5" fill="#795548"/>
  <rect x="50" y="45" width="5" height="5" fill="#6D4C41"/>
  <rect x="55" y="45" width="5" height="5" fill="#5D4037"/>
  <!-- Row 10: beard -->
  <rect x="25" y="50" width="5" height="5" fill="#5D4037"/>
  <rect x="30" y="50" width="5" height="5" fill="#6D4C41"/>
  <rect x="35" y="50" width="5" height="5" fill="#6D4C41"/>
  <rect x="40" y="50" width="5" height="5" fill="#6D4C41"/>
  <rect x="45" y="50" width="5" height="5" fill="#6D4C41"/>
  <rect x="50" y="50" width="5" height="5" fill="#5D4037"/>
  <!-- Row 11: neck/coat -->
  <rect x="30" y="55" width="5" height="5" fill="#D7A86E"/>
  <rect x="35" y="55" width="5" height="5" fill="#D7A86E"/>
  <rect x="40" y="55" width="5" height="5" fill="#D7A86E"/>
  <rect x="45" y="55" width="5" height="5" fill="#D7A86E"/>
  <!-- Row 12: coat -->
  <rect x="15" y="60" width="5" height="5" fill="#B71C1C"/>
  <rect x="20" y="60" width="5" height="5" fill="#C62828"/>
  <rect x="25" y="60" width="5" height="5" fill="#D32F2F"/>
  <rect x="30" y="60" width="5" height="5" fill="#E53935"/>
  <rect x="35" y="60" width="5" height="5" fill="#FFD600"/>
  <rect x="40" y="60" width="5" height="5" fill="#FFD600"/>
  <rect x="45" y="60" width="5" height="5" fill="#E53935"/>
  <rect x="50" y="60" width="5" height="5" fill="#D32F2F"/>
  <rect x="55" y="60" width="5" height="5" fill="#C62828"/>
  <rect x="60" y="60" width="5" height="5" fill="#B71C1C"/>
  <!-- Row 13: coat -->
  <rect x="10" y="65" width="5" height="5" fill="#B71C1C"/>
  <rect x="15" y="65" width="5" height="5" fill="#C62828"/>
  <rect x="20" y="65" width="5" height="5" fill="#D32F2F"/>
  <rect x="25" y="65" width="5" height="5" fill="#D32F2F"/>
  <rect x="30" y="65" width="5" height="5" fill="#E53935"/>
  <rect x="35" y="65" width="5" height="5" fill="#FFD600"/>
  <rect x="40" y="65" width="5" height="5" fill="#FFD600"/>
  <rect x="45" y="65" width="5" height="5" fill="#E53935"/>
  <rect x="50" y="65" width="5" height="5" fill="#D32F2F"/>
  <rect x="55" y="65" width="5" height="5" fill="#D32F2F"/>
  <rect x="60" y="65" width="5" height="5" fill="#C62828"/>
  <rect x="65" y="65" width="5" height="5" fill="#B71C1C"/>
  <!-- Row 14: arms -->
  <rect x="5" y="70" width="5" height="5" fill="#D7A86E"/>
  <rect x="10" y="70" width="5" height="5" fill="#C62828"/>
  <rect x="15" y="70" width="5" height="5" fill="#D32F2F"/>
  <rect x="25" y="70" width="5" height="5" fill="#B71C1C"/>
  <rect x="30" y="70" width="5" height="5" fill="#B71C1C"/>
  <rect x="45" y="70" width="5" height="5" fill="#B71C1C"/>
  <rect x="50" y="70" width="5" height="5" fill="#B71C1C"/>
  <rect x="60" y="70" width="5" height="5" fill="#D32F2F"/>
  <rect x="65" y="70" width="5" height="5" fill="#C62828"/>
  <rect x="70" y="70" width="5" height="5" fill="#B0BEC5"/>
  <!-- Row 15: boots -->
  <rect x="20" y="75" width="5" height="5" fill="#3E2723"/>
  <rect x="25" y="75" width="5" height="5" fill="#4E342E"/>
  <rect x="30" y="75" width="5" height="5" fill="#3E2723"/>
  <rect x="45" y="75" width="5" height="5" fill="#3E2723"/>
  <rect x="50" y="75" width="5" height="5" fill="#4E342E"/>
  <rect x="55" y="75" width="5" height="5" fill="#3E2723"/>
</svg>