<svg xmlns="http://www.w3.org/2000/svg" width="80" height="80" viewBox="0 0 80 80">
  <!-- Darth Vader: Black/Dark Gray helmet -->
  <!-- Row 0: top of helmet -->
  <rect x="25" y="0" width="5" height="5" fill="#1A1A1A"/>
  <rect x="30" y="0" width="5" height="5" fill="#1A1A1A"/>
  <rect x="35" y="0" width="5" height="5" fill="#1A1A1A"/>
  <rect x="40" y="0" width="5" height="5" fill="#1A1A1A"/>
  <rect x="45" y="0" width="5" height="5" fill="#1A1A1A"/>
  <rect x="50" y="0" width="5" height="5" fill="#1A1A1A"/>
  <!-- Row 1 -->
  <rect x="20" y="5" width="5" height="5" fill="#1A1A1A"/>
  <rect x="25" y="5" width="5" height="5" fill="#2A2A2A"/>
  <rect x="30" y="5" width="5" height="5" fill="#333333"/>
  <rect x="35" y="5" width="5" height="5" fill="#3A3A3A"/>
  <rect x="40" y="5" width="5" height="5" fill="#3A3A3A"/>
  <rect x="45" y="5" width="5" height="5" fill="#333333"/>
  <rect x="50" y="5" width="5" height="5" fill="#2A2A2A"/>
  <rect x="55" y="5" width="5" height="5" fill="#1A1A1A"/>
  <!-- Row 2 -->
  <rect x="15" y="10" width="5" height="5" fill="#1A1A1A"/>
  <rect x="20" y="10" width="5" height="5" fill="#2A2A2A"/>
  <rect x="25" y="10" width="5" height="5" fill="#3A3A3A"/>
  <rect x="30" y="10" width="5" height="5" fill="#444444"/>
  <rect x="35" y="10" width="5" height="5" fill="#4A4A4A"/>
  <rect x="40" y="10" width="5" height="5" fill="#4A4A4A"/>
  <rect x="45" y="10" width="5" height="5" fill="#444444"/>
  <rect x="50" y="10" width="5" height="5" fill="#3A3A3A"/>
  <rect x="55" y="10" width="5" height="5" fill="#2A2A2A"/>
  <rect x="60" y="10" width="5" height="5" fill="#1A1A1A"/>
  <!-- Row 3 -->
  <rect x="10" y="15" width="5" height="5" fill="#1A1A1A"/>
  <rect x="15" y="15" width="5" height="5" fill="#2A2A2A"/>
  <rect x="20" y="15" width="5" height="5" fill="#3A3A3A"/>
  <rect x="25" y="15" width="5" height="5" fill="#444444"/>
  <rect x="30" y="15" width="5" height="5" fill="#4A4A4A"/>
  <rect x="35" y="15" width="5" height="5" fill="#505050"/>
  <rect x="40" y="15" width="5" height="5" fill="#505050"/>
  <rect x="45" y="15" width="5" height="5" fill="#4A4A4A"/>
  <rect x="50" y="15" width="5" height="5" fill="#444444"/>
  <rect x="55" y="15" width="5" height="5" fill="#3A3A3A"/>
  <rect x="60" y="15" width="5" height="5" fill="#2A2A2A"/>
  <rect x="65" y="15" width="5" height="5" fill="#1A1A1A"/>
  <!-- Row 4: brow ridge -->
  <rect x="10" y="20" width="5" height="5" fill="#1A1A1A"/>
  <rect x="15" y="20" width="5" height="5" fill="#2A2A2A"/>
  <rect x="20" y="20" width="5" height="5" fill="#1A1A1A"/>
  <rect x="25" y="20" width="5" height="5" fill="#1A1A1A"/>
  <rect x="30" y="20" width="5" height="5" fill="#1A1A1A"/>
  <rect x="35" y="20" width="5" height="5" fill="#505050"/>
  <rect x="40" y="20" width="5" height="5" fill="#505050"/>
  <rect x="45" y="20" width="5" height="5" fill="#1A1A1A"/>
  <rect x="50" y="20" width="5" height="5" fill="#1A1A1A"/>
  <rect x="55" y="20" width="5" height="5" fill="#1A1A1A"/>
  <rect x="60" y="20" width="5" height="5" fill="#2A2A2A"/>
  <rect x="65" y="20" width="5" height="5" fill="#1A1A1A"/>
  <!-- Row 5: eyes -->
  <rect x="10" y="25" width="5" height="5" fill="#1A1A1A"/>
  <rect x="15" y="25" width="5" height="5" fill="#2A2A2A"/>
  <rect x="20" y="25" width="5" height="5" fill="#3A3A3A"/>
  <rect x="25" y="25" width="5" height="5" fill="#880000"/>
  <rect x="30" y="25" width="5" height="5" fill="#CC0000"/>
  <rect x="35" y="25" width="5" height="5" fill="#3A3A3A"/>
  <rect x="40" y="25" width="5" height="5" fill="#3A3A3A"/>
  <rect x="45" y="25" width="5" height="5" fill="#880000"/>
  <rect x="50" y="25" width="5" height="5" fill="#CC0000"/>
  <rect x="55" y="25" width="5" height="5" fill="#3A3A3A"/>
  <rect x="60" y="25" width="5" height="5" fill="#2A2A2A"/>
  <rect x="65" y="25" width="5" height="5" fill="#1A1A1A"/>
  <!-- Row 6 -->
  <rect x="10" y="30" width="5" height="5" fill="#1A1A1A"/>
  <rect x="15" y="30" width="5" height="5" fill="#2A2A2A"/>
  <rect x="20" y="30" width="5" height="5" fill="#3A3A3A"/>
  <rect x="25" y="30" width="5" height="5" fill="#3A3A3A"/>
  <rect x="30" y="30" width="5" height="5" fill="#3A3A3A"/>
  <rect x="35" y="30" width="5" height="5" fill="#444444"/>
  <rect x="40" y="30" width="5" height="5" fill="#444444"/>
  <rect x="45" y="30" width="5" height="5" fill="#3A3A3A"/>
  <rect x="50" y="30" width="5" height="5" fill="#3A3A3A"/>
  <rect x="55" y="30" width="5" height="5" fill="#3A3A3A"/>
  <rect x="60" y="30" width="5" height="5" fill="#2A2A2A"/>
  <rect x="65" y="30" width="5" height="5" fill="#1A1A1A"/>
  <!-- Row 7: nose/mask triangle -->
  <rect x="10" y="35" width="5" height="5" fill="#1A1A1A"/>
  <rect x="15" y="35" width="5" height="5" fill="#2A2A2A"/>
  <rect x="20" y="35" width="5" height="5" fill="#3A3A3A"/>
  <rect x="25" y="35" width="5" height="5" fill="#3A3A3A"/>
  <rect x="30" y="35" width="5" height="5" fill="#444444"/>
  <rect x="35" y="35" width="5" height="5" fill="#1A1A1A"/>
  <rect x="40" y="35" width="5" height="5" fill="#1A1A1A"/>
  <rect x="45" y="35" width="5" height="5" fill="#444444"/>
  <rect x="50" y="35" width="5" height="5" fill="#3A3A3A"/>
  <rect x="55" y="35" width="5" height="5" fill="#3A3A3A"/>
  <rect x="60" y="35" width="5" height="5" fill="#2A2A2A"/>
  <rect x="65" y="35" width="5" height="5" fill="#1A1A1A"/>
  <!-- Row 8: mask -->
  <rect x="10" y="40" width="5" height="5" fill="#1A1A1A"/>
  <rect x="15" y="40" width="5" height="5" fill="#2A2A2A"/>
  <rect x="20" y="40" width="5" height="5" fill="#333333"/>
  <rect x="25" y="40" width="5" height="5" fill="#3A3A3A"/>
  <rect x="30" y="40" width="5" height="5" fill="#1A1A1A"/>
  <rect x="35" y="40" width="5" height="5" fill="#2A2A2A"/>
  <rect x="40" y="40" width="5" height="5" fill="#2A2A2A"/>
  <rect x="45" y="40" width="5" height="5" fill="#1A1A1A"/>
  <rect x="50" y="40" width="5" height="5" fill="#3A3A3A"/>
  <rect x="55" y="40" width="5" height="5" fill="#333333"/>
  <rect x="60" y="40" width="5" height="5" fill="#2A2A2A"/>
  <rect x="65" y="40" width="5" height="5" fill="#1A1A1A"/>
  <!-- Row 9: breathing mask -->
  <rect x="15" y="45" width="5" height="5" fill="#1A1A1A"/>
  <rect x="20" y="45" width="5" height="5" fill="#2A2A2A"/>
  <rect x="25" y="45" width="5" height="5" fill="#555555"/>
  <rect x="30" y="45" width="5" height="5" fill="#666666"/>
  <rect x="35" y="45" width="5" height="5" fill="#555555"/>
  <rect x="40" y="45" width="5" height="5" fill="#555555"/>
  <rect x="45" y="45" width="5" height="5" fill="#666666"/>
  <rect x="50" y="45" width="5" height="5" fill="#555555"/>
  <rect x="55" y="45" width="5" height="5" fill="#2A2A2A"/>
  <rect x="60" y="45" width="5" height="5" fill="#1A1A1A"/>
  <!-- Row 10: mouth grill -->
  <rect x="15" y="50" width="5" height="5" fill="#1A1A1A"/>
  <rect x="20" y="50" width="5" height="5" fill="#2A2A2A"/>
  <rect x="25" y="50" width="5" height="5" fill="#444444"/>
  <rect x="30" y="50" width="5" height="5" fill="#1A1A1A"/>
  <rect x="35" y="50" width="5" height="5" fill="#444444"/>
  <rect x="40" y="50" width="5" height="5" fill="#444444"/>
  <rect x="45" y="50" width="5" height="5" fill="#1A1A1A"/>
  <rect x="50" y="50" width="5" height="5" fill="#444444"/>
  <rect x="55" y="50" width="5" height="5" fill="#2A2A2A"/>
  <rect x="60" y="50" width="5" height="5" fill="#1A1A1A"/>
  <!-- Row 11: grill -->
  <rect x="20" y="55" width="5" height="5" fill="#1A1A1A"/>
  <rect x="25" y="55" width="5" height="5" fill="#444444"/>
  <rect x="30" y="55" width="5" height="5" fill="#444444"/>
  <rect x="35" y="55" width="5" height="5" fill="#1A1A1A"/>
  <rect x="40" y="55" width="5" height="5" fill="#1A1A1A"/>
  <rect x="45" y="55" width="5" height="5" fill="#444444"/>
  <rect x="50" y="55" width="5" height="5" fill="#444444"/>
  <rect x="55" y="55" width="5" height="5" fill="#1A1A1A"/>
  <!-- Row 12: chin -->
  <rect x="20" y="60" width="5" height="5" fill="#1A1A1A"/>
  <rect x="25" y="60" width="5" height="5" fill="#2A2A2A"/>
  <rect x="30" y="60" width="5" height="5" fill="#333333"/>
  <rect x="35" y="60" width="5" height="5" fill="#333333"/>
  <rect x="40" y="60" width="5" height="5" fill="#333333"/>
  <rect x="45" y="60" width="5" height="5" fill="#333333"/>
  <rect x="50" y="60" width="5" height="5" fill="#2A2A2A"/>
  <rect x="55" y="60" width="5" height="5" fill="#1A1A1A"/>
  <!-- Row 13: neck -->
  <rect x="25" y="65" width="5" height="5" fill="#1A1A1A"/>
  <rect x="30" y="65" width="5" height="5" fill="#2A2A2A"/>
  <rect x="35" y="65" width="5" height="5" fill="#2A2A2A"/>
  <rect x="40" y="65" width="5" height="5" fill="#2A2A2A"/>
  <rect x="45" y="65" width="5" height="5" fill="#2A2A2A"/>
  <rect x="50" y="65" width="5" height="5" fill="#1A1A1A"/>
  <!-- Row 14: chest plate -->
  <rect x="20" y="70" width="5" height="5" fill="#1A1A1A"/>
  <rect x="25" y="70" width="5" height="5" fill="#2A2A2A"/>
  <rect x="30" y="70" width="5" height="5" fill="#333333"/>
  <rect x="35" y="70" width="5" height="5" fill="#444444"/>
  <rect x="40" y="70" width="5" height="5" fill="#444444"/>
  <rect x="45" y="70" width="5" height="5" fill="#333333"/>
  <rect x="50" y="70" width="5" height="5" fill="#2A2A2A"/>
  <rect x="55" y="70" width="5" height="5" fill="#1A1A1A"/>
  <!-- Row 15: chest buttons -->
  <rect x="20" y="75" width="5" height="5" fill="#1A1A1A"/>
  <rect x="25" y="75" width="5" height="5" fill="#2A2A2A"/>
  <rect x="30" y="75" width="5" height="5" fill="#CC0000"/>
  <rect x="35" y="75" width="5" height="5" fill="#0066CC"/>
  <rect x="40" y="75" width="5" height="5" fill="#CC0000"/>
  <rect x="45" y="75" width="5" height="5" fill="#333333"/>
  <rect x="50" y="75" width="5" height="5" fill="#2A2A2A"/>
  <rect x="55" y="75" width="5" height="5" fill="#1A1A1A"/>
</svg>