<svg xmlns="http://www.w3.org/2000/svg" width="80" height="80" viewBox="0 0 80 80">
  <!-- Viking: Horned helmet warrior -->
  <!-- Row 0: horns -->
  <rect x="5" y="0" width="5" height="5" fill="#FDD835"/>
  <rect x="70" y="0" width="5" height="5" fill="#FDD835"/>
  <!-- Row 1: horns -->
  <rect x="10" y="5" width="5" height="5" fill="#FDD835"/>
  <rect x="15" y="5" width="5" height="5" fill="#F9A825"/>
  <rect x="60" y="5" width="5" height="5" fill="#F9A825"/>
  <rect x="65" y="5" width="5" height="5" fill="#FDD835"/>
  <!-- Row 2: horns + helmet -->
  <rect x="15" y="10" width="5" height="5" fill="#F9A825"/>
  <rect x="20" y="10" width="5" height="5" fill="#757575"/>
  <rect x="25" y="10" width="5" height="5" fill="#9E9E9E"/>
  <rect x="30" y="10" width="5" height="5" fill="#BDBDBD"/>
  <rect x="35" y="10" width="5" height="5" fill="#BDBDBD"/>
  <rect x="40" y="10" width="5" height="5" fill="#BDBDBD"/>
  <rect x="45" y="10" width="5" height="5" fill="#BDBDBD"/>
  <rect x="50" y="10" width="5" height="5" fill="#9E9E9E"/>
  <rect x="55" y="10" width="5" height="5" fill="#757575"/>
  <rect x="60" y="10" width="5" height="5" fill="#F9A825"/>
  <!-- Row 3: helmet -->
  <rect x="15" y="15" width="5" height="5" fill="#757575"/>
  <rect x="20" y="15" width="5" height="5" fill="#9E9E9E"/>
  <rect x="25" y="15" width="5" height="5" fill="#BDBDBD"/>
  <rect x="30" y="15" width="5" height="5" fill="#E0E0E0"/>
  <rect x="35" y="15" width="5" height="5" fill="#E0E0E0"/>
  <rect x="40" y="15" width="5" height="5" fill="#E0E0E0"/>
  <rect x="45" y="15" width="5" height="5" fill="#E0E0E0"/>
  <rect x="50" y="15" width="5" height="5" fill="#BDBDBD"/>
  <rect x="55" y="15" width="5" height="5" fill="#9E9E9E"/>
  <rect x="60" y="15" width="5" height="5" fill="#757575"/>
  <!-- Row 4: helmet rim -->
  <rect x="10" y="20" width="5" height="5" fill="#616161"/>
  <rect x="15" y="20" width="5" height="5" fill="#757575"/>
  <rect x="20" y="20" width="5" height="5" fill="#9E9E9E"/>
  <rect x="25" y="20" width="5" height="5" fill="#9E9E9E"/>
  <rect x="30" y="20" width="5" height="5" fill="#BDBDBD"/>
  <rect x="35" y="20" width="5" height="5" fill="#E0E0E0"/>
  <rect x="40" y="20" width="5" height="5" fill="#E0E0E0"/>
  <rect x="45" y="20" width="5" height="5" fill="#BDBDBD"/>
  <rect x="50" y="20" width="5" height="5" fill="#9E9E9E"/>
  <rect x="55" y="20" width="5" height="5" fill="#9E9E9E"/>
  <rect x="60" y="20" width="5" height="5" fill="#757575"/>
  <rect x="65" y="20" width="5" height="5" fill="#616161"/>
  <!-- Row 5: nose guard + face -->
  <rect x="15" y="25" width="5" height="5" fill="#F5D6B1"/>
  <rect x="20" y="25" width="5" height="5" fill="#F5D6B1"/>
  <rect x="25" y="25" width="5" height="5" fill="#F5D6B1"/>
  <rect x="30" y="25" width="5" height="5" fill="#F5D6B1"/>
  <rect x="35" y="25" width="5" height="5" fill="#9E9E9E"/>
  <rect x="40" y="25" width="5" height="5" fill="#9E9E9E"/>
  <rect x="45" y="25" width="5" height="5" fill="#F5D6B1"/>
  <rect x="50" y="25" width="5" height="5" fill="#F5D6B1"/>
  <rect x="55" y="25" width="5" height="5" fill="#F5D6B1"/>
  <rect x="60" y="25" width="5" height="5" fill="#F5D6B1"/>
  <!-- Row 6: eyes -->
  <rect x="15" y="30" width="5" height="5" fill="#E8BE8C"/>
  <rect x="20" y="30" width="5" height="5" fill="#FFFFFF"/>
  <rect x="25" y="30" width="5" height="5" fill="#1565C0"/>
  <rect x="30" y="30" width="5" height="5" fill="#F5D6B1"/>
  <rect x="35" y="30" width="5" height="5" fill="#757575"/>
  <rect x="40" y="30" width="5" height="5" fill="#757575"/>
  <rect x="45" y="30" width="5" height="5" fill="#F5D6B1"/>
  <rect x="50" y="30" width="5" height="5" fill="#FFFFFF"/>
  <rect x="55" y="30" width="5" height="5" fill="#1565C0"/>
  <rect x="60" y="30" width="5" height="5" fill="#E8BE8C"/>
  <!-- Row 7: nose -->
  <rect x="15" y="35" width="5" height="5" fill="#E8BE8C"/>
  <rect x="20" y="35" width="5" height="5" fill="#F5D6B1"/>
  <rect x="25" y="35" width="5" height="5" fill="#F5D6B1"/>
  <rect x="30" y="35" width="5" height="5" fill="#F5D6B1"/>
  <rect x="35" y="35" width="5" height="5" fill="#D7A86E"/>
  <rect x="40" y="35" width="5" height="5" fill="#D7A86E"/>
  <rect x="45" y="35" width="5" height="5" fill="#F5D6B1"/>
  <rect x="50" y="35" width="5" height="5" fill="#F5D6B1"/>
  <rect x="55" y="35" width="5" height="5" fill="#F5D6B1"/>
  <rect x="60" y="35" width="5" height="5" fill="#E8BE8C"/>
  <!-- Row 8: beard top -->
  <rect x="15" y="40" width="5" height="5" fill="#FF8F00"/>
  <rect x="20" y="40" width="5" height="5" fill="#FFB300"/>
  <rect x="25" y="40" width="5" height="5" fill="#FFB300"/>
  <rect x="30" y="40" width="5" height="5" fill="#FFB300"/>
  <rect x="35" y="40" width="5" height="5" fill="#FFB300"/>
  <rect x="40" y="40" width="5" height="5" fill="#FFB300"/>
  <rect x="45" y="40" width="5" height="5" fill="#FFB300"/>
  <rect x="50" y="40" width="5" height="5" fill="#FFB300"/>
  <rect x="55" y="40" width="5" height="5" fill="#FFB300"/>
  <rect x="60" y="40" width="5" height="5" fill="#FF8F00"/>
  <!-- Row 9: beard -->
  <rect x="10" y="45" width="5" height="5" fill="#FF8F00"/>
  <rect x="15" y="45" width="5" height="5" fill="#FFB300"/>
  <rect x="20" y="45" width="5" height="5" fill="#FFC107"/>
  <rect x="25" y="45" width="5" height="5" fill="#FFC107"/>
  <rect x="30" y="45" width="5" height="5" fill="#FFC107"/>
  <rect x="35" y="45" width="5" height="5" fill="#FFC107"/>
  <rect x="40" y="45" width="5" height="5" fill="#FFC107"/>
  <rect x="45" y="45" width="5" height="5" fill="#FFC107"/>
  <rect x="50" y="45" width="5" height="5" fill="#FFC107"/>
  <rect x="55" y="45" width="5" height="5" fill="#FFC107"/>
  <rect x="60" y="45" width="5" height="5" fill="#FFB300"/>
  <rect x="65" y="45" width="5" height="5" fill="#FF8F00"/>
  <!-- Row 10: beard points -->
  <rect x="10" y="50" width="5" height="5" fill="#FFB300"/>
  <rect x="15" y="50" width="5" height="5" fill="#FFC107"/>
  <rect x="20" y="50" width="5" height="5" fill="#FFC107"/>
  <rect x="30" y="50" width="5" height="5" fill="#FFB300"/>
  <rect x="35" y="50" width="5" height="5" fill="#FFC107"/>
  <rect x="40" y="50" width="5" height="5" fill="#FFC107"/>
  <rect x="45" y="50" width="5" height="5" fill="#FFB300"/>
  <rect x="55" y="50" width="5" height="5" fill="#FFC107"/>
  <rect x="60" y="50" width="5" height="5" fill="#FFC107"/>
  <rect x="65" y="50" width="5" height="5" fill="#FFB300"/>
  <!-- Row 11: body -->
  <rect x="15" y="55" width="5" height="5" fill="#5D4037"/>
  <rect x="20" y="55" width="5" height="5" fill="#6D4C41"/>
  <rect x="25" y="55" width="5" height="5" fill="#795548"/>
  <rect x="30" y="55" width="5" height="5" fill="#8D6E63"/>
  <rect x="35" y="55" width="5" height="5" fill="#8D6E63"/>
  <rect x="40" y="55" width="5" height="5" fill="#8D6E63"/>
  <rect x="45" y="55" width="5" height="5" fill="#8D6E63"/>
  <rect x="50" y="55" width="5" height="5" fill="#795548"/>
  <rect x="55" y="55" width="5" height="5" fill="#6D4C41"/>
  <rect x="60" y="55" width="5" height="5" fill="#5D4037"/>
  <!-- Row 12: armor -->
  <rect x="10" y="60" width="5" height="5" fill="#5D4037"/>
  <rect x="15" y="60" width="5" height="5" fill="#795548"/>
  <rect x="20" y="60" width="5" height="5" fill="#8D6E63"/>
  <rect x="25" y="60" width="5" height="5" fill="#8D6E63"/>
  <rect x="30" y="60" width="5" height="5" fill="#9E9E9E"/>
  <rect x="35" y="60" width="5" height="5" fill="#BDBDBD"/>
  <rect x="40" y="60" width="5" height="5" fill="#BDBDBD"/>
  <rect x="45" y="60" width="5" height="5" fill="#9E9E9E"/>
  <rect x="50" y="60" width="5" height="5" fill="#8D6E63"/>
  <rect x="55" y="60" width="5" height="5" fill="#8D6E63"/>
  <rect x="60" y="60" width="5" height="5" fill="#795548"/>
  <rect x="65" y="60" width="5" height="5" fill="#5D4037"/>
  <!-- Row 13: arms + shield -->
  <rect x="0" y="65" width="5" height="5" fill="#F5D6B1"/>
  <rect x="5" y="65" width="5" height="5" fill="#795548"/>
  <rect x="10" y="65" width="5" height="5" fill="#8D6E63"/>
  <rect x="25" y="65" width="5" height="5" fill="#5D4037"/>
  <rect x="30" y="65" width="5" height="5" fill="#5D4037"/>
  <rect x="45" y="65" width="5" height="5" fill="#5D4037"/>
  <rect x="50" y="65" width="5" height="5" fill="#5D4037"/>
  <rect x="60" y="65" width="5" height="5" fill="#8D6E63"/>
  <rect x="65" y="65" width="5" height="5" fill="#9E9E9E"/>
  <rect x="70" y="65" width="5" height="5" fill="#BDBDBD"/>
  <!-- Row 14: legs -->
  <rect x="20" y="70" width="5" height="5" fill="#5D4037"/>
  <rect x="25" y="70" width="5" height="5" fill="#795548"/>
  <rect x="30" y="70" width="5" height="5" fill="#795548"/>
  <rect x="45" y="70" width="5" height="5" fill="#795548"/>
  <rect x="50" y="70" width="5" height="5" fill="#795548"/>
  <rect x="55" y="70" width="5" height="5" fill="#5D4037"/>
  <rect x="65" y="70" width="5" height="5" fill="#BDBDBD"/>
  <rect x="70" y="70" width="5" height="5" fill="#9E9E9E"/>
  <!-- Row 15: boots -->
  <rect x="15" y="75" width="5" height="5" fill="#3E2723"/>
  <rect x="20" y="75" width="5" height="5" fill="#4E342E"/>
  <rect x="25" y="75" width="5" height="5" fill="#5D4037"/>
  <rect x="30" y="75" width="5" height="5" fill="#4E342E"/>
  <rect x="45" y="75" width="5" height="5" fill="#4E342E"/>
  <rect x="50" y="75" width="5" height="5" fill="#5D4037"/>
  <rect x="55" y="75" width="5" height="5" fill="#4E342E"/>
  <rect x="60" y="75" width="5" height="5" fill="#3E2723"/>
</svg>